<?xml version="1.0" encoding="utf-8" standalone="no"?>
<!DOCTYPE svg PUBLIC "-//W3C//DTD SVG 1.1//EN"
  "http://www.w3.org/Graphics/SVG/1.1/DTD/svg11.dtd">
<svg height="180pt" version="1.1" viewBox="0 0 270 180" width="270pt" xmlns="http://www.w3.org/2000/svg" xmlns:xlink="http://www.w3.org/1999/xlink">
 <metadata>
  <rdf:RDF xmlns:cc="http://creativecommons.org/ns#" xmlns:dc="http://purl.org/dc/elements/1.1/" xmlns:rdf="http://www.w3.org/1999/02/22-rdf-syntax-ns#">
   <cc:Work>
    <dc:type rdf:resource="http://purl.org/dc/dcmitype/StillImage"/>
    <dc:date>2022-03-27T13:31:23.463899</dc:date>
    <dc:format>image/svg+xml</dc:format>
    <dc:creator>
     <cc:Agent>
      <dc:title>Matplotlib v3.4.3, https://matplotlib.org/</dc:title>
     </cc:Agent>
    </dc:creator>
   </cc:Work>
  </rdf:RDF>
 </metadata>
 <defs>
  <style type="text/css">*{stroke-linecap:butt;stroke-linejoin:round;}</style>
 </defs>
 <g id="figure_1">
  <g id="patch_1">
   <path d="M 0 180 
L 270 180 
L 270 0 
L 0 0 
z
" style="fill:none;"/>
  </g>
  <g id="axes_1">
   <g id="patch_2">
    <path d="M 37.8 74.377358 
L 261.9 74.377358 
L 261.9 9 
L 37.8 9 
z
" style="fill:none;"/>
   </g>
   <g id="matplotlib.axis_1">
    <g id="xtick_1">
     <g id="line2d_1">
      <defs>
       <path d="M 0 0 
L 0 3.5 
" id="m800f325d6b" style="stroke:#000000;stroke-width:0.8;"/>
      </defs>
      <g>
       <use style="stroke:#000000;stroke-width:0.8;" x="47.986364" xlink:href="#m800f325d6b" y="74.377358"/>
      </g>
     </g>
    </g>
    <g id="xtick_2">
     <g id="line2d_2">
      <g>
       <use style="stroke:#000000;stroke-width:0.8;" x="98.918182" xlink:href="#m800f325d6b" y="74.377358"/>
      </g>
     </g>
    </g>
    <g id="xtick_3">
     <g id="line2d_3">
      <g>
       <use style="stroke:#000000;stroke-width:0.8;" x="149.85" xlink:href="#m800f325d6b" y="74.377358"/>
      </g>
     </g>
    </g>
    <g id="xtick_4">
     <g id="line2d_4">
      <g>
       <use style="stroke:#000000;stroke-width:0.8;" x="200.781818" xlink:href="#m800f325d6b" y="74.377358"/>
      </g>
     </g>
    </g>
    <g id="xtick_5">
     <g id="line2d_5">
      <g>
       <use style="stroke:#000000;stroke-width:0.8;" x="251.713636" xlink:href="#m800f325d6b" y="74.377358"/>
      </g>
     </g>
    </g>
   </g>
   <g id="matplotlib.axis_2">
    <g id="ytick_1">
     <g id="line2d_6">
      <defs>
       <path d="M 0 0 
L -3.5 0 
" id="m45ae2434e9" style="stroke:#000000;stroke-width:0.8;"/>
      </defs>
      <g>
       <use style="stroke:#000000;stroke-width:0.8;" x="37.8" xlink:href="#m45ae2434e9" y="74.377358"/>
      </g>
     </g>
     <g id="text_1">
      <!-- 0.4 -->
      <g transform="translate(16.487188 77.796655)scale(0.09 -0.09)">
       <defs>
        <path d="M 2034 4250 
Q 1547 4250 1301 3770 
Q 1056 3291 1056 2328 
Q 1056 1369 1301 889 
Q 1547 409 2034 409 
Q 2525 409 2770 889 
Q 3016 1369 3016 2328 
Q 3016 3291 2770 3770 
Q 2525 4250 2034 4250 
z
M 2034 4750 
Q 2819 4750 3233 4129 
Q 3647 3509 3647 2328 
Q 3647 1150 3233 529 
Q 2819 -91 2034 -91 
Q 1250 -91 836 529 
Q 422 1150 422 2328 
Q 422 3509 836 4129 
Q 1250 4750 2034 4750 
z
" id="DejaVuSans-30" transform="scale(0.015625)"/>
        <path d="M 684 794 
L 1344 794 
L 1344 0 
L 684 0 
L 684 794 
z
" id="DejaVuSans-2e" transform="scale(0.015625)"/>
        <path d="M 2419 4116 
L 825 1625 
L 2419 1625 
L 2419 4116 
z
M 2253 4666 
L 3047 4666 
L 3047 1625 
L 3713 1625 
L 3713 1100 
L 3047 1100 
L 3047 0 
L 2419 0 
L 2419 1100 
L 313 1100 
L 313 1709 
L 2253 4666 
z
" id="DejaVuSans-34" transform="scale(0.015625)"/>
       </defs>
       <use xlink:href="#DejaVuSans-30"/>
       <use x="63.623047" xlink:href="#DejaVuSans-2e"/>
       <use x="95.410156" xlink:href="#DejaVuSans-34"/>
      </g>
     </g>
    </g>
    <g id="ytick_2">
     <g id="line2d_7">
      <g>
       <use style="stroke:#000000;stroke-width:0.8;" x="37.8" xlink:href="#m45ae2434e9" y="41.688679"/>
      </g>
     </g>
     <g id="text_2">
      <!-- 0.6 -->
      <g transform="translate(16.487188 45.107976)scale(0.09 -0.09)">
       <defs>
        <path d="M 2113 2584 
Q 1688 2584 1439 2293 
Q 1191 2003 1191 1497 
Q 1191 994 1439 701 
Q 1688 409 2113 409 
Q 2538 409 2786 701 
Q 3034 994 3034 1497 
Q 3034 2003 2786 2293 
Q 2538 2584 2113 2584 
z
M 3366 4563 
L 3366 3988 
Q 3128 4100 2886 4159 
Q 2644 4219 2406 4219 
Q 1781 4219 1451 3797 
Q 1122 3375 1075 2522 
Q 1259 2794 1537 2939 
Q 1816 3084 2150 3084 
Q 2853 3084 3261 2657 
Q 3669 2231 3669 1497 
Q 3669 778 3244 343 
Q 2819 -91 2113 -91 
Q 1303 -91 875 529 
Q 447 1150 447 2328 
Q 447 3434 972 4092 
Q 1497 4750 2381 4750 
Q 2619 4750 2861 4703 
Q 3103 4656 3366 4563 
z
" id="DejaVuSans-36" transform="scale(0.015625)"/>
       </defs>
       <use xlink:href="#DejaVuSans-30"/>
       <use x="63.623047" xlink:href="#DejaVuSans-2e"/>
       <use x="95.410156" xlink:href="#DejaVuSans-36"/>
      </g>
     </g>
    </g>
    <g id="ytick_3">
     <g id="line2d_8">
      <g>
       <use style="stroke:#000000;stroke-width:0.8;" x="37.8" xlink:href="#m45ae2434e9" y="9"/>
      </g>
     </g>
     <g id="text_3">
      <!-- 0.8 -->
      <g transform="translate(16.487188 12.419297)scale(0.09 -0.09)">
       <defs>
        <path d="M 2034 2216 
Q 1584 2216 1326 1975 
Q 1069 1734 1069 1313 
Q 1069 891 1326 650 
Q 1584 409 2034 409 
Q 2484 409 2743 651 
Q 3003 894 3003 1313 
Q 3003 1734 2745 1975 
Q 2488 2216 2034 2216 
z
M 1403 2484 
Q 997 2584 770 2862 
Q 544 3141 544 3541 
Q 544 4100 942 4425 
Q 1341 4750 2034 4750 
Q 2731 4750 3128 4425 
Q 3525 4100 3525 3541 
Q 3525 3141 3298 2862 
Q 3072 2584 2669 2484 
Q 3125 2378 3379 2068 
Q 3634 1759 3634 1313 
Q 3634 634 3220 271 
Q 2806 -91 2034 -91 
Q 1263 -91 848 271 
Q 434 634 434 1313 
Q 434 1759 690 2068 
Q 947 2378 1403 2484 
z
M 1172 3481 
Q 1172 3119 1398 2916 
Q 1625 2713 2034 2713 
Q 2441 2713 2670 2916 
Q 2900 3119 2900 3481 
Q 2900 3844 2670 4047 
Q 2441 4250 2034 4250 
Q 1625 4250 1398 4047 
Q 1172 3844 1172 3481 
z
" id="DejaVuSans-38" transform="scale(0.015625)"/>
       </defs>
       <use xlink:href="#DejaVuSans-30"/>
       <use x="63.623047" xlink:href="#DejaVuSans-2e"/>
       <use x="95.410156" xlink:href="#DejaVuSans-38"/>
      </g>
     </g>
    </g>
    <g id="text_4">
     <!-- Loss -->
     <g transform="translate(10.348125 51.134773)rotate(-90)scale(0.1 -0.1)">
      <defs>
       <path d="M 3669 1172 
L 3772 1150 
L 3409 0 
L 128 0 
L 128 116 
L 288 116 
Q 556 116 672 291 
Q 738 391 738 753 
L 738 3488 
Q 738 3884 650 3984 
Q 528 4122 288 4122 
L 128 4122 
L 128 4238 
L 2047 4238 
L 2047 4122 
Q 1709 4125 1573 4059 
Q 1438 3994 1388 3894 
Q 1338 3794 1338 3416 
L 1338 753 
Q 1338 494 1388 397 
Q 1425 331 1503 300 
Q 1581 269 1991 269 
L 2300 269 
Q 2788 269 2984 341 
Q 3181 413 3343 595 
Q 3506 778 3669 1172 
z
" id="TimesNewRomanPSMT-4c" transform="scale(0.015625)"/>
       <path d="M 1600 2947 
Q 2250 2947 2644 2453 
Q 2978 2031 2978 1484 
Q 2978 1100 2793 706 
Q 2609 313 2286 112 
Q 1963 -88 1566 -88 
Q 919 -88 538 428 
Q 216 863 216 1403 
Q 216 1797 411 2186 
Q 606 2575 925 2761 
Q 1244 2947 1600 2947 
z
M 1503 2744 
Q 1338 2744 1170 2645 
Q 1003 2547 900 2300 
Q 797 2053 797 1666 
Q 797 1041 1045 587 
Q 1294 134 1700 134 
Q 2003 134 2200 384 
Q 2397 634 2397 1244 
Q 2397 2006 2069 2444 
Q 1847 2744 1503 2744 
z
" id="TimesNewRomanPSMT-6f" transform="scale(0.015625)"/>
       <path d="M 2050 2947 
L 2050 1972 
L 1947 1972 
Q 1828 2431 1642 2597 
Q 1456 2763 1169 2763 
Q 950 2763 815 2647 
Q 681 2531 681 2391 
Q 681 2216 781 2091 
Q 878 1963 1175 1819 
L 1631 1597 
Q 2266 1288 2266 781 
Q 2266 391 1970 151 
Q 1675 -88 1309 -88 
Q 1047 -88 709 6 
Q 606 38 541 38 
Q 469 38 428 -44 
L 325 -44 
L 325 978 
L 428 978 
Q 516 541 762 319 
Q 1009 97 1316 97 
Q 1531 97 1667 223 
Q 1803 350 1803 528 
Q 1803 744 1651 891 
Q 1500 1038 1047 1263 
Q 594 1488 453 1669 
Q 313 1847 313 2119 
Q 313 2472 555 2709 
Q 797 2947 1181 2947 
Q 1350 2947 1591 2875 
Q 1750 2828 1803 2828 
Q 1853 2828 1881 2850 
Q 1909 2872 1947 2947 
L 2050 2947 
z
" id="TimesNewRomanPSMT-73" transform="scale(0.015625)"/>
      </defs>
      <use xlink:href="#TimesNewRomanPSMT-4c"/>
      <use x="61.083984" xlink:href="#TimesNewRomanPSMT-6f"/>
      <use x="111.083984" xlink:href="#TimesNewRomanPSMT-73"/>
      <use x="150" xlink:href="#TimesNewRomanPSMT-73"/>
     </g>
    </g>
   </g>
   <g id="LineCollection_1">
    <path clip-path="url(#p3d244ce1f2)" d="M 47.986364 27.205272 
L 47.986364 23.309994 
" style="fill:none;stroke:#2ca02c;"/>
    <path clip-path="url(#p3d244ce1f2)" d="M 58.172727 33.080324 
L 58.172727 28.898962 
" style="fill:none;stroke:#2ca02c;"/>
    <path clip-path="url(#p3d244ce1f2)" d="M 68.359091 33.959921 
L 68.359091 29.428117 
" style="fill:none;stroke:#2ca02c;"/>
    <path clip-path="url(#p3d244ce1f2)" d="M 78.545455 39.178611 
L 78.545455 35.022139 
" style="fill:none;stroke:#2ca02c;"/>
    <path clip-path="url(#p3d244ce1f2)" d="M 88.731818 34.933417 
L 88.731818 29.875916 
" style="fill:none;stroke:#2ca02c;"/>
    <path clip-path="url(#p3d244ce1f2)" d="M 98.918182 42.431007 
L 98.918182 38.727291 
" style="fill:none;stroke:#2ca02c;"/>
    <path clip-path="url(#p3d244ce1f2)" d="M 109.104545 48.320483 
L 109.104545 42.137907 
" style="fill:none;stroke:#2ca02c;"/>
    <path clip-path="url(#p3d244ce1f2)" d="M 119.290909 53.143572 
L 119.290909 46.71634 
" style="fill:none;stroke:#2ca02c;"/>
    <path clip-path="url(#p3d244ce1f2)" d="M 129.477273 52.087839 
L 129.477273 47.005281 
" style="fill:none;stroke:#2ca02c;"/>
    <path clip-path="url(#p3d244ce1f2)" d="M 139.663636 50.905704 
L 139.663636 45.349915 
" style="fill:none;stroke:#2ca02c;"/>
    <path clip-path="url(#p3d244ce1f2)" d="M 149.85 49.993577 
L 149.85 44.303265 
" style="fill:none;stroke:#2ca02c;"/>
    <path clip-path="url(#p3d244ce1f2)" d="M 160.036364 49.132381 
L 160.036364 44.293622 
" style="fill:none;stroke:#2ca02c;"/>
    <path clip-path="url(#p3d244ce1f2)" d="M 170.222727 58.260057 
L 170.222727 51.887389 
" style="fill:none;stroke:#2ca02c;"/>
    <path clip-path="url(#p3d244ce1f2)" d="M 180.409091 60.563306 
L 180.409091 51.659939 
" style="fill:none;stroke:#2ca02c;"/>
    <path clip-path="url(#p3d244ce1f2)" d="M 190.595455 59.162002 
L 190.595455 54.786386 
" style="fill:none;stroke:#2ca02c;"/>
    <path clip-path="url(#p3d244ce1f2)" d="M 200.781818 62.489057 
L 200.781818 57.594344 
" style="fill:none;stroke:#2ca02c;"/>
    <path clip-path="url(#p3d244ce1f2)" d="M 210.968182 61.137881 
L 210.968182 51.818975 
" style="fill:none;stroke:#2ca02c;"/>
    <path clip-path="url(#p3d244ce1f2)" d="M 221.154545 65.10078 
L 221.154545 57.62158 
" style="fill:none;stroke:#2ca02c;"/>
    <path clip-path="url(#p3d244ce1f2)" d="M 231.340909 61.539744 
L 231.340909 52.298007 
" style="fill:none;stroke:#2ca02c;"/>
    <path clip-path="url(#p3d244ce1f2)" d="M 241.527273 61.310899 
L 241.527273 51.838672 
" style="fill:none;stroke:#2ca02c;"/>
    <path clip-path="url(#p3d244ce1f2)" d="M 251.713636 65.247254 
L 251.713636 56.246313 
" style="fill:none;stroke:#2ca02c;"/>
   </g>
   <g id="LineCollection_2">
    <path clip-path="url(#p3d244ce1f2)" d="M 47.986364 27.900437 
L 47.986364 26.081228 
" style="fill:none;stroke:#d62728;"/>
    <path clip-path="url(#p3d244ce1f2)" d="M 58.172727 29.636685 
L 58.172727 27.582652 
" style="fill:none;stroke:#d62728;"/>
    <path clip-path="url(#p3d244ce1f2)" d="M 68.359091 36.61515 
L 68.359091 34.037969 
" style="fill:none;stroke:#d62728;"/>
    <path clip-path="url(#p3d244ce1f2)" d="M 78.545455 36.781694 
L 78.545455 34.197852 
" style="fill:none;stroke:#d62728;"/>
    <path clip-path="url(#p3d244ce1f2)" d="M 88.731818 43.918487 
L 88.731818 40.581564 
" style="fill:none;stroke:#d62728;"/>
    <path clip-path="url(#p3d244ce1f2)" d="M 98.918182 45.527997 
L 98.918182 42.503337 
" style="fill:none;stroke:#d62728;"/>
    <path clip-path="url(#p3d244ce1f2)" d="M 109.104545 50.716773 
L 109.104545 46.203988 
" style="fill:none;stroke:#d62728;"/>
    <path clip-path="url(#p3d244ce1f2)" d="M 119.290909 52.716136 
L 119.290909 48.360148 
" style="fill:none;stroke:#d62728;"/>
    <path clip-path="url(#p3d244ce1f2)" d="M 129.477273 51.340546 
L 129.477273 47.443289 
" style="fill:none;stroke:#d62728;"/>
    <path clip-path="url(#p3d244ce1f2)" d="M 139.663636 52.398063 
L 139.663636 49.228315 
" style="fill:none;stroke:#d62728;"/>
    <path clip-path="url(#p3d244ce1f2)" d="M 149.85 54.713555 
L 149.85 50.288145 
" style="fill:none;stroke:#d62728;"/>
    <path clip-path="url(#p3d244ce1f2)" d="M 160.036364 55.681796 
L 160.036364 51.562899 
" style="fill:none;stroke:#d62728;"/>
    <path clip-path="url(#p3d244ce1f2)" d="M 170.222727 58.226713 
L 170.222727 54.559775 
" style="fill:none;stroke:#d62728;"/>
    <path clip-path="url(#p3d244ce1f2)" d="M 180.409091 58.09598 
L 180.409091 54.453118 
" style="fill:none;stroke:#d62728;"/>
    <path clip-path="url(#p3d244ce1f2)" d="M 190.595455 60.00661 
L 190.595455 56.313197 
" style="fill:none;stroke:#d62728;"/>
    <path clip-path="url(#p3d244ce1f2)" d="M 200.781818 60.543188 
L 200.781818 56.324854 
" style="fill:none;stroke:#d62728;"/>
    <path clip-path="url(#p3d244ce1f2)" d="M 210.968182 62.371837 
L 210.968182 58.37016 
" style="fill:none;stroke:#d62728;"/>
    <path clip-path="url(#p3d244ce1f2)" d="M 221.154545 63.29966 
L 221.154545 58.421661 
" style="fill:none;stroke:#d62728;"/>
    <path clip-path="url(#p3d244ce1f2)" d="M 231.340909 65.043056 
L 231.340909 59.737889 
" style="fill:none;stroke:#d62728;"/>
    <path clip-path="url(#p3d244ce1f2)" d="M 241.527273 66.980486 
L 241.527273 61.862618 
" style="fill:none;stroke:#d62728;"/>
    <path clip-path="url(#p3d244ce1f2)" d="M 251.713636 65.523676 
L 251.713636 59.640443 
" style="fill:none;stroke:#d62728;"/>
   </g>
   <g id="line2d_9">
    <defs>
     <path d="M 4 0 
L -4 -0 
" id="m46e50ccab3" style="stroke:#2ca02c;"/>
    </defs>
    <g clip-path="url(#p3d244ce1f2)">
     <use style="fill:#2ca02c;stroke:#2ca02c;" x="47.986364" xlink:href="#m46e50ccab3" y="27.205272"/>
     <use style="fill:#2ca02c;stroke:#2ca02c;" x="58.172727" xlink:href="#m46e50ccab3" y="33.080324"/>
     <use style="fill:#2ca02c;stroke:#2ca02c;" x="68.359091" xlink:href="#m46e50ccab3" y="33.959921"/>
     <use style="fill:#2ca02c;stroke:#2ca02c;" x="78.545455" xlink:href="#m46e50ccab3" y="39.178611"/>
     <use style="fill:#2ca02c;stroke:#2ca02c;" x="88.731818" xlink:href="#m46e50ccab3" y="34.933417"/>
     <use style="fill:#2ca02c;stroke:#2ca02c;" x="98.918182" xlink:href="#m46e50ccab3" y="42.431007"/>
     <use style="fill:#2ca02c;stroke:#2ca02c;" x="109.104545" xlink:href="#m46e50ccab3" y="48.320483"/>
     <use style="fill:#2ca02c;stroke:#2ca02c;" x="119.290909" xlink:href="#m46e50ccab3" y="53.143572"/>
     <use style="fill:#2ca02c;stroke:#2ca02c;" x="129.477273" xlink:href="#m46e50ccab3" y="52.087839"/>
     <use style="fill:#2ca02c;stroke:#2ca02c;" x="139.663636" xlink:href="#m46e50ccab3" y="50.905704"/>
     <use style="fill:#2ca02c;stroke:#2ca02c;" x="149.85" xlink:href="#m46e50ccab3" y="49.993577"/>
     <use style="fill:#2ca02c;stroke:#2ca02c;" x="160.036364" xlink:href="#m46e50ccab3" y="49.132381"/>
     <use style="fill:#2ca02c;stroke:#2ca02c;" x="170.222727" xlink:href="#m46e50ccab3" y="58.260057"/>
     <use style="fill:#2ca02c;stroke:#2ca02c;" x="180.409091" xlink:href="#m46e50ccab3" y="60.563306"/>
     <use style="fill:#2ca02c;stroke:#2ca02c;" x="190.595455" xlink:href="#m46e50ccab3" y="59.162002"/>
     <use style="fill:#2ca02c;stroke:#2ca02c;" x="200.781818" xlink:href="#m46e50ccab3" y="62.489057"/>
     <use style="fill:#2ca02c;stroke:#2ca02c;" x="210.968182" xlink:href="#m46e50ccab3" y="61.137881"/>
     <use style="fill:#2ca02c;stroke:#2ca02c;" x="221.154545" xlink:href="#m46e50ccab3" y="65.10078"/>
     <use style="fill:#2ca02c;stroke:#2ca02c;" x="231.340909" xlink:href="#m46e50ccab3" y="61.539744"/>
     <use style="fill:#2ca02c;stroke:#2ca02c;" x="241.527273" xlink:href="#m46e50ccab3" y="61.310899"/>
     <use style="fill:#2ca02c;stroke:#2ca02c;" x="251.713636" xlink:href="#m46e50ccab3" y="65.247254"/>
    </g>
   </g>
   <g id="line2d_10">
    <g clip-path="url(#p3d244ce1f2)">
     <use style="fill:#2ca02c;stroke:#2ca02c;" x="47.986364" xlink:href="#m46e50ccab3" y="23.309994"/>
     <use style="fill:#2ca02c;stroke:#2ca02c;" x="58.172727" xlink:href="#m46e50ccab3" y="28.898962"/>
     <use style="fill:#2ca02c;stroke:#2ca02c;" x="68.359091" xlink:href="#m46e50ccab3" y="29.428117"/>
     <use style="fill:#2ca02c;stroke:#2ca02c;" x="78.545455" xlink:href="#m46e50ccab3" y="35.022139"/>
     <use style="fill:#2ca02c;stroke:#2ca02c;" x="88.731818" xlink:href="#m46e50ccab3" y="29.875916"/>
     <use style="fill:#2ca02c;stroke:#2ca02c;" x="98.918182" xlink:href="#m46e50ccab3" y="38.727291"/>
     <use style="fill:#2ca02c;stroke:#2ca02c;" x="109.104545" xlink:href="#m46e50ccab3" y="42.137907"/>
     <use style="fill:#2ca02c;stroke:#2ca02c;" x="119.290909" xlink:href="#m46e50ccab3" y="46.71634"/>
     <use style="fill:#2ca02c;stroke:#2ca02c;" x="129.477273" xlink:href="#m46e50ccab3" y="47.005281"/>
     <use style="fill:#2ca02c;stroke:#2ca02c;" x="139.663636" xlink:href="#m46e50ccab3" y="45.349915"/>
     <use style="fill:#2ca02c;stroke:#2ca02c;" x="149.85" xlink:href="#m46e50ccab3" y="44.303265"/>
     <use style="fill:#2ca02c;stroke:#2ca02c;" x="160.036364" xlink:href="#m46e50ccab3" y="44.293622"/>
     <use style="fill:#2ca02c;stroke:#2ca02c;" x="170.222727" xlink:href="#m46e50ccab3" y="51.887389"/>
     <use style="fill:#2ca02c;stroke:#2ca02c;" x="180.409091" xlink:href="#m46e50ccab3" y="51.659939"/>
     <use style="fill:#2ca02c;stroke:#2ca02c;" x="190.595455" xlink:href="#m46e50ccab3" y="54.786386"/>
     <use style="fill:#2ca02c;stroke:#2ca02c;" x="200.781818" xlink:href="#m46e50ccab3" y="57.594344"/>
     <use style="fill:#2ca02c;stroke:#2ca02c;" x="210.968182" xlink:href="#m46e50ccab3" y="51.818975"/>
     <use style="fill:#2ca02c;stroke:#2ca02c;" x="221.154545" xlink:href="#m46e50ccab3" y="57.62158"/>
     <use style="fill:#2ca02c;stroke:#2ca02c;" x="231.340909" xlink:href="#m46e50ccab3" y="52.298007"/>
     <use style="fill:#2ca02c;stroke:#2ca02c;" x="241.527273" xlink:href="#m46e50ccab3" y="51.838672"/>
     <use style="fill:#2ca02c;stroke:#2ca02c;" x="251.713636" xlink:href="#m46e50ccab3" y="56.246313"/>
    </g>
   </g>
   <g id="line2d_11">
    <defs>
     <path d="M 4 0 
L -4 -0 
" id="m63047cbb89" style="stroke:#d62728;"/>
    </defs>
    <g clip-path="url(#p3d244ce1f2)">
     <use style="fill:#d62728;stroke:#d62728;" x="47.986364" xlink:href="#m63047cbb89" y="27.900437"/>
     <use style="fill:#d62728;stroke:#d62728;" x="58.172727" xlink:href="#m63047cbb89" y="29.636685"/>
     <use style="fill:#d62728;stroke:#d62728;" x="68.359091" xlink:href="#m63047cbb89" y="36.61515"/>
     <use style="fill:#d62728;stroke:#d62728;" x="78.545455" xlink:href="#m63047cbb89" y="36.781694"/>
     <use style="fill:#d62728;stroke:#d62728;" x="88.731818" xlink:href="#m63047cbb89" y="43.918487"/>
     <use style="fill:#d62728;stroke:#d62728;" x="98.918182" xlink:href="#m63047cbb89" y="45.527997"/>
     <use style="fill:#d62728;stroke:#d62728;" x="109.104545" xlink:href="#m63047cbb89" y="50.716773"/>
     <use style="fill:#d62728;stroke:#d62728;" x="119.290909" xlink:href="#m63047cbb89" y="52.716136"/>
     <use style="fill:#d62728;stroke:#d62728;" x="129.477273" xlink:href="#m63047cbb89" y="51.340546"/>
     <use style="fill:#d62728;stroke:#d62728;" x="139.663636" xlink:href="#m63047cbb89" y="52.398063"/>
     <use style="fill:#d62728;stroke:#d62728;" x="149.85" xlink:href="#m63047cbb89" y="54.713555"/>
     <use style="fill:#d62728;stroke:#d62728;" x="160.036364" xlink:href="#m63047cbb89" y="55.681796"/>
     <use style="fill:#d62728;stroke:#d62728;" x="170.222727" xlink:href="#m63047cbb89" y="58.226713"/>
     <use style="fill:#d62728;stroke:#d62728;" x="180.409091" xlink:href="#m63047cbb89" y="58.09598"/>
     <use style="fill:#d62728;stroke:#d62728;" x="190.595455" xlink:href="#m63047cbb89" y="60.00661"/>
     <use style="fill:#d62728;stroke:#d62728;" x="200.781818" xlink:href="#m63047cbb89" y="60.543188"/>
     <use style="fill:#d62728;stroke:#d62728;" x="210.968182" xlink:href="#m63047cbb89" y="62.371837"/>
     <use style="fill:#d62728;stroke:#d62728;" x="221.154545" xlink:href="#m63047cbb89" y="63.29966"/>
     <use style="fill:#d62728;stroke:#d62728;" x="231.340909" xlink:href="#m63047cbb89" y="65.043056"/>
     <use style="fill:#d62728;stroke:#d62728;" x="241.527273" xlink:href="#m63047cbb89" y="66.980486"/>
     <use style="fill:#d62728;stroke:#d62728;" x="251.713636" xlink:href="#m63047cbb89" y="65.523676"/>
    </g>
   </g>
   <g id="line2d_12">
    <g clip-path="url(#p3d244ce1f2)">
     <use style="fill:#d62728;stroke:#d62728;" x="47.986364" xlink:href="#m63047cbb89" y="26.081228"/>
     <use style="fill:#d62728;stroke:#d62728;" x="58.172727" xlink:href="#m63047cbb89" y="27.582652"/>
     <use style="fill:#d62728;stroke:#d62728;" x="68.359091" xlink:href="#m63047cbb89" y="34.037969"/>
     <use style="fill:#d62728;stroke:#d62728;" x="78.545455" xlink:href="#m63047cbb89" y="34.197852"/>
     <use style="fill:#d62728;stroke:#d62728;" x="88.731818" xlink:href="#m63047cbb89" y="40.581564"/>
     <use style="fill:#d62728;stroke:#d62728;" x="98.918182" xlink:href="#m63047cbb89" y="42.503337"/>
     <use style="fill:#d62728;stroke:#d62728;" x="109.104545" xlink:href="#m63047cbb89" y="46.203988"/>
     <use style="fill:#d62728;stroke:#d62728;" x="119.290909" xlink:href="#m63047cbb89" y="48.360148"/>
     <use style="fill:#d62728;stroke:#d62728;" x="129.477273" xlink:href="#m63047cbb89" y="47.443289"/>
     <use style="fill:#d62728;stroke:#d62728;" x="139.663636" xlink:href="#m63047cbb89" y="49.228315"/>
     <use style="fill:#d62728;stroke:#d62728;" x="149.85" xlink:href="#m63047cbb89" y="50.288145"/>
     <use style="fill:#d62728;stroke:#d62728;" x="160.036364" xlink:href="#m63047cbb89" y="51.562899"/>
     <use style="fill:#d62728;stroke:#d62728;" x="170.222727" xlink:href="#m63047cbb89" y="54.559775"/>
     <use style="fill:#d62728;stroke:#d62728;" x="180.409091" xlink:href="#m63047cbb89" y="54.453118"/>
     <use style="fill:#d62728;stroke:#d62728;" x="190.595455" xlink:href="#m63047cbb89" y="56.313197"/>
     <use style="fill:#d62728;stroke:#d62728;" x="200.781818" xlink:href="#m63047cbb89" y="56.324854"/>
     <use style="fill:#d62728;stroke:#d62728;" x="210.968182" xlink:href="#m63047cbb89" y="58.37016"/>
     <use style="fill:#d62728;stroke:#d62728;" x="221.154545" xlink:href="#m63047cbb89" y="58.421661"/>
     <use style="fill:#d62728;stroke:#d62728;" x="231.340909" xlink:href="#m63047cbb89" y="59.737889"/>
     <use style="fill:#d62728;stroke:#d62728;" x="241.527273" xlink:href="#m63047cbb89" y="61.862618"/>
     <use style="fill:#d62728;stroke:#d62728;" x="251.713636" xlink:href="#m63047cbb89" y="59.640443"/>
    </g>
   </g>
   <g id="line2d_13">
    <path clip-path="url(#p3d244ce1f2)" d="M 47.986364 25.257633 
L 58.172727 30.989643 
L 68.359091 31.694019 
L 78.545455 37.100375 
L 88.731818 32.404666 
L 98.918182 40.579149 
L 109.104545 45.229195 
L 119.290909 49.929956 
L 129.477273 49.54656 
L 139.663636 48.12781 
L 149.85 47.148421 
L 160.036364 46.713001 
L 170.222727 55.073723 
L 180.409091 56.111623 
L 190.595455 56.974194 
L 200.781818 60.041701 
L 210.968182 56.478428 
L 221.154545 61.36118 
L 231.340909 56.918876 
L 241.527273 56.574786 
L 251.713636 60.746784 
" style="fill:none;stroke:#2ca02c;stroke-linecap:square;"/>
    <defs>
     <path d="M 0 3 
C 0.795609 3 1.55874 2.683901 2.12132 2.12132 
C 2.683901 1.55874 3 0.795609 3 0 
C 3 -0.795609 2.683901 -1.55874 2.12132 -2.12132 
C 1.55874 -2.683901 0.795609 -3 0 -3 
C -0.795609 -3 -1.55874 -2.683901 -2.12132 -2.12132 
C -2.683901 -1.55874 -3 -0.795609 -3 0 
C -3 0.795609 -2.683901 1.55874 -2.12132 2.12132 
C -1.55874 2.683901 -0.795609 3 0 3 
z
" id="m77a32162ee" style="stroke:#2ca02c;"/>
    </defs>
    <g clip-path="url(#p3d244ce1f2)">
     <use style="fill-opacity:0;stroke:#2ca02c;" x="47.986364" xlink:href="#m77a32162ee" y="25.257633"/>
     <use style="fill-opacity:0;stroke:#2ca02c;" x="58.172727" xlink:href="#m77a32162ee" y="30.989643"/>
     <use style="fill-opacity:0;stroke:#2ca02c;" x="68.359091" xlink:href="#m77a32162ee" y="31.694019"/>
     <use style="fill-opacity:0;stroke:#2ca02c;" x="78.545455" xlink:href="#m77a32162ee" y="37.100375"/>
     <use style="fill-opacity:0;stroke:#2ca02c;" x="88.731818" xlink:href="#m77a32162ee" y="32.404666"/>
     <use style="fill-opacity:0;stroke:#2ca02c;" x="98.918182" xlink:href="#m77a32162ee" y="40.579149"/>
     <use style="fill-opacity:0;stroke:#2ca02c;" x="109.104545" xlink:href="#m77a32162ee" y="45.229195"/>
     <use style="fill-opacity:0;stroke:#2ca02c;" x="119.290909" xlink:href="#m77a32162ee" y="49.929956"/>
     <use style="fill-opacity:0;stroke:#2ca02c;" x="129.477273" xlink:href="#m77a32162ee" y="49.54656"/>
     <use style="fill-opacity:0;stroke:#2ca02c;" x="139.663636" xlink:href="#m77a32162ee" y="48.12781"/>
     <use style="fill-opacity:0;stroke:#2ca02c;" x="149.85" xlink:href="#m77a32162ee" y="47.148421"/>
     <use style="fill-opacity:0;stroke:#2ca02c;" x="160.036364" xlink:href="#m77a32162ee" y="46.713001"/>
     <use style="fill-opacity:0;stroke:#2ca02c;" x="170.222727" xlink:href="#m77a32162ee" y="55.073723"/>
     <use style="fill-opacity:0;stroke:#2ca02c;" x="180.409091" xlink:href="#m77a32162ee" y="56.111623"/>
     <use style="fill-opacity:0;stroke:#2ca02c;" x="190.595455" xlink:href="#m77a32162ee" y="56.974194"/>
     <use style="fill-opacity:0;stroke:#2ca02c;" x="200.781818" xlink:href="#m77a32162ee" y="60.041701"/>
     <use style="fill-opacity:0;stroke:#2ca02c;" x="210.968182" xlink:href="#m77a32162ee" y="56.478428"/>
     <use style="fill-opacity:0;stroke:#2ca02c;" x="221.154545" xlink:href="#m77a32162ee" y="61.36118"/>
     <use style="fill-opacity:0;stroke:#2ca02c;" x="231.340909" xlink:href="#m77a32162ee" y="56.918876"/>
     <use style="fill-opacity:0;stroke:#2ca02c;" x="241.527273" xlink:href="#m77a32162ee" y="56.574786"/>
     <use style="fill-opacity:0;stroke:#2ca02c;" x="251.713636" xlink:href="#m77a32162ee" y="60.746784"/>
    </g>
   </g>
   <g id="line2d_14">
    <path clip-path="url(#p3d244ce1f2)" d="M 47.986364 26.990833 
L 58.172727 28.609668 
L 68.359091 35.32656 
L 78.545455 35.489773 
L 88.731818 42.250025 
L 98.918182 44.015667 
L 109.104545 48.46038 
L 119.290909 50.538142 
L 129.477273 49.391917 
L 139.663636 50.813189 
L 149.85 52.50085 
L 160.036364 53.622348 
L 170.222727 56.393244 
L 180.409091 56.274549 
L 190.595455 58.159904 
L 200.781818 58.434021 
L 210.968182 60.370999 
L 221.154545 60.860661 
L 231.340909 62.390473 
L 241.527273 64.421552 
L 251.713636 62.582059 
" style="fill:none;stroke:#d62728;stroke-linecap:square;"/>
    <defs>
     <path d="M 0 -3 
L -3 3 
L 3 3 
z
" id="m29ca40066e" style="stroke:#d62728;stroke-linejoin:miter;"/>
    </defs>
    <g clip-path="url(#p3d244ce1f2)">
     <use style="fill-opacity:0;stroke:#d62728;stroke-linejoin:miter;" x="47.986364" xlink:href="#m29ca40066e" y="26.990833"/>
     <use style="fill-opacity:0;stroke:#d62728;stroke-linejoin:miter;" x="58.172727" xlink:href="#m29ca40066e" y="28.609668"/>
     <use style="fill-opacity:0;stroke:#d62728;stroke-linejoin:miter;" x="68.359091" xlink:href="#m29ca40066e" y="35.32656"/>
     <use style="fill-opacity:0;stroke:#d62728;stroke-linejoin:miter;" x="78.545455" xlink:href="#m29ca40066e" y="35.489773"/>
     <use style="fill-opacity:0;stroke:#d62728;stroke-linejoin:miter;" x="88.731818" xlink:href="#m29ca40066e" y="42.250025"/>
     <use style="fill-opacity:0;stroke:#d62728;stroke-linejoin:miter;" x="98.918182" xlink:href="#m29ca40066e" y="44.015667"/>
     <use style="fill-opacity:0;stroke:#d62728;stroke-linejoin:miter;" x="109.104545" xlink:href="#m29ca40066e" y="48.46038"/>
     <use style="fill-opacity:0;stroke:#d62728;stroke-linejoin:miter;" x="119.290909" xlink:href="#m29ca40066e" y="50.538142"/>
     <use style="fill-opacity:0;stroke:#d62728;stroke-linejoin:miter;" x="129.477273" xlink:href="#m29ca40066e" y="49.391917"/>
     <use style="fill-opacity:0;stroke:#d62728;stroke-linejoin:miter;" x="139.663636" xlink:href="#m29ca40066e" y="50.813189"/>
     <use style="fill-opacity:0;stroke:#d62728;stroke-linejoin:miter;" x="149.85" xlink:href="#m29ca40066e" y="52.50085"/>
     <use style="fill-opacity:0;stroke:#d62728;stroke-linejoin:miter;" x="160.036364" xlink:href="#m29ca40066e" y="53.622348"/>
     <use style="fill-opacity:0;stroke:#d62728;stroke-linejoin:miter;" x="170.222727" xlink:href="#m29ca40066e" y="56.393244"/>
     <use style="fill-opacity:0;stroke:#d62728;stroke-linejoin:miter;" x="180.409091" xlink:href="#m29ca40066e" y="56.274549"/>
     <use style="fill-opacity:0;stroke:#d62728;stroke-linejoin:miter;" x="190.595455" xlink:href="#m29ca40066e" y="58.159904"/>
     <use style="fill-opacity:0;stroke:#d62728;stroke-linejoin:miter;" x="200.781818" xlink:href="#m29ca40066e" y="58.434021"/>
     <use style="fill-opacity:0;stroke:#d62728;stroke-linejoin:miter;" x="210.968182" xlink:href="#m29ca40066e" y="60.370999"/>
     <use style="fill-opacity:0;stroke:#d62728;stroke-linejoin:miter;" x="221.154545" xlink:href="#m29ca40066e" y="60.860661"/>
     <use style="fill-opacity:0;stroke:#d62728;stroke-linejoin:miter;" x="231.340909" xlink:href="#m29ca40066e" y="62.390473"/>
     <use style="fill-opacity:0;stroke:#d62728;stroke-linejoin:miter;" x="241.527273" xlink:href="#m29ca40066e" y="64.421552"/>
     <use style="fill-opacity:0;stroke:#d62728;stroke-linejoin:miter;" x="251.713636" xlink:href="#m29ca40066e" y="62.582059"/>
    </g>
   </g>
   <g id="patch_3">
    <path d="M 37.8 74.377358 
L 37.8 9 
" style="fill:none;stroke:#000000;stroke-linecap:square;stroke-linejoin:miter;stroke-width:0.8;"/>
   </g>
   <g id="patch_4">
    <path d="M 261.9 74.377358 
L 261.9 9 
" style="fill:none;stroke:#000000;stroke-linecap:square;stroke-linejoin:miter;stroke-width:0.8;"/>
   </g>
   <g id="patch_5">
    <path d="M 37.8 74.377358 
L 261.9 74.377358 
" style="fill:none;stroke:#000000;stroke-linecap:square;stroke-linejoin:miter;stroke-width:0.8;"/>
   </g>
   <g id="patch_6">
    <path d="M 37.8 9 
L 261.9 9 
" style="fill:none;stroke:#000000;stroke-linecap:square;stroke-linejoin:miter;stroke-width:0.8;"/>
   </g>
   <g id="legend_1">
    <g id="LineCollection_3">
     <path d="M 206.925469 24.75 
L 206.925469 15.75 
" style="fill:none;stroke:#2ca02c;"/>
    </g>
    <g id="line2d_15">
     <g>
      <use style="fill:#2ca02c;stroke:#2ca02c;" x="206.925469" xlink:href="#m46e50ccab3" y="24.75"/>
     </g>
    </g>
    <g id="line2d_16">
     <g>
      <use style="fill:#2ca02c;stroke:#2ca02c;" x="206.925469" xlink:href="#m46e50ccab3" y="15.75"/>
     </g>
    </g>
    <g id="line2d_17">
     <path d="M 197.925469 20.25 
L 215.925469 20.25 
" style="fill:none;stroke:#2ca02c;stroke-linecap:square;"/>
    </g>
    <g id="line2d_18">
     <g>
      <use style="fill-opacity:0;stroke:#2ca02c;" x="206.925469" xlink:href="#m77a32162ee" y="20.25"/>
     </g>
    </g>
    <g id="text_5">
     <!-- Training -->
     <g transform="translate(223.125469 23.4)scale(0.09 -0.09)">
      <defs>
       <path d="M 3703 4238 
L 3750 3244 
L 3631 3244 
Q 3597 3506 3538 3619 
Q 3441 3800 3280 3886 
Q 3119 3972 2856 3972 
L 2259 3972 
L 2259 734 
Q 2259 344 2344 247 
Q 2463 116 2709 116 
L 2856 116 
L 2856 0 
L 1059 0 
L 1059 116 
L 1209 116 
Q 1478 116 1591 278 
Q 1659 378 1659 734 
L 1659 3972 
L 1150 3972 
Q 853 3972 728 3928 
Q 566 3869 450 3700 
Q 334 3531 313 3244 
L 194 3244 
L 244 4238 
L 3703 4238 
z
" id="TimesNewRomanPSMT-54" transform="scale(0.015625)"/>
       <path d="M 1038 2947 
L 1038 2303 
Q 1397 2947 1775 2947 
Q 1947 2947 2059 2842 
Q 2172 2738 2172 2600 
Q 2172 2478 2090 2393 
Q 2009 2309 1897 2309 
Q 1788 2309 1652 2417 
Q 1516 2525 1450 2525 
Q 1394 2525 1328 2463 
Q 1188 2334 1038 2041 
L 1038 669 
Q 1038 431 1097 309 
Q 1138 225 1241 169 
Q 1344 113 1538 113 
L 1538 0 
L 72 0 
L 72 113 
Q 291 113 397 181 
Q 475 231 506 341 
Q 522 394 522 644 
L 522 1753 
Q 522 2253 501 2348 
Q 481 2444 426 2487 
Q 372 2531 291 2531 
Q 194 2531 72 2484 
L 41 2597 
L 906 2947 
L 1038 2947 
z
" id="TimesNewRomanPSMT-72" transform="scale(0.015625)"/>
       <path d="M 1822 413 
Q 1381 72 1269 19 
Q 1100 -59 909 -59 
Q 613 -59 420 144 
Q 228 347 228 678 
Q 228 888 322 1041 
Q 450 1253 767 1440 
Q 1084 1628 1822 1897 
L 1822 2009 
Q 1822 2438 1686 2597 
Q 1550 2756 1291 2756 
Q 1094 2756 978 2650 
Q 859 2544 859 2406 
L 866 2225 
Q 866 2081 792 2003 
Q 719 1925 600 1925 
Q 484 1925 411 2006 
Q 338 2088 338 2228 
Q 338 2497 613 2722 
Q 888 2947 1384 2947 
Q 1766 2947 2009 2819 
Q 2194 2722 2281 2516 
Q 2338 2381 2338 1966 
L 2338 994 
Q 2338 584 2353 492 
Q 2369 400 2405 369 
Q 2441 338 2488 338 
Q 2538 338 2575 359 
Q 2641 400 2828 588 
L 2828 413 
Q 2478 -56 2159 -56 
Q 2006 -56 1915 50 
Q 1825 156 1822 413 
z
M 1822 616 
L 1822 1706 
Q 1350 1519 1213 1441 
Q 966 1303 859 1153 
Q 753 1003 753 825 
Q 753 600 887 451 
Q 1022 303 1197 303 
Q 1434 303 1822 616 
z
" id="TimesNewRomanPSMT-61" transform="scale(0.015625)"/>
       <path d="M 928 4444 
Q 1059 4444 1151 4351 
Q 1244 4259 1244 4128 
Q 1244 3997 1151 3903 
Q 1059 3809 928 3809 
Q 797 3809 703 3903 
Q 609 3997 609 4128 
Q 609 4259 701 4351 
Q 794 4444 928 4444 
z
M 1188 2947 
L 1188 647 
Q 1188 378 1227 289 
Q 1266 200 1342 156 
Q 1419 113 1622 113 
L 1622 0 
L 231 0 
L 231 113 
Q 441 113 512 153 
Q 584 194 626 287 
Q 669 381 669 647 
L 669 1750 
Q 669 2216 641 2353 
Q 619 2453 572 2492 
Q 525 2531 444 2531 
Q 356 2531 231 2484 
L 188 2597 
L 1050 2947 
L 1188 2947 
z
" id="TimesNewRomanPSMT-69" transform="scale(0.015625)"/>
       <path d="M 1034 2341 
Q 1538 2947 1994 2947 
Q 2228 2947 2397 2830 
Q 2566 2713 2666 2444 
Q 2734 2256 2734 1869 
L 2734 647 
Q 2734 375 2778 278 
Q 2813 200 2889 156 
Q 2966 113 3172 113 
L 3172 0 
L 1756 0 
L 1756 113 
L 1816 113 
Q 2016 113 2095 173 
Q 2175 234 2206 353 
Q 2219 400 2219 647 
L 2219 1819 
Q 2219 2209 2117 2386 
Q 2016 2563 1775 2563 
Q 1403 2563 1034 2156 
L 1034 647 
Q 1034 356 1069 288 
Q 1113 197 1189 155 
Q 1266 113 1500 113 
L 1500 0 
L 84 0 
L 84 113 
L 147 113 
Q 366 113 442 223 
Q 519 334 519 647 
L 519 1709 
Q 519 2225 495 2337 
Q 472 2450 423 2490 
Q 375 2531 294 2531 
Q 206 2531 84 2484 
L 38 2597 
L 900 2947 
L 1034 2947 
L 1034 2341 
z
" id="TimesNewRomanPSMT-6e" transform="scale(0.015625)"/>
       <path d="M 966 1044 
Q 703 1172 562 1401 
Q 422 1631 422 1909 
Q 422 2334 742 2640 
Q 1063 2947 1563 2947 
Q 1972 2947 2272 2747 
L 2878 2747 
Q 3013 2747 3034 2739 
Q 3056 2731 3066 2713 
Q 3084 2684 3084 2613 
Q 3084 2531 3069 2500 
Q 3059 2484 3036 2475 
Q 3013 2466 2878 2466 
L 2506 2466 
Q 2681 2241 2681 1891 
Q 2681 1491 2375 1206 
Q 2069 922 1553 922 
Q 1341 922 1119 984 
Q 981 866 932 777 
Q 884 688 884 625 
Q 884 572 936 522 
Q 988 472 1138 450 
Q 1225 438 1575 428 
Q 2219 413 2409 384 
Q 2700 344 2873 169 
Q 3047 -6 3047 -263 
Q 3047 -616 2716 -925 
Q 2228 -1381 1444 -1381 
Q 841 -1381 425 -1109 
Q 191 -953 191 -784 
Q 191 -709 225 -634 
Q 278 -519 444 -313 
Q 466 -284 763 25 
Q 600 122 533 198 
Q 466 275 466 372 
Q 466 481 555 628 
Q 644 775 966 1044 
z
M 1509 2797 
Q 1278 2797 1122 2612 
Q 966 2428 966 2047 
Q 966 1553 1178 1281 
Q 1341 1075 1591 1075 
Q 1828 1075 1981 1253 
Q 2134 1431 2134 1813 
Q 2134 2309 1919 2591 
Q 1759 2797 1509 2797 
z
M 934 0 
Q 788 -159 713 -296 
Q 638 -434 638 -550 
Q 638 -700 819 -813 
Q 1131 -1006 1722 -1006 
Q 2284 -1006 2551 -807 
Q 2819 -609 2819 -384 
Q 2819 -222 2659 -153 
Q 2497 -84 2016 -72 
Q 1313 -53 934 0 
z
" id="TimesNewRomanPSMT-67" transform="scale(0.015625)"/>
      </defs>
      <use xlink:href="#TimesNewRomanPSMT-54"/>
      <use x="57.583984" xlink:href="#TimesNewRomanPSMT-72"/>
      <use x="90.884766" xlink:href="#TimesNewRomanPSMT-61"/>
      <use x="135.269531" xlink:href="#TimesNewRomanPSMT-69"/>
      <use x="163.052734" xlink:href="#TimesNewRomanPSMT-6e"/>
      <use x="213.052734" xlink:href="#TimesNewRomanPSMT-69"/>
      <use x="240.835938" xlink:href="#TimesNewRomanPSMT-6e"/>
      <use x="290.835938" xlink:href="#TimesNewRomanPSMT-67"/>
     </g>
    </g>
    <g id="LineCollection_4">
     <path d="M 206.925469 37.492031 
L 206.925469 28.492031 
" style="fill:none;stroke:#d62728;"/>
    </g>
    <g id="line2d_19">
     <g>
      <use style="fill:#d62728;stroke:#d62728;" x="206.925469" xlink:href="#m63047cbb89" y="37.492031"/>
     </g>
    </g>
    <g id="line2d_20">
     <g>
      <use style="fill:#d62728;stroke:#d62728;" x="206.925469" xlink:href="#m63047cbb89" y="28.492031"/>
     </g>
    </g>
    <g id="line2d_21">
     <path d="M 197.925469 32.992031 
L 215.925469 32.992031 
" style="fill:none;stroke:#d62728;stroke-linecap:square;"/>
    </g>
    <g id="line2d_22">
     <g>
      <use style="fill-opacity:0;stroke:#d62728;stroke-linejoin:miter;" x="206.925469" xlink:href="#m29ca40066e" y="32.992031"/>
     </g>
    </g>
    <g id="text_6">
     <!-- Test -->
     <g transform="translate(223.125469 36.142031)scale(0.09 -0.09)">
      <defs>
       <path d="M 681 1784 
Q 678 1147 991 784 
Q 1303 422 1725 422 
Q 2006 422 2214 576 
Q 2422 731 2563 1106 
L 2659 1044 
Q 2594 616 2278 264 
Q 1963 -88 1488 -88 
Q 972 -88 605 314 
Q 238 716 238 1394 
Q 238 2128 614 2539 
Q 991 2950 1559 2950 
Q 2041 2950 2350 2633 
Q 2659 2316 2659 1784 
L 681 1784 
z
M 681 1966 
L 2006 1966 
Q 1991 2241 1941 2353 
Q 1863 2528 1708 2628 
Q 1553 2728 1384 2728 
Q 1125 2728 920 2526 
Q 716 2325 681 1966 
z
" id="TimesNewRomanPSMT-65" transform="scale(0.015625)"/>
       <path d="M 1031 3803 
L 1031 2863 
L 1700 2863 
L 1700 2644 
L 1031 2644 
L 1031 788 
Q 1031 509 1111 412 
Q 1191 316 1316 316 
Q 1419 316 1516 380 
Q 1613 444 1666 569 
L 1788 569 
Q 1678 263 1478 108 
Q 1278 -47 1066 -47 
Q 922 -47 784 33 
Q 647 113 581 261 
Q 516 409 516 719 
L 516 2644 
L 63 2644 
L 63 2747 
Q 234 2816 414 2980 
Q 594 3144 734 3369 
Q 806 3488 934 3803 
L 1031 3803 
z
" id="TimesNewRomanPSMT-74" transform="scale(0.015625)"/>
      </defs>
      <use xlink:href="#TimesNewRomanPSMT-54"/>
      <use x="54.083984" xlink:href="#TimesNewRomanPSMT-65"/>
      <use x="98.46875" xlink:href="#TimesNewRomanPSMT-73"/>
      <use x="137.384766" xlink:href="#TimesNewRomanPSMT-74"/>
     </g>
    </g>
   </g>
  </g>
  <g id="axes_2">
   <g id="patch_7">
    <path d="M 37.8 147.6 
L 261.9 147.6 
L 261.9 82.222642 
L 37.8 82.222642 
z
" style="fill:none;"/>
   </g>
   <g id="matplotlib.axis_3">
    <g id="xtick_6">
     <g id="line2d_23">
      <g>
       <use style="stroke:#000000;stroke-width:0.8;" x="47.986364" xlink:href="#m800f325d6b" y="147.6"/>
      </g>
     </g>
     <g id="text_7">
      <!-- 0 -->
      <g transform="translate(45.123239 161.438594)scale(0.09 -0.09)">
       <use xlink:href="#DejaVuSans-30"/>
      </g>
     </g>
    </g>
    <g id="xtick_7">
     <g id="line2d_24">
      <g>
       <use style="stroke:#000000;stroke-width:0.8;" x="98.918182" xlink:href="#m800f325d6b" y="147.6"/>
      </g>
     </g>
     <g id="text_8">
      <!-- 5 -->
      <g transform="translate(96.055057 161.438594)scale(0.09 -0.09)">
       <defs>
        <path d="M 691 4666 
L 3169 4666 
L 3169 4134 
L 1269 4134 
L 1269 2991 
Q 1406 3038 1543 3061 
Q 1681 3084 1819 3084 
Q 2600 3084 3056 2656 
Q 3513 2228 3513 1497 
Q 3513 744 3044 326 
Q 2575 -91 1722 -91 
Q 1428 -91 1123 -41 
Q 819 9 494 109 
L 494 744 
Q 775 591 1075 516 
Q 1375 441 1709 441 
Q 2250 441 2565 725 
Q 2881 1009 2881 1497 
Q 2881 1984 2565 2268 
Q 2250 2553 1709 2553 
Q 1456 2553 1204 2497 
Q 953 2441 691 2322 
L 691 4666 
z
" id="DejaVuSans-35" transform="scale(0.015625)"/>
       </defs>
       <use xlink:href="#DejaVuSans-35"/>
      </g>
     </g>
    </g>
    <g id="xtick_8">
     <g id="line2d_25">
      <g>
       <use style="stroke:#000000;stroke-width:0.8;" x="149.85" xlink:href="#m800f325d6b" y="147.6"/>
      </g>
     </g>
     <g id="text_9">
      <!-- 10 -->
      <g transform="translate(144.12375 161.438594)scale(0.09 -0.09)">
       <defs>
        <path d="M 794 531 
L 1825 531 
L 1825 4091 
L 703 3866 
L 703 4441 
L 1819 4666 
L 2450 4666 
L 2450 531 
L 3481 531 
L 3481 0 
L 794 0 
L 794 531 
z
" id="DejaVuSans-31" transform="scale(0.015625)"/>
       </defs>
       <use xlink:href="#DejaVuSans-31"/>
       <use x="63.623047" xlink:href="#DejaVuSans-30"/>
      </g>
     </g>
    </g>
    <g id="xtick_9">
     <g id="line2d_26">
      <g>
       <use style="stroke:#000000;stroke-width:0.8;" x="200.781818" xlink:href="#m800f325d6b" y="147.6"/>
      </g>
     </g>
     <g id="text_10">
      <!-- 15 -->
      <g transform="translate(195.055568 161.438594)scale(0.09 -0.09)">
       <use xlink:href="#DejaVuSans-31"/>
       <use x="63.623047" xlink:href="#DejaVuSans-35"/>
      </g>
     </g>
    </g>
    <g id="xtick_10">
     <g id="line2d_27">
      <g>
       <use style="stroke:#000000;stroke-width:0.8;" x="251.713636" xlink:href="#m800f325d6b" y="147.6"/>
      </g>
     </g>
     <g id="text_11">
      <!-- 20 -->
      <g transform="translate(245.987386 161.438594)scale(0.09 -0.09)">
       <defs>
        <path d="M 1228 531 
L 3431 531 
L 3431 0 
L 469 0 
L 469 531 
Q 828 903 1448 1529 
Q 2069 2156 2228 2338 
Q 2531 2678 2651 2914 
Q 2772 3150 2772 3378 
Q 2772 3750 2511 3984 
Q 2250 4219 1831 4219 
Q 1534 4219 1204 4116 
Q 875 4013 500 3803 
L 500 4441 
Q 881 4594 1212 4672 
Q 1544 4750 1819 4750 
Q 2544 4750 2975 4387 
Q 3406 4025 3406 3419 
Q 3406 3131 3298 2873 
Q 3191 2616 2906 2266 
Q 2828 2175 2409 1742 
Q 1991 1309 1228 531 
z
" id="DejaVuSans-32" transform="scale(0.015625)"/>
       </defs>
       <use xlink:href="#DejaVuSans-32"/>
       <use x="63.623047" xlink:href="#DejaVuSans-30"/>
      </g>
     </g>
    </g>
    <g id="text_12">
     <!-- Epochs -->
     <g transform="translate(135.130469 174.254063)scale(0.1 -0.1)">
      <defs>
       <path d="M 1338 4006 
L 1338 2331 
L 2269 2331 
Q 2631 2331 2753 2441 
Q 2916 2584 2934 2947 
L 3050 2947 
L 3050 1472 
L 2934 1472 
Q 2891 1781 2847 1869 
Q 2791 1978 2662 2040 
Q 2534 2103 2269 2103 
L 1338 2103 
L 1338 706 
Q 1338 425 1363 364 
Q 1388 303 1450 267 
Q 1513 231 1688 231 
L 2406 231 
Q 2766 231 2928 281 
Q 3091 331 3241 478 
Q 3434 672 3638 1063 
L 3763 1063 
L 3397 0 
L 131 0 
L 131 116 
L 281 116 
Q 431 116 566 188 
Q 666 238 702 338 
Q 738 438 738 747 
L 738 3500 
Q 738 3903 656 3997 
Q 544 4122 281 4122 
L 131 4122 
L 131 4238 
L 3397 4238 
L 3444 3309 
L 3322 3309 
Q 3256 3644 3176 3769 
Q 3097 3894 2941 3959 
Q 2816 4006 2500 4006 
L 1338 4006 
z
" id="TimesNewRomanPSMT-45" transform="scale(0.015625)"/>
       <path d="M -6 2578 
L 875 2934 
L 994 2934 
L 994 2266 
Q 1216 2644 1439 2795 
Q 1663 2947 1909 2947 
Q 2341 2947 2628 2609 
Q 2981 2197 2981 1534 
Q 2981 794 2556 309 
Q 2206 -88 1675 -88 
Q 1444 -88 1275 -22 
Q 1150 25 994 166 
L 994 -706 
Q 994 -1000 1030 -1079 
Q 1066 -1159 1155 -1206 
Q 1244 -1253 1478 -1253 
L 1478 -1369 
L -22 -1369 
L -22 -1253 
L 56 -1253 
Q 228 -1256 350 -1188 
Q 409 -1153 442 -1076 
Q 475 -1000 475 -688 
L 475 2019 
Q 475 2297 450 2372 
Q 425 2447 370 2484 
Q 316 2522 222 2522 
Q 147 2522 31 2478 
L -6 2578 
z
M 994 2081 
L 994 1013 
Q 994 666 1022 556 
Q 1066 375 1236 237 
Q 1406 100 1666 100 
Q 1978 100 2172 344 
Q 2425 663 2425 1241 
Q 2425 1897 2138 2250 
Q 1938 2494 1663 2494 
Q 1513 2494 1366 2419 
Q 1253 2363 994 2081 
z
" id="TimesNewRomanPSMT-70" transform="scale(0.015625)"/>
       <path d="M 2631 1088 
Q 2516 522 2178 217 
Q 1841 -88 1431 -88 
Q 944 -88 581 321 
Q 219 731 219 1428 
Q 219 2103 620 2525 
Q 1022 2947 1584 2947 
Q 2006 2947 2278 2723 
Q 2550 2500 2550 2259 
Q 2550 2141 2473 2067 
Q 2397 1994 2259 1994 
Q 2075 1994 1981 2113 
Q 1928 2178 1911 2362 
Q 1894 2547 1784 2644 
Q 1675 2738 1481 2738 
Q 1169 2738 978 2506 
Q 725 2200 725 1697 
Q 725 1184 976 792 
Q 1228 400 1656 400 
Q 1963 400 2206 609 
Q 2378 753 2541 1131 
L 2631 1088 
z
" id="TimesNewRomanPSMT-63" transform="scale(0.015625)"/>
       <path d="M 1041 4444 
L 1041 2350 
Q 1388 2731 1591 2839 
Q 1794 2947 1997 2947 
Q 2241 2947 2416 2812 
Q 2591 2678 2675 2391 
Q 2734 2191 2734 1659 
L 2734 647 
Q 2734 375 2778 275 
Q 2809 200 2884 156 
Q 2959 113 3159 113 
L 3159 0 
L 1753 0 
L 1753 113 
L 1819 113 
Q 2019 113 2097 173 
Q 2175 234 2206 353 
Q 2216 403 2216 647 
L 2216 1659 
Q 2216 2128 2167 2275 
Q 2119 2422 2012 2495 
Q 1906 2569 1756 2569 
Q 1603 2569 1437 2487 
Q 1272 2406 1041 2159 
L 1041 647 
Q 1041 353 1073 281 
Q 1106 209 1195 161 
Q 1284 113 1503 113 
L 1503 0 
L 84 0 
L 84 113 
Q 275 113 384 172 
Q 447 203 484 290 
Q 522 378 522 647 
L 522 3238 
Q 522 3728 498 3840 
Q 475 3953 426 3993 
Q 378 4034 297 4034 
Q 231 4034 84 3984 
L 41 4094 
L 897 4444 
L 1041 4444 
z
" id="TimesNewRomanPSMT-68" transform="scale(0.015625)"/>
      </defs>
      <use xlink:href="#TimesNewRomanPSMT-45"/>
      <use x="61.083984" xlink:href="#TimesNewRomanPSMT-70"/>
      <use x="111.083984" xlink:href="#TimesNewRomanPSMT-6f"/>
      <use x="161.083984" xlink:href="#TimesNewRomanPSMT-63"/>
      <use x="205.46875" xlink:href="#TimesNewRomanPSMT-68"/>
      <use x="255.46875" xlink:href="#TimesNewRomanPSMT-73"/>
     </g>
    </g>
   </g>
   <g id="matplotlib.axis_4">
    <g id="ytick_4">
     <g id="line2d_28">
      <g>
       <use style="stroke:#000000;stroke-width:0.8;" x="37.8" xlink:href="#m45ae2434e9" y="142.930189"/>
      </g>
     </g>
     <g id="text_13">
      <!-- 0.4 -->
      <g transform="translate(16.487188 146.349486)scale(0.09 -0.09)">
       <use xlink:href="#DejaVuSans-30"/>
       <use x="63.623047" xlink:href="#DejaVuSans-2e"/>
       <use x="95.410156" xlink:href="#DejaVuSans-34"/>
      </g>
     </g>
    </g>
    <g id="ytick_5">
     <g id="line2d_29">
      <g>
       <use style="stroke:#000000;stroke-width:0.8;" x="37.8" xlink:href="#m45ae2434e9" y="114.911321"/>
      </g>
     </g>
     <g id="text_14">
      <!-- 0.7 -->
      <g transform="translate(16.487188 118.330618)scale(0.09 -0.09)">
       <defs>
        <path d="M 525 4666 
L 3525 4666 
L 3525 4397 
L 1831 0 
L 1172 0 
L 2766 4134 
L 525 4134 
L 525 4666 
z
" id="DejaVuSans-37" transform="scale(0.015625)"/>
       </defs>
       <use xlink:href="#DejaVuSans-30"/>
       <use x="63.623047" xlink:href="#DejaVuSans-2e"/>
       <use x="95.410156" xlink:href="#DejaVuSans-37"/>
      </g>
     </g>
    </g>
    <g id="ytick_6">
     <g id="line2d_30">
      <g>
       <use style="stroke:#000000;stroke-width:0.8;" x="37.8" xlink:href="#m45ae2434e9" y="86.892453"/>
      </g>
     </g>
     <g id="text_15">
      <!-- 1.0 -->
      <g transform="translate(16.487188 90.31175)scale(0.09 -0.09)">
       <use xlink:href="#DejaVuSans-31"/>
       <use x="63.623047" xlink:href="#DejaVuSans-2e"/>
       <use x="95.410156" xlink:href="#DejaVuSans-30"/>
      </g>
     </g>
    </g>
    <g id="text_16">
     <!-- Accuracy -->
     <g transform="translate(10.329375 134.065227)rotate(-90)scale(0.1 -0.1)">
      <defs>
       <path d="M 2928 1419 
L 1288 1419 
L 1000 750 
Q 894 503 894 381 
Q 894 284 986 211 
Q 1078 138 1384 116 
L 1384 0 
L 50 0 
L 50 116 
Q 316 163 394 238 
Q 553 388 747 847 
L 2238 4334 
L 2347 4334 
L 3822 809 
Q 4000 384 4145 257 
Q 4291 131 4550 116 
L 4550 0 
L 2878 0 
L 2878 116 
Q 3131 128 3220 200 
Q 3309 272 3309 375 
Q 3309 513 3184 809 
L 2928 1419 
z
M 2841 1650 
L 2122 3363 
L 1384 1650 
L 2841 1650 
z
" id="TimesNewRomanPSMT-41" transform="scale(0.015625)"/>
       <path d="M 2709 2863 
L 2709 1128 
Q 2709 631 2732 520 
Q 2756 409 2807 365 
Q 2859 322 2928 322 
Q 3025 322 3147 375 
L 3191 266 
L 2334 -88 
L 2194 -88 
L 2194 519 
Q 1825 119 1631 15 
Q 1438 -88 1222 -88 
Q 981 -88 804 51 
Q 628 191 559 409 
Q 491 628 491 1028 
L 491 2306 
Q 491 2509 447 2587 
Q 403 2666 317 2708 
Q 231 2750 6 2747 
L 6 2863 
L 1009 2863 
L 1009 947 
Q 1009 547 1148 422 
Q 1288 297 1484 297 
Q 1619 297 1789 381 
Q 1959 466 2194 703 
L 2194 2325 
Q 2194 2569 2105 2655 
Q 2016 2741 1734 2747 
L 1734 2863 
L 2709 2863 
z
" id="TimesNewRomanPSMT-75" transform="scale(0.015625)"/>
       <path d="M 38 2863 
L 1372 2863 
L 1372 2747 
L 1306 2747 
Q 1166 2747 1095 2686 
Q 1025 2625 1025 2534 
Q 1025 2413 1128 2197 
L 1825 753 
L 2466 2334 
Q 2519 2463 2519 2588 
Q 2519 2644 2497 2672 
Q 2472 2706 2419 2726 
Q 2366 2747 2231 2747 
L 2231 2863 
L 3163 2863 
L 3163 2747 
Q 3047 2734 2984 2696 
Q 2922 2659 2847 2556 
Q 2819 2513 2741 2316 
L 1575 -541 
Q 1406 -956 1132 -1168 
Q 859 -1381 606 -1381 
Q 422 -1381 303 -1275 
Q 184 -1169 184 -1031 
Q 184 -900 270 -820 
Q 356 -741 506 -741 
Q 609 -741 788 -809 
Q 913 -856 944 -856 
Q 1038 -856 1148 -759 
Q 1259 -663 1372 -384 
L 1575 113 
L 547 2272 
Q 500 2369 397 2513 
Q 319 2622 269 2659 
Q 197 2709 38 2747 
L 38 2863 
z
" id="TimesNewRomanPSMT-79" transform="scale(0.015625)"/>
      </defs>
      <use xlink:href="#TimesNewRomanPSMT-41"/>
      <use x="72.216797" xlink:href="#TimesNewRomanPSMT-63"/>
      <use x="116.601562" xlink:href="#TimesNewRomanPSMT-63"/>
      <use x="160.986328" xlink:href="#TimesNewRomanPSMT-75"/>
      <use x="210.986328" xlink:href="#TimesNewRomanPSMT-72"/>
      <use x="244.287109" xlink:href="#TimesNewRomanPSMT-61"/>
      <use x="288.671875" xlink:href="#TimesNewRomanPSMT-63"/>
      <use x="333.056641" xlink:href="#TimesNewRomanPSMT-79"/>
     </g>
    </g>
   </g>
   <g id="line2d_31">
    <path clip-path="url(#pdac1b923c6)" d="M 47.986364 142.930189 
L 58.172727 119.581132 
L 68.359091 114.911321 
L 78.545455 105.571698 
L 88.731818 119.581132 
L 98.918182 91.562264 
L 109.104545 91.562264 
L 119.290909 91.562264 
L 129.477273 91.562264 
L 139.663636 91.562264 
L 149.85 86.892453 
L 160.036364 91.562264 
L 170.222727 91.562264 
L 180.409091 96.232075 
L 190.595455 86.892453 
L 200.781818 86.892453 
L 210.968182 91.562264 
L 221.154545 91.562264 
L 231.340909 91.562264 
L 241.527273 96.232075 
L 251.713636 96.232075 
" style="fill:none;stroke:#2ca02c;stroke-linecap:square;"/>
    <g clip-path="url(#pdac1b923c6)">
     <use style="fill-opacity:0;stroke:#2ca02c;" x="47.986364" xlink:href="#m77a32162ee" y="142.930189"/>
     <use style="fill-opacity:0;stroke:#2ca02c;" x="58.172727" xlink:href="#m77a32162ee" y="119.581132"/>
     <use style="fill-opacity:0;stroke:#2ca02c;" x="68.359091" xlink:href="#m77a32162ee" y="114.911321"/>
     <use style="fill-opacity:0;stroke:#2ca02c;" x="78.545455" xlink:href="#m77a32162ee" y="105.571698"/>
     <use style="fill-opacity:0;stroke:#2ca02c;" x="88.731818" xlink:href="#m77a32162ee" y="119.581132"/>
     <use style="fill-opacity:0;stroke:#2ca02c;" x="98.918182" xlink:href="#m77a32162ee" y="91.562264"/>
     <use style="fill-opacity:0;stroke:#2ca02c;" x="109.104545" xlink:href="#m77a32162ee" y="91.562264"/>
     <use style="fill-opacity:0;stroke:#2ca02c;" x="119.290909" xlink:href="#m77a32162ee" y="91.562264"/>
     <use style="fill-opacity:0;stroke:#2ca02c;" x="129.477273" xlink:href="#m77a32162ee" y="91.562264"/>
     <use style="fill-opacity:0;stroke:#2ca02c;" x="139.663636" xlink:href="#m77a32162ee" y="91.562264"/>
     <use style="fill-opacity:0;stroke:#2ca02c;" x="149.85" xlink:href="#m77a32162ee" y="86.892453"/>
     <use style="fill-opacity:0;stroke:#2ca02c;" x="160.036364" xlink:href="#m77a32162ee" y="91.562264"/>
     <use style="fill-opacity:0;stroke:#2ca02c;" x="170.222727" xlink:href="#m77a32162ee" y="91.562264"/>
     <use style="fill-opacity:0;stroke:#2ca02c;" x="180.409091" xlink:href="#m77a32162ee" y="96.232075"/>
     <use style="fill-opacity:0;stroke:#2ca02c;" x="190.595455" xlink:href="#m77a32162ee" y="86.892453"/>
     <use style="fill-opacity:0;stroke:#2ca02c;" x="200.781818" xlink:href="#m77a32162ee" y="86.892453"/>
     <use style="fill-opacity:0;stroke:#2ca02c;" x="210.968182" xlink:href="#m77a32162ee" y="91.562264"/>
     <use style="fill-opacity:0;stroke:#2ca02c;" x="221.154545" xlink:href="#m77a32162ee" y="91.562264"/>
     <use style="fill-opacity:0;stroke:#2ca02c;" x="231.340909" xlink:href="#m77a32162ee" y="91.562264"/>
     <use style="fill-opacity:0;stroke:#2ca02c;" x="241.527273" xlink:href="#m77a32162ee" y="96.232075"/>
     <use style="fill-opacity:0;stroke:#2ca02c;" x="251.713636" xlink:href="#m77a32162ee" y="96.232075"/>
    </g>
   </g>
   <g id="line2d_32">
    <path clip-path="url(#pdac1b923c6)" d="M 47.986364 124.250943 
L 58.172727 124.250943 
L 68.359091 103.703774 
L 78.545455 105.571698 
L 88.731818 92.496226 
L 98.918182 90.628302 
L 109.104545 98.1 
L 119.290909 96.232075 
L 129.477273 94.364151 
L 139.663636 88.760377 
L 149.85 88.760377 
L 160.036364 90.628302 
L 170.222727 88.760377 
L 180.409091 88.760377 
L 190.595455 88.760377 
L 200.781818 90.628302 
L 210.968182 86.892453 
L 221.154545 88.760377 
L 231.340909 90.628302 
L 241.527273 90.628302 
L 251.713636 92.496226 
" style="fill:none;stroke:#d62728;stroke-linecap:square;"/>
    <g clip-path="url(#pdac1b923c6)">
     <use style="fill-opacity:0;stroke:#d62728;stroke-linejoin:miter;" x="47.986364" xlink:href="#m29ca40066e" y="124.250943"/>
     <use style="fill-opacity:0;stroke:#d62728;stroke-linejoin:miter;" x="58.172727" xlink:href="#m29ca40066e" y="124.250943"/>
     <use style="fill-opacity:0;stroke:#d62728;stroke-linejoin:miter;" x="68.359091" xlink:href="#m29ca40066e" y="103.703774"/>
     <use style="fill-opacity:0;stroke:#d62728;stroke-linejoin:miter;" x="78.545455" xlink:href="#m29ca40066e" y="105.571698"/>
     <use style="fill-opacity:0;stroke:#d62728;stroke-linejoin:miter;" x="88.731818" xlink:href="#m29ca40066e" y="92.496226"/>
     <use style="fill-opacity:0;stroke:#d62728;stroke-linejoin:miter;" x="98.918182" xlink:href="#m29ca40066e" y="90.628302"/>
     <use style="fill-opacity:0;stroke:#d62728;stroke-linejoin:miter;" x="109.104545" xlink:href="#m29ca40066e" y="98.1"/>
     <use style="fill-opacity:0;stroke:#d62728;stroke-linejoin:miter;" x="119.290909" xlink:href="#m29ca40066e" y="96.232075"/>
     <use style="fill-opacity:0;stroke:#d62728;stroke-linejoin:miter;" x="129.477273" xlink:href="#m29ca40066e" y="94.364151"/>
     <use style="fill-opacity:0;stroke:#d62728;stroke-linejoin:miter;" x="139.663636" xlink:href="#m29ca40066e" y="88.760377"/>
     <use style="fill-opacity:0;stroke:#d62728;stroke-linejoin:miter;" x="149.85" xlink:href="#m29ca40066e" y="88.760377"/>
     <use style="fill-opacity:0;stroke:#d62728;stroke-linejoin:miter;" x="160.036364" xlink:href="#m29ca40066e" y="90.628302"/>
     <use style="fill-opacity:0;stroke:#d62728;stroke-linejoin:miter;" x="170.222727" xlink:href="#m29ca40066e" y="88.760377"/>
     <use style="fill-opacity:0;stroke:#d62728;stroke-linejoin:miter;" x="180.409091" xlink:href="#m29ca40066e" y="88.760377"/>
     <use style="fill-opacity:0;stroke:#d62728;stroke-linejoin:miter;" x="190.595455" xlink:href="#m29ca40066e" y="88.760377"/>
     <use style="fill-opacity:0;stroke:#d62728;stroke-linejoin:miter;" x="200.781818" xlink:href="#m29ca40066e" y="90.628302"/>
     <use style="fill-opacity:0;stroke:#d62728;stroke-linejoin:miter;" x="210.968182" xlink:href="#m29ca40066e" y="86.892453"/>
     <use style="fill-opacity:0;stroke:#d62728;stroke-linejoin:miter;" x="221.154545" xlink:href="#m29ca40066e" y="88.760377"/>
     <use style="fill-opacity:0;stroke:#d62728;stroke-linejoin:miter;" x="231.340909" xlink:href="#m29ca40066e" y="90.628302"/>
     <use style="fill-opacity:0;stroke:#d62728;stroke-linejoin:miter;" x="241.527273" xlink:href="#m29ca40066e" y="90.628302"/>
     <use style="fill-opacity:0;stroke:#d62728;stroke-linejoin:miter;" x="251.713636" xlink:href="#m29ca40066e" y="92.496226"/>
    </g>
   </g>
   <g id="patch_8">
    <path d="M 37.8 147.6 
L 37.8 82.222642 
" style="fill:none;stroke:#000000;stroke-linecap:square;stroke-linejoin:miter;stroke-width:0.8;"/>
   </g>
   <g id="patch_9">
    <path d="M 261.9 147.6 
L 261.9 82.222642 
" style="fill:none;stroke:#000000;stroke-linecap:square;stroke-linejoin:miter;stroke-width:0.8;"/>
   </g>
   <g id="patch_10">
    <path d="M 37.8 147.6 
L 261.9 147.6 
" style="fill:none;stroke:#000000;stroke-linecap:square;stroke-linejoin:miter;stroke-width:0.8;"/>
   </g>
   <g id="patch_11">
    <path d="M 37.8 82.222642 
L 261.9 82.222642 
" style="fill:none;stroke:#000000;stroke-linecap:square;stroke-linejoin:miter;stroke-width:0.8;"/>
   </g>
   <g id="legend_2"/>
  </g>
 </g>
 <defs>
  <clipPath id="p3d244ce1f2">
   <rect height="65.377358" width="224.1" x="37.8" y="9"/>
  </clipPath>
  <clipPath id="pdac1b923c6">
   <rect height="65.377358" width="224.1" x="37.8" y="82.222642"/>
  </clipPath>
 </defs>
</svg>
