<?xml version="1.0" encoding="utf-8" standalone="no"?>
<!DOCTYPE svg PUBLIC "-//W3C//DTD SVG 1.1//EN"
  "http://www.w3.org/Graphics/SVG/1.1/DTD/svg11.dtd">
<svg height="115.2pt" version="1.1" viewBox="0 0 270 115.2" width="270pt" xmlns="http://www.w3.org/2000/svg" xmlns:xlink="http://www.w3.org/1999/xlink">
 <metadata>
  <rdf:RDF xmlns:cc="http://creativecommons.org/ns#" xmlns:dc="http://purl.org/dc/elements/1.1/" xmlns:rdf="http://www.w3.org/1999/02/22-rdf-syntax-ns#">
   <cc:Work>
    <dc:type rdf:resource="http://purl.org/dc/dcmitype/StillImage"/>
    <dc:date>2022-03-27T13:43:59.489000</dc:date>
    <dc:format>image/svg+xml</dc:format>
    <dc:creator>
     <cc:Agent>
      <dc:title>Matplotlib v3.4.3, https://matplotlib.org/</dc:title>
     </cc:Agent>
    </dc:creator>
   </cc:Work>
  </rdf:RDF>
 </metadata>
 <defs>
  <style type="text/css">*{stroke-linecap:butt;stroke-linejoin:round;}</style>
 </defs>
 <g id="figure_1">
  <g id="patch_1">
   <path d="M 0 115.2 
L 270 115.2 
L 270 0 
L 0 0 
z
" style="fill:none;"/>
  </g>
  <g id="axes_1">
   <g id="patch_2">
    <path d="M 37.8 82.944 
L 105.709091 82.944 
L 105.709091 17.28 
L 37.8 17.28 
z
" style="fill:none;"/>
   </g>
   <g id="matplotlib.axis_1">
    <g id="xtick_1">
     <g id="line2d_1">
      <defs>
       <path d="M 0 0 
L 0 3.5 
" id="mf695926b7a" style="stroke:#000000;stroke-width:0.8;"/>
      </defs>
      <g>
       <use style="stroke:#000000;stroke-width:0.8;" x="39.105944" xlink:href="#mf695926b7a" y="82.944"/>
      </g>
     </g>
     <g id="text_1">
      <!-- 0 -->
      <g transform="translate(36.242819 96.782594)scale(0.09 -0.09)">
       <defs>
        <path d="M 2034 4250 
Q 1547 4250 1301 3770 
Q 1056 3291 1056 2328 
Q 1056 1369 1301 889 
Q 1547 409 2034 409 
Q 2525 409 2770 889 
Q 3016 1369 3016 2328 
Q 3016 3291 2770 3770 
Q 2525 4250 2034 4250 
z
M 2034 4750 
Q 2819 4750 3233 4129 
Q 3647 3509 3647 2328 
Q 3647 1150 3233 529 
Q 2819 -91 2034 -91 
Q 1250 -91 836 529 
Q 422 1150 422 2328 
Q 422 3509 836 4129 
Q 1250 4750 2034 4750 
z
" id="DejaVuSans-30" transform="scale(0.015625)"/>
       </defs>
       <use xlink:href="#DejaVuSans-30"/>
      </g>
     </g>
    </g>
    <g id="xtick_2">
     <g id="line2d_2">
      <g>
       <use style="stroke:#000000;stroke-width:0.8;" x="71.754545" xlink:href="#mf695926b7a" y="82.944"/>
      </g>
     </g>
     <g id="text_2">
      <!-- 25 -->
      <g transform="translate(66.028295 96.782594)scale(0.09 -0.09)">
       <defs>
        <path d="M 1228 531 
L 3431 531 
L 3431 0 
L 469 0 
L 469 531 
Q 828 903 1448 1529 
Q 2069 2156 2228 2338 
Q 2531 2678 2651 2914 
Q 2772 3150 2772 3378 
Q 2772 3750 2511 3984 
Q 2250 4219 1831 4219 
Q 1534 4219 1204 4116 
Q 875 4013 500 3803 
L 500 4441 
Q 881 4594 1212 4672 
Q 1544 4750 1819 4750 
Q 2544 4750 2975 4387 
Q 3406 4025 3406 3419 
Q 3406 3131 3298 2873 
Q 3191 2616 2906 2266 
Q 2828 2175 2409 1742 
Q 1991 1309 1228 531 
z
" id="DejaVuSans-32" transform="scale(0.015625)"/>
        <path d="M 691 4666 
L 3169 4666 
L 3169 4134 
L 1269 4134 
L 1269 2991 
Q 1406 3038 1543 3061 
Q 1681 3084 1819 3084 
Q 2600 3084 3056 2656 
Q 3513 2228 3513 1497 
Q 3513 744 3044 326 
Q 2575 -91 1722 -91 
Q 1428 -91 1123 -41 
Q 819 9 494 109 
L 494 744 
Q 775 591 1075 516 
Q 1375 441 1709 441 
Q 2250 441 2565 725 
Q 2881 1009 2881 1497 
Q 2881 1984 2565 2268 
Q 2250 2553 1709 2553 
Q 1456 2553 1204 2497 
Q 953 2441 691 2322 
L 691 4666 
z
" id="DejaVuSans-35" transform="scale(0.015625)"/>
       </defs>
       <use xlink:href="#DejaVuSans-32"/>
       <use x="63.623047" xlink:href="#DejaVuSans-35"/>
      </g>
     </g>
    </g>
    <g id="xtick_3">
     <g id="line2d_3">
      <g>
       <use style="stroke:#000000;stroke-width:0.8;" x="104.403147" xlink:href="#mf695926b7a" y="82.944"/>
      </g>
     </g>
     <g id="text_3">
      <!-- 50 -->
      <g transform="translate(98.676897 96.782594)scale(0.09 -0.09)">
       <use xlink:href="#DejaVuSans-35"/>
       <use x="63.623047" xlink:href="#DejaVuSans-30"/>
      </g>
     </g>
    </g>
   </g>
   <g id="matplotlib.axis_2">
    <g id="ytick_1">
     <g id="line2d_4">
      <defs>
       <path d="M 0 0 
L -3.5 0 
" id="mefc086df07" style="stroke:#000000;stroke-width:0.8;"/>
      </defs>
      <g>
       <use style="stroke:#000000;stroke-width:0.8;" x="37.8" xlink:href="#mefc086df07" y="82.944"/>
      </g>
     </g>
     <g id="text_4">
      <!-- −0.6 -->
      <g transform="translate(8.945469 86.363297)scale(0.09 -0.09)">
       <defs>
        <path d="M 678 2272 
L 4684 2272 
L 4684 1741 
L 678 1741 
L 678 2272 
z
" id="DejaVuSans-2212" transform="scale(0.015625)"/>
        <path d="M 684 794 
L 1344 794 
L 1344 0 
L 684 0 
L 684 794 
z
" id="DejaVuSans-2e" transform="scale(0.015625)"/>
        <path d="M 2113 2584 
Q 1688 2584 1439 2293 
Q 1191 2003 1191 1497 
Q 1191 994 1439 701 
Q 1688 409 2113 409 
Q 2538 409 2786 701 
Q 3034 994 3034 1497 
Q 3034 2003 2786 2293 
Q 2538 2584 2113 2584 
z
M 3366 4563 
L 3366 3988 
Q 3128 4100 2886 4159 
Q 2644 4219 2406 4219 
Q 1781 4219 1451 3797 
Q 1122 3375 1075 2522 
Q 1259 2794 1537 2939 
Q 1816 3084 2150 3084 
Q 2853 3084 3261 2657 
Q 3669 2231 3669 1497 
Q 3669 778 3244 343 
Q 2819 -91 2113 -91 
Q 1303 -91 875 529 
Q 447 1150 447 2328 
Q 447 3434 972 4092 
Q 1497 4750 2381 4750 
Q 2619 4750 2861 4703 
Q 3103 4656 3366 4563 
z
" id="DejaVuSans-36" transform="scale(0.015625)"/>
       </defs>
       <use xlink:href="#DejaVuSans-2212"/>
       <use x="83.789062" xlink:href="#DejaVuSans-30"/>
       <use x="147.412109" xlink:href="#DejaVuSans-2e"/>
       <use x="179.199219" xlink:href="#DejaVuSans-36"/>
      </g>
     </g>
    </g>
    <g id="ytick_2">
     <g id="line2d_5">
      <g>
       <use style="stroke:#000000;stroke-width:0.8;" x="37.8" xlink:href="#mefc086df07" y="50.112"/>
      </g>
     </g>
     <g id="text_5">
      <!-- 0.0 -->
      <g transform="translate(16.487188 53.531297)scale(0.09 -0.09)">
       <use xlink:href="#DejaVuSans-30"/>
       <use x="63.623047" xlink:href="#DejaVuSans-2e"/>
       <use x="95.410156" xlink:href="#DejaVuSans-30"/>
      </g>
     </g>
    </g>
    <g id="ytick_3">
     <g id="line2d_6">
      <g>
       <use style="stroke:#000000;stroke-width:0.8;" x="37.8" xlink:href="#mefc086df07" y="17.28"/>
      </g>
     </g>
     <g id="text_6">
      <!-- 0.6 -->
      <g transform="translate(16.487188 20.699297)scale(0.09 -0.09)">
       <use xlink:href="#DejaVuSans-30"/>
       <use x="63.623047" xlink:href="#DejaVuSans-2e"/>
       <use x="95.410156" xlink:href="#DejaVuSans-36"/>
      </g>
     </g>
    </g>
   </g>
   <g id="LineCollection_1">
    <path clip-path="url(#p050ceb9a75)" d="M 39.105944 50.112 
L 271 50.112 
" style="fill:none;stroke:#000000;stroke-dasharray:3.7,1.6;stroke-dashoffset:0;"/>
   </g>
   <g id="line2d_7">
    <defs>
     <path d="M -2 2 
L 2 2 
L 2 -2 
L -2 -2 
z
" id="m87a86eb4e8" style="stroke:#4169e1;stroke-linejoin:miter;"/>
    </defs>
    <g clip-path="url(#p050ceb9a75)">
     <use style="fill-opacity:0;stroke:#4169e1;stroke-linejoin:miter;" x="43.023776" xlink:href="#m87a86eb4e8" y="50.845109"/>
     <use style="fill-opacity:0;stroke:#4169e1;stroke-linejoin:miter;" x="44.32972" xlink:href="#m87a86eb4e8" y="54.416665"/>
     <use style="fill-opacity:0;stroke:#4169e1;stroke-linejoin:miter;" x="45.635664" xlink:href="#m87a86eb4e8" y="49.717249"/>
     <use style="fill-opacity:0;stroke:#4169e1;stroke-linejoin:miter;" x="48.247552" xlink:href="#m87a86eb4e8" y="54.604642"/>
     <use style="fill-opacity:0;stroke:#4169e1;stroke-linejoin:miter;" x="49.553497" xlink:href="#m87a86eb4e8" y="48.589389"/>
     <use style="fill-opacity:0;stroke:#4169e1;stroke-linejoin:miter;" x="54.777273" xlink:href="#m87a86eb4e8" y="51.409039"/>
     <use style="fill-opacity:0;stroke:#4169e1;stroke-linejoin:miter;" x="56.083217" xlink:href="#m87a86eb4e8" y="47.273553"/>
     <use style="fill-opacity:0;stroke:#4169e1;stroke-linejoin:miter;" x="60.001049" xlink:href="#m87a86eb4e8" y="50.093202"/>
     <use style="fill-opacity:0;stroke:#4169e1;stroke-linejoin:miter;" x="65.224825" xlink:href="#m87a86eb4e8" y="47.649506"/>
     <use style="fill-opacity:0;stroke:#4169e1;stroke-linejoin:miter;" x="67.836713" xlink:href="#m87a86eb4e8" y="51.972969"/>
     <use style="fill-opacity:0;stroke:#4169e1;stroke-linejoin:miter;" x="70.448601" xlink:href="#m87a86eb4e8" y="53.100829"/>
     <use style="fill-opacity:0;stroke:#4169e1;stroke-linejoin:miter;" x="71.754545" xlink:href="#m87a86eb4e8" y="51.221062"/>
     <use style="fill-opacity:0;stroke:#4169e1;stroke-linejoin:miter;" x="74.366434" xlink:href="#m87a86eb4e8" y="52.348922"/>
     <use style="fill-opacity:0;stroke:#4169e1;stroke-linejoin:miter;" x="79.59021" xlink:href="#m87a86eb4e8" y="49.153319"/>
     <use style="fill-opacity:0;stroke:#4169e1;stroke-linejoin:miter;" x="84.813986" xlink:href="#m87a86eb4e8" y="46.521646"/>
     <use style="fill-opacity:0;stroke:#4169e1;stroke-linejoin:miter;" x="86.11993" xlink:href="#m87a86eb4e8" y="49.717249"/>
     <use style="fill-opacity:0;stroke:#4169e1;stroke-linejoin:miter;" x="87.425874" xlink:href="#m87a86eb4e8" y="49.529272"/>
     <use style="fill-opacity:0;stroke:#4169e1;stroke-linejoin:miter;" x="88.731818" xlink:href="#m87a86eb4e8" y="52.536899"/>
     <use style="fill-opacity:0;stroke:#4169e1;stroke-linejoin:miter;" x="99.179371" xlink:href="#m87a86eb4e8" y="46.145693"/>
     <use style="fill-opacity:0;stroke:#4169e1;stroke-linejoin:miter;" x="101.791259" xlink:href="#m87a86eb4e8" y="51.409039"/>
    </g>
   </g>
   <g id="line2d_8">
    <defs>
     <path d="M -2 2 
L 2 2 
L 2 -2 
L -2 -2 
z
" id="m2a103a9d65" style="stroke:#dc143c;stroke-linejoin:miter;"/>
    </defs>
    <g clip-path="url(#p050ceb9a75)">
     <use style="fill-opacity:0;stroke:#dc143c;stroke-linejoin:miter;" x="39.105944" xlink:href="#m2a103a9d65" y="48.965342"/>
     <use style="fill-opacity:0;stroke:#dc143c;stroke-linejoin:miter;" x="40.411888" xlink:href="#m2a103a9d65" y="48.401413"/>
     <use style="fill-opacity:0;stroke:#dc143c;stroke-linejoin:miter;" x="41.717832" xlink:href="#m2a103a9d65" y="50.845109"/>
     <use style="fill-opacity:0;stroke:#dc143c;stroke-linejoin:miter;" x="46.941608" xlink:href="#m2a103a9d65" y="50.469156"/>
     <use style="fill-opacity:0;stroke:#dc143c;stroke-linejoin:miter;" x="50.859441" xlink:href="#m2a103a9d65" y="49.905226"/>
     <use style="fill-opacity:0;stroke:#dc143c;stroke-linejoin:miter;" x="52.165385" xlink:href="#m2a103a9d65" y="51.597015"/>
     <use style="fill-opacity:0;stroke:#dc143c;stroke-linejoin:miter;" x="53.471329" xlink:href="#m2a103a9d65" y="50.469156"/>
     <use style="fill-opacity:0;stroke:#dc143c;stroke-linejoin:miter;" x="57.389161" xlink:href="#m2a103a9d65" y="51.033086"/>
     <use style="fill-opacity:0;stroke:#dc143c;stroke-linejoin:miter;" x="58.695105" xlink:href="#m2a103a9d65" y="53.288805"/>
     <use style="fill-opacity:0;stroke:#dc143c;stroke-linejoin:miter;" x="61.306993" xlink:href="#m2a103a9d65" y="52.348922"/>
     <use style="fill-opacity:0;stroke:#dc143c;stroke-linejoin:miter;" x="62.612937" xlink:href="#m2a103a9d65" y="51.033086"/>
     <use style="fill-opacity:0;stroke:#dc143c;stroke-linejoin:miter;" x="63.918881" xlink:href="#m2a103a9d65" y="51.221062"/>
     <use style="fill-opacity:0;stroke:#dc143c;stroke-linejoin:miter;" x="66.530769" xlink:href="#m2a103a9d65" y="49.717249"/>
     <use style="fill-opacity:0;stroke:#dc143c;stroke-linejoin:miter;" x="69.142657" xlink:href="#m2a103a9d65" y="54.416665"/>
     <use style="fill-opacity:0;stroke:#dc143c;stroke-linejoin:miter;" x="73.06049" xlink:href="#m2a103a9d65" y="51.409039"/>
     <use style="fill-opacity:0;stroke:#dc143c;stroke-linejoin:miter;" x="75.672378" xlink:href="#m2a103a9d65" y="49.717249"/>
     <use style="fill-opacity:0;stroke:#dc143c;stroke-linejoin:miter;" x="76.978322" xlink:href="#m2a103a9d65" y="50.281179"/>
     <use style="fill-opacity:0;stroke:#dc143c;stroke-linejoin:miter;" x="78.284266" xlink:href="#m2a103a9d65" y="51.972969"/>
     <use style="fill-opacity:0;stroke:#dc143c;stroke-linejoin:miter;" x="80.896154" xlink:href="#m2a103a9d65" y="53.664759"/>
     <use style="fill-opacity:0;stroke:#dc143c;stroke-linejoin:miter;" x="82.202098" xlink:href="#m2a103a9d65" y="46.521646"/>
     <use style="fill-opacity:0;stroke:#dc143c;stroke-linejoin:miter;" x="83.508042" xlink:href="#m2a103a9d65" y="47.461529"/>
     <use style="fill-opacity:0;stroke:#dc143c;stroke-linejoin:miter;" x="90.037762" xlink:href="#m2a103a9d65" y="50.469156"/>
     <use style="fill-opacity:0;stroke:#dc143c;stroke-linejoin:miter;" x="91.343706" xlink:href="#m2a103a9d65" y="51.221062"/>
     <use style="fill-opacity:0;stroke:#dc143c;stroke-linejoin:miter;" x="92.64965" xlink:href="#m2a103a9d65" y="47.273553"/>
     <use style="fill-opacity:0;stroke:#dc143c;stroke-linejoin:miter;" x="93.955594" xlink:href="#m2a103a9d65" y="52.536899"/>
     <use style="fill-opacity:0;stroke:#dc143c;stroke-linejoin:miter;" x="95.261538" xlink:href="#m2a103a9d65" y="50.469156"/>
     <use style="fill-opacity:0;stroke:#dc143c;stroke-linejoin:miter;" x="96.567483" xlink:href="#m2a103a9d65" y="48.213436"/>
     <use style="fill-opacity:0;stroke:#dc143c;stroke-linejoin:miter;" x="97.873427" xlink:href="#m2a103a9d65" y="49.905226"/>
     <use style="fill-opacity:0;stroke:#dc143c;stroke-linejoin:miter;" x="100.485315" xlink:href="#m2a103a9d65" y="52.160945"/>
     <use style="fill-opacity:0;stroke:#dc143c;stroke-linejoin:miter;" x="103.097203" xlink:href="#m2a103a9d65" y="53.288805"/>
    </g>
   </g>
   <g id="patch_3">
    <path d="M 37.8 82.944 
L 37.8 17.28 
" style="fill:none;stroke:#000000;stroke-linecap:square;stroke-linejoin:miter;stroke-width:0.8;"/>
   </g>
   <g id="patch_4">
    <path d="M 105.709091 82.944 
L 105.709091 17.28 
" style="fill:none;stroke:#000000;stroke-linecap:square;stroke-linejoin:miter;stroke-width:0.8;"/>
   </g>
   <g id="patch_5">
    <path d="M 37.8 82.944 
L 105.709091 82.944 
" style="fill:none;stroke:#000000;stroke-linecap:square;stroke-linejoin:miter;stroke-width:0.8;"/>
   </g>
   <g id="patch_6">
    <path d="M 37.8 17.28 
L 105.709091 17.28 
" style="fill:none;stroke:#000000;stroke-linecap:square;stroke-linejoin:miter;stroke-width:0.8;"/>
   </g>
   <g id="text_7">
    <!-- $\langle\hat\sigma_z\rangle$ -->
    <g transform="translate(12.606392 57.723063)rotate(-90)scale(0.1 -0.1)">
     <defs>
      <path d="M 572 2006 
L 1453 4856 
L 1984 4856 
L 1103 2006 
L 1984 -844 
L 1453 -844 
L 572 2006 
z
" id="DejaVuSans-27e8" transform="scale(0.015625)"/>
      <path d="M -1831 5119 
L -1369 5119 
L -603 3944 
L -1038 3944 
L -1600 4709 
L -2163 3944 
L -2597 3944 
L -1831 5119 
z
M -1600 3584 
L -1600 3584 
z
" id="DejaVuSans-302" transform="scale(0.015625)"/>
      <path d="M 2219 3044 
Q 1744 3044 1422 2700 
Q 1081 2341 969 1747 
Q 844 1119 1044 756 
Q 1241 397 1706 397 
Q 2166 397 2503 759 
Q 2844 1122 2966 1747 
Q 3075 2319 2881 2700 
Q 2700 3044 2219 3044 
z
M 2309 3503 
L 4219 3500 
L 4106 2925 
L 3463 2925 
Q 3706 2438 3575 1747 
Q 3406 888 2884 400 
Q 2359 -91 1609 -91 
Q 856 -91 525 400 
Q 194 888 363 1747 
Q 528 2609 1050 3097 
Q 1484 3503 2309 3503 
z
" id="DejaVuSans-Oblique-3c3" transform="scale(0.015625)"/>
      <path d="M 744 3500 
L 3475 3500 
L 3372 2975 
L 738 459 
L 2913 459 
L 2822 0 
L -19 0 
L 84 525 
L 2719 3041 
L 653 3041 
L 744 3500 
z
" id="DejaVuSans-Oblique-7a" transform="scale(0.015625)"/>
      <path d="M 1925 2006 
L 1044 -844 
L 513 -844 
L 1394 2006 
L 513 4856 
L 1044 4856 
L 1925 2006 
z
" id="DejaVuSans-27e9" transform="scale(0.015625)"/>
     </defs>
     <use transform="translate(0 0.78125)" xlink:href="#DejaVuSans-27e8"/>
     <use transform="translate(103.314453 12.015625)" xlink:href="#DejaVuSans-302"/>
     <use transform="translate(39.013672 0.78125)" xlink:href="#DejaVuSans-Oblique-3c3"/>
     <use transform="translate(103.349609 -15.625)scale(0.7)" xlink:href="#DejaVuSans-Oblique-7a"/>
     <use transform="translate(142.827148 0.78125)" xlink:href="#DejaVuSans-27e9"/>
    </g>
   </g>
   <g id="legend_1">
    <g id="line2d_9"/>
    <g id="line2d_10">
     <g>
      <use style="fill-opacity:0;stroke:#4169e1;stroke-linejoin:miter;" x="186.218182" xlink:href="#m87a86eb4e8" y="8.604844"/>
     </g>
    </g>
    <g id="text_8">
     <!-- Hand -->
     <g transform="translate(195.218182 11.754844)scale(0.09 -0.09)">
      <defs>
       <path d="M 1316 2272 
L 3284 2272 
L 3284 3484 
Q 3284 3809 3244 3913 
Q 3213 3991 3113 4047 
Q 2978 4122 2828 4122 
L 2678 4122 
L 2678 4238 
L 4491 4238 
L 4491 4122 
L 4341 4122 
Q 4191 4122 4056 4050 
Q 3956 4000 3920 3898 
Q 3884 3797 3884 3484 
L 3884 750 
Q 3884 428 3925 325 
Q 3956 247 4053 191 
Q 4191 116 4341 116 
L 4491 116 
L 4491 0 
L 2678 0 
L 2678 116 
L 2828 116 
Q 3088 116 3206 269 
Q 3284 369 3284 750 
L 3284 2041 
L 1316 2041 
L 1316 750 
Q 1316 428 1356 325 
Q 1388 247 1488 191 
Q 1622 116 1772 116 
L 1925 116 
L 1925 0 
L 109 0 
L 109 116 
L 259 116 
Q 522 116 641 269 
Q 716 369 716 750 
L 716 3484 
Q 716 3809 675 3913 
Q 644 3991 547 4047 
Q 409 4122 259 4122 
L 109 4122 
L 109 4238 
L 1925 4238 
L 1925 4122 
L 1772 4122 
Q 1622 4122 1488 4050 
Q 1391 4000 1353 3898 
Q 1316 3797 1316 3484 
L 1316 2272 
z
" id="TimesNewRomanPSMT-48" transform="scale(0.015625)"/>
       <path d="M 1822 413 
Q 1381 72 1269 19 
Q 1100 -59 909 -59 
Q 613 -59 420 144 
Q 228 347 228 678 
Q 228 888 322 1041 
Q 450 1253 767 1440 
Q 1084 1628 1822 1897 
L 1822 2009 
Q 1822 2438 1686 2597 
Q 1550 2756 1291 2756 
Q 1094 2756 978 2650 
Q 859 2544 859 2406 
L 866 2225 
Q 866 2081 792 2003 
Q 719 1925 600 1925 
Q 484 1925 411 2006 
Q 338 2088 338 2228 
Q 338 2497 613 2722 
Q 888 2947 1384 2947 
Q 1766 2947 2009 2819 
Q 2194 2722 2281 2516 
Q 2338 2381 2338 1966 
L 2338 994 
Q 2338 584 2353 492 
Q 2369 400 2405 369 
Q 2441 338 2488 338 
Q 2538 338 2575 359 
Q 2641 400 2828 588 
L 2828 413 
Q 2478 -56 2159 -56 
Q 2006 -56 1915 50 
Q 1825 156 1822 413 
z
M 1822 616 
L 1822 1706 
Q 1350 1519 1213 1441 
Q 966 1303 859 1153 
Q 753 1003 753 825 
Q 753 600 887 451 
Q 1022 303 1197 303 
Q 1434 303 1822 616 
z
" id="TimesNewRomanPSMT-61" transform="scale(0.015625)"/>
       <path d="M 1034 2341 
Q 1538 2947 1994 2947 
Q 2228 2947 2397 2830 
Q 2566 2713 2666 2444 
Q 2734 2256 2734 1869 
L 2734 647 
Q 2734 375 2778 278 
Q 2813 200 2889 156 
Q 2966 113 3172 113 
L 3172 0 
L 1756 0 
L 1756 113 
L 1816 113 
Q 2016 113 2095 173 
Q 2175 234 2206 353 
Q 2219 400 2219 647 
L 2219 1819 
Q 2219 2209 2117 2386 
Q 2016 2563 1775 2563 
Q 1403 2563 1034 2156 
L 1034 647 
Q 1034 356 1069 288 
Q 1113 197 1189 155 
Q 1266 113 1500 113 
L 1500 0 
L 84 0 
L 84 113 
L 147 113 
Q 366 113 442 223 
Q 519 334 519 647 
L 519 1709 
Q 519 2225 495 2337 
Q 472 2450 423 2490 
Q 375 2531 294 2531 
Q 206 2531 84 2484 
L 38 2597 
L 900 2947 
L 1034 2947 
L 1034 2341 
z
" id="TimesNewRomanPSMT-6e" transform="scale(0.015625)"/>
       <path d="M 2222 322 
Q 2013 103 1813 7 
Q 1613 -88 1381 -88 
Q 913 -88 563 304 
Q 213 697 213 1313 
Q 213 1928 600 2439 
Q 988 2950 1597 2950 
Q 1975 2950 2222 2709 
L 2222 3238 
Q 2222 3728 2198 3840 
Q 2175 3953 2125 3993 
Q 2075 4034 2000 4034 
Q 1919 4034 1784 3984 
L 1744 4094 
L 2597 4444 
L 2738 4444 
L 2738 1134 
Q 2738 631 2761 520 
Q 2784 409 2836 365 
Q 2888 322 2956 322 
Q 3041 322 3181 375 
L 3216 266 
L 2366 -88 
L 2222 -88 
L 2222 322 
z
M 2222 541 
L 2222 2016 
Q 2203 2228 2109 2403 
Q 2016 2578 1861 2667 
Q 1706 2756 1559 2756 
Q 1284 2756 1069 2509 
Q 784 2184 784 1559 
Q 784 928 1059 592 
Q 1334 256 1672 256 
Q 1956 256 2222 541 
z
" id="TimesNewRomanPSMT-64" transform="scale(0.015625)"/>
      </defs>
      <use xlink:href="#TimesNewRomanPSMT-48"/>
      <use x="72.216797" xlink:href="#TimesNewRomanPSMT-61"/>
      <use x="116.601562" xlink:href="#TimesNewRomanPSMT-6e"/>
      <use x="166.601562" xlink:href="#TimesNewRomanPSMT-64"/>
     </g>
    </g>
    <g id="line2d_11"/>
    <g id="line2d_12">
     <g>
      <use style="fill-opacity:0;stroke:#dc143c;stroke-linejoin:miter;" x="226.413026" xlink:href="#m2a103a9d65" y="8.604844"/>
     </g>
    </g>
    <g id="text_9">
     <!-- Breast -->
     <g transform="translate(235.413026 11.754844)scale(0.09 -0.09)">
      <defs>
       <path d="M 2956 2163 
Q 3397 2069 3616 1863 
Q 3919 1575 3919 1159 
Q 3919 844 3719 555 
Q 3519 266 3170 133 
Q 2822 0 2106 0 
L 106 0 
L 106 116 
L 266 116 
Q 531 116 647 284 
Q 719 394 719 750 
L 719 3488 
Q 719 3881 628 3984 
Q 506 4122 266 4122 
L 106 4122 
L 106 4238 
L 1938 4238 
Q 2450 4238 2759 4163 
Q 3228 4050 3475 3764 
Q 3722 3478 3722 3106 
Q 3722 2788 3528 2536 
Q 3334 2284 2956 2163 
z
M 1319 2331 
Q 1434 2309 1582 2298 
Q 1731 2288 1909 2288 
Q 2366 2288 2595 2386 
Q 2825 2484 2947 2687 
Q 3069 2891 3069 3131 
Q 3069 3503 2766 3765 
Q 2463 4028 1881 4028 
Q 1569 4028 1319 3959 
L 1319 2331 
z
M 1319 306 
Q 1681 222 2034 222 
Q 2600 222 2897 476 
Q 3194 731 3194 1106 
Q 3194 1353 3059 1581 
Q 2925 1809 2622 1940 
Q 2319 2072 1872 2072 
Q 1678 2072 1540 2065 
Q 1403 2059 1319 2044 
L 1319 306 
z
" id="TimesNewRomanPSMT-42" transform="scale(0.015625)"/>
       <path d="M 1038 2947 
L 1038 2303 
Q 1397 2947 1775 2947 
Q 1947 2947 2059 2842 
Q 2172 2738 2172 2600 
Q 2172 2478 2090 2393 
Q 2009 2309 1897 2309 
Q 1788 2309 1652 2417 
Q 1516 2525 1450 2525 
Q 1394 2525 1328 2463 
Q 1188 2334 1038 2041 
L 1038 669 
Q 1038 431 1097 309 
Q 1138 225 1241 169 
Q 1344 113 1538 113 
L 1538 0 
L 72 0 
L 72 113 
Q 291 113 397 181 
Q 475 231 506 341 
Q 522 394 522 644 
L 522 1753 
Q 522 2253 501 2348 
Q 481 2444 426 2487 
Q 372 2531 291 2531 
Q 194 2531 72 2484 
L 41 2597 
L 906 2947 
L 1038 2947 
z
" id="TimesNewRomanPSMT-72" transform="scale(0.015625)"/>
       <path d="M 681 1784 
Q 678 1147 991 784 
Q 1303 422 1725 422 
Q 2006 422 2214 576 
Q 2422 731 2563 1106 
L 2659 1044 
Q 2594 616 2278 264 
Q 1963 -88 1488 -88 
Q 972 -88 605 314 
Q 238 716 238 1394 
Q 238 2128 614 2539 
Q 991 2950 1559 2950 
Q 2041 2950 2350 2633 
Q 2659 2316 2659 1784 
L 681 1784 
z
M 681 1966 
L 2006 1966 
Q 1991 2241 1941 2353 
Q 1863 2528 1708 2628 
Q 1553 2728 1384 2728 
Q 1125 2728 920 2526 
Q 716 2325 681 1966 
z
" id="TimesNewRomanPSMT-65" transform="scale(0.015625)"/>
       <path d="M 2050 2947 
L 2050 1972 
L 1947 1972 
Q 1828 2431 1642 2597 
Q 1456 2763 1169 2763 
Q 950 2763 815 2647 
Q 681 2531 681 2391 
Q 681 2216 781 2091 
Q 878 1963 1175 1819 
L 1631 1597 
Q 2266 1288 2266 781 
Q 2266 391 1970 151 
Q 1675 -88 1309 -88 
Q 1047 -88 709 6 
Q 606 38 541 38 
Q 469 38 428 -44 
L 325 -44 
L 325 978 
L 428 978 
Q 516 541 762 319 
Q 1009 97 1316 97 
Q 1531 97 1667 223 
Q 1803 350 1803 528 
Q 1803 744 1651 891 
Q 1500 1038 1047 1263 
Q 594 1488 453 1669 
Q 313 1847 313 2119 
Q 313 2472 555 2709 
Q 797 2947 1181 2947 
Q 1350 2947 1591 2875 
Q 1750 2828 1803 2828 
Q 1853 2828 1881 2850 
Q 1909 2872 1947 2947 
L 2050 2947 
z
" id="TimesNewRomanPSMT-73" transform="scale(0.015625)"/>
       <path d="M 1031 3803 
L 1031 2863 
L 1700 2863 
L 1700 2644 
L 1031 2644 
L 1031 788 
Q 1031 509 1111 412 
Q 1191 316 1316 316 
Q 1419 316 1516 380 
Q 1613 444 1666 569 
L 1788 569 
Q 1678 263 1478 108 
Q 1278 -47 1066 -47 
Q 922 -47 784 33 
Q 647 113 581 261 
Q 516 409 516 719 
L 516 2644 
L 63 2644 
L 63 2747 
Q 234 2816 414 2980 
Q 594 3144 734 3369 
Q 806 3488 934 3803 
L 1031 3803 
z
" id="TimesNewRomanPSMT-74" transform="scale(0.015625)"/>
      </defs>
      <use xlink:href="#TimesNewRomanPSMT-42"/>
      <use x="66.699219" xlink:href="#TimesNewRomanPSMT-72"/>
      <use x="100" xlink:href="#TimesNewRomanPSMT-65"/>
      <use x="144.384766" xlink:href="#TimesNewRomanPSMT-61"/>
      <use x="188.769531" xlink:href="#TimesNewRomanPSMT-73"/>
      <use x="227.685547" xlink:href="#TimesNewRomanPSMT-74"/>
     </g>
    </g>
   </g>
  </g>
  <g id="axes_2">
   <g id="patch_7">
    <path d="M 115.895455 82.944 
L 183.804545 82.944 
L 183.804545 17.28 
L 115.895455 17.28 
z
" style="fill:none;"/>
   </g>
   <g id="matplotlib.axis_3">
    <g id="xtick_4">
     <g id="line2d_13">
      <g>
       <use style="stroke:#000000;stroke-width:0.8;" x="117.201399" xlink:href="#mf695926b7a" y="82.944"/>
      </g>
     </g>
     <g id="text_10">
      <!-- 0 -->
      <g transform="translate(114.338274 96.782594)scale(0.09 -0.09)">
       <use xlink:href="#DejaVuSans-30"/>
      </g>
     </g>
    </g>
    <g id="xtick_5">
     <g id="line2d_14">
      <g>
       <use style="stroke:#000000;stroke-width:0.8;" x="149.85" xlink:href="#mf695926b7a" y="82.944"/>
      </g>
     </g>
     <g id="text_11">
      <!-- 25 -->
      <g transform="translate(144.12375 96.782594)scale(0.09 -0.09)">
       <use xlink:href="#DejaVuSans-32"/>
       <use x="63.623047" xlink:href="#DejaVuSans-35"/>
      </g>
     </g>
    </g>
    <g id="xtick_6">
     <g id="line2d_15">
      <g>
       <use style="stroke:#000000;stroke-width:0.8;" x="182.498601" xlink:href="#mf695926b7a" y="82.944"/>
      </g>
     </g>
     <g id="text_12">
      <!-- 50 -->
      <g transform="translate(176.772351 96.782594)scale(0.09 -0.09)">
       <use xlink:href="#DejaVuSans-35"/>
       <use x="63.623047" xlink:href="#DejaVuSans-30"/>
      </g>
     </g>
    </g>
    <g id="text_13">
     <!-- Sample index -->
     <g transform="translate(122.49375 109.598062)scale(0.1 -0.1)">
      <defs>
       <path d="M 2934 4334 
L 2934 2869 
L 2819 2869 
Q 2763 3291 2617 3541 
Q 2472 3791 2203 3937 
Q 1934 4084 1647 4084 
Q 1322 4084 1109 3886 
Q 897 3688 897 3434 
Q 897 3241 1031 3081 
Q 1225 2847 1953 2456 
Q 2547 2138 2764 1967 
Q 2981 1797 3098 1565 
Q 3216 1334 3216 1081 
Q 3216 600 2842 251 
Q 2469 -97 1881 -97 
Q 1697 -97 1534 -69 
Q 1438 -53 1133 45 
Q 828 144 747 144 
Q 669 144 623 97 
Q 578 50 556 -97 
L 441 -97 
L 441 1356 
L 556 1356 
Q 638 900 775 673 
Q 913 447 1195 297 
Q 1478 147 1816 147 
Q 2206 147 2432 353 
Q 2659 559 2659 841 
Q 2659 997 2573 1156 
Q 2488 1316 2306 1453 
Q 2184 1547 1640 1851 
Q 1097 2156 867 2337 
Q 638 2519 519 2737 
Q 400 2956 400 3219 
Q 400 3675 750 4004 
Q 1100 4334 1641 4334 
Q 1978 4334 2356 4169 
Q 2531 4091 2603 4091 
Q 2684 4091 2736 4139 
Q 2788 4188 2819 4334 
L 2934 4334 
z
" id="TimesNewRomanPSMT-53" transform="scale(0.015625)"/>
       <path d="M 1050 2338 
Q 1363 2650 1419 2697 
Q 1559 2816 1721 2881 
Q 1884 2947 2044 2947 
Q 2313 2947 2506 2790 
Q 2700 2634 2766 2338 
Q 3088 2713 3309 2830 
Q 3531 2947 3766 2947 
Q 3994 2947 4170 2830 
Q 4347 2713 4450 2447 
Q 4519 2266 4519 1878 
L 4519 647 
Q 4519 378 4559 278 
Q 4591 209 4675 161 
Q 4759 113 4950 113 
L 4950 0 
L 3538 0 
L 3538 113 
L 3597 113 
Q 3781 113 3884 184 
Q 3956 234 3988 344 
Q 4000 397 4000 647 
L 4000 1878 
Q 4000 2228 3916 2372 
Q 3794 2572 3525 2572 
Q 3359 2572 3192 2489 
Q 3025 2406 2788 2181 
L 2781 2147 
L 2788 2013 
L 2788 647 
Q 2788 353 2820 281 
Q 2853 209 2943 161 
Q 3034 113 3253 113 
L 3253 0 
L 1806 0 
L 1806 113 
Q 2044 113 2133 169 
Q 2222 225 2256 338 
Q 2272 391 2272 647 
L 2272 1878 
Q 2272 2228 2169 2381 
Q 2031 2581 1784 2581 
Q 1616 2581 1450 2491 
Q 1191 2353 1050 2181 
L 1050 647 
Q 1050 366 1089 281 
Q 1128 197 1204 155 
Q 1281 113 1516 113 
L 1516 0 
L 100 0 
L 100 113 
Q 297 113 375 155 
Q 453 197 493 289 
Q 534 381 534 647 
L 534 1741 
Q 534 2213 506 2350 
Q 484 2453 437 2492 
Q 391 2531 309 2531 
Q 222 2531 100 2484 
L 53 2597 
L 916 2947 
L 1050 2947 
L 1050 2338 
z
" id="TimesNewRomanPSMT-6d" transform="scale(0.015625)"/>
       <path d="M -6 2578 
L 875 2934 
L 994 2934 
L 994 2266 
Q 1216 2644 1439 2795 
Q 1663 2947 1909 2947 
Q 2341 2947 2628 2609 
Q 2981 2197 2981 1534 
Q 2981 794 2556 309 
Q 2206 -88 1675 -88 
Q 1444 -88 1275 -22 
Q 1150 25 994 166 
L 994 -706 
Q 994 -1000 1030 -1079 
Q 1066 -1159 1155 -1206 
Q 1244 -1253 1478 -1253 
L 1478 -1369 
L -22 -1369 
L -22 -1253 
L 56 -1253 
Q 228 -1256 350 -1188 
Q 409 -1153 442 -1076 
Q 475 -1000 475 -688 
L 475 2019 
Q 475 2297 450 2372 
Q 425 2447 370 2484 
Q 316 2522 222 2522 
Q 147 2522 31 2478 
L -6 2578 
z
M 994 2081 
L 994 1013 
Q 994 666 1022 556 
Q 1066 375 1236 237 
Q 1406 100 1666 100 
Q 1978 100 2172 344 
Q 2425 663 2425 1241 
Q 2425 1897 2138 2250 
Q 1938 2494 1663 2494 
Q 1513 2494 1366 2419 
Q 1253 2363 994 2081 
z
" id="TimesNewRomanPSMT-70" transform="scale(0.015625)"/>
       <path d="M 1184 4444 
L 1184 647 
Q 1184 378 1223 290 
Q 1263 203 1344 158 
Q 1425 113 1647 113 
L 1647 0 
L 244 0 
L 244 113 
Q 441 113 512 153 
Q 584 194 625 287 
Q 666 381 666 647 
L 666 3247 
Q 666 3731 644 3842 
Q 622 3953 573 3993 
Q 525 4034 450 4034 
Q 369 4034 244 3984 
L 191 4094 
L 1044 4444 
L 1184 4444 
z
" id="TimesNewRomanPSMT-6c" transform="scale(0.015625)"/>
       <path id="TimesNewRomanPSMT-20" transform="scale(0.015625)"/>
       <path d="M 928 4444 
Q 1059 4444 1151 4351 
Q 1244 4259 1244 4128 
Q 1244 3997 1151 3903 
Q 1059 3809 928 3809 
Q 797 3809 703 3903 
Q 609 3997 609 4128 
Q 609 4259 701 4351 
Q 794 4444 928 4444 
z
M 1188 2947 
L 1188 647 
Q 1188 378 1227 289 
Q 1266 200 1342 156 
Q 1419 113 1622 113 
L 1622 0 
L 231 0 
L 231 113 
Q 441 113 512 153 
Q 584 194 626 287 
Q 669 381 669 647 
L 669 1750 
Q 669 2216 641 2353 
Q 619 2453 572 2492 
Q 525 2531 444 2531 
Q 356 2531 231 2484 
L 188 2597 
L 1050 2947 
L 1188 2947 
z
" id="TimesNewRomanPSMT-69" transform="scale(0.015625)"/>
       <path d="M 84 2863 
L 1431 2863 
L 1431 2747 
Q 1303 2747 1251 2703 
Q 1200 2659 1200 2588 
Q 1200 2513 1309 2356 
Q 1344 2306 1413 2200 
L 1616 1875 
L 1850 2200 
Q 2075 2509 2075 2591 
Q 2075 2656 2022 2701 
Q 1969 2747 1850 2747 
L 1850 2863 
L 2819 2863 
L 2819 2747 
Q 2666 2738 2553 2663 
Q 2400 2556 2134 2200 
L 1744 1678 
L 2456 653 
Q 2719 275 2831 198 
Q 2944 122 3122 113 
L 3122 0 
L 1772 0 
L 1772 113 
Q 1913 113 1991 175 
Q 2050 219 2050 291 
Q 2050 363 1850 653 
L 1431 1266 
L 972 653 
Q 759 369 759 316 
Q 759 241 829 180 
Q 900 119 1041 113 
L 1041 0 
L 106 0 
L 106 113 
Q 219 128 303 191 
Q 422 281 703 653 
L 1303 1450 
L 759 2238 
Q 528 2575 401 2661 
Q 275 2747 84 2747 
L 84 2863 
z
" id="TimesNewRomanPSMT-78" transform="scale(0.015625)"/>
      </defs>
      <use xlink:href="#TimesNewRomanPSMT-53"/>
      <use x="55.615234" xlink:href="#TimesNewRomanPSMT-61"/>
      <use x="100" xlink:href="#TimesNewRomanPSMT-6d"/>
      <use x="177.783203" xlink:href="#TimesNewRomanPSMT-70"/>
      <use x="227.783203" xlink:href="#TimesNewRomanPSMT-6c"/>
      <use x="255.566406" xlink:href="#TimesNewRomanPSMT-65"/>
      <use x="299.951172" xlink:href="#TimesNewRomanPSMT-20"/>
      <use x="324.951172" xlink:href="#TimesNewRomanPSMT-69"/>
      <use x="352.734375" xlink:href="#TimesNewRomanPSMT-6e"/>
      <use x="402.734375" xlink:href="#TimesNewRomanPSMT-64"/>
      <use x="452.734375" xlink:href="#TimesNewRomanPSMT-65"/>
      <use x="497.119141" xlink:href="#TimesNewRomanPSMT-78"/>
     </g>
    </g>
   </g>
   <g id="matplotlib.axis_4">
    <g id="ytick_4">
     <g id="line2d_16">
      <g>
       <use style="stroke:#000000;stroke-width:0.8;" x="115.895455" xlink:href="#mefc086df07" y="82.944"/>
      </g>
     </g>
    </g>
    <g id="ytick_5">
     <g id="line2d_17">
      <g>
       <use style="stroke:#000000;stroke-width:0.8;" x="115.895455" xlink:href="#mefc086df07" y="50.112"/>
      </g>
     </g>
    </g>
    <g id="ytick_6">
     <g id="line2d_18">
      <g>
       <use style="stroke:#000000;stroke-width:0.8;" x="115.895455" xlink:href="#mefc086df07" y="17.28"/>
      </g>
     </g>
    </g>
   </g>
   <g id="LineCollection_2">
    <path clip-path="url(#p0dcbe5279e)" d="M 117.201399 50.112 
L 271 50.112 
" style="fill:none;stroke:#000000;stroke-dasharray:3.7,1.6;stroke-dashoffset:0;"/>
   </g>
   <g id="line2d_19">
    <g clip-path="url(#p0dcbe5279e)">
     <use style="fill-opacity:0;stroke:#4169e1;stroke-linejoin:miter;" x="119.813287" xlink:href="#m87a86eb4e8" y="44.30751"/>
     <use style="fill-opacity:0;stroke:#4169e1;stroke-linejoin:miter;" x="121.119231" xlink:href="#m87a86eb4e8" y="39.799168"/>
     <use style="fill-opacity:0;stroke:#4169e1;stroke-linejoin:miter;" x="122.425175" xlink:href="#m87a86eb4e8" y="40.362711"/>
     <use style="fill-opacity:0;stroke:#4169e1;stroke-linejoin:miter;" x="125.037063" xlink:href="#m87a86eb4e8" y="39.987015"/>
     <use style="fill-opacity:0;stroke:#4169e1;stroke-linejoin:miter;" x="126.343007" xlink:href="#m87a86eb4e8" y="47.125223"/>
     <use style="fill-opacity:0;stroke:#4169e1;stroke-linejoin:miter;" x="127.648951" xlink:href="#m87a86eb4e8" y="41.114101"/>
     <use style="fill-opacity:0;stroke:#4169e1;stroke-linejoin:miter;" x="128.954895" xlink:href="#m87a86eb4e8" y="42.616882"/>
     <use style="fill-opacity:0;stroke:#4169e1;stroke-linejoin:miter;" x="130.260839" xlink:href="#m87a86eb4e8" y="46.373833"/>
     <use style="fill-opacity:0;stroke:#4169e1;stroke-linejoin:miter;" x="132.872727" xlink:href="#m87a86eb4e8" y="37.920692"/>
     <use style="fill-opacity:0;stroke:#4169e1;stroke-linejoin:miter;" x="136.790559" xlink:href="#m87a86eb4e8" y="38.672082"/>
     <use style="fill-opacity:0;stroke:#4169e1;stroke-linejoin:miter;" x="143.32028" xlink:href="#m87a86eb4e8" y="45.81029"/>
     <use style="fill-opacity:0;stroke:#4169e1;stroke-linejoin:miter;" x="144.626224" xlink:href="#m87a86eb4e8" y="47.876614"/>
     <use style="fill-opacity:0;stroke:#4169e1;stroke-linejoin:miter;" x="145.932168" xlink:href="#m87a86eb4e8" y="45.622443"/>
     <use style="fill-opacity:0;stroke:#4169e1;stroke-linejoin:miter;" x="147.238112" xlink:href="#m87a86eb4e8" y="39.987015"/>
     <use style="fill-opacity:0;stroke:#4169e1;stroke-linejoin:miter;" x="148.544056" xlink:href="#m87a86eb4e8" y="39.235625"/>
     <use style="fill-opacity:0;stroke:#4169e1;stroke-linejoin:miter;" x="149.85" xlink:href="#m87a86eb4e8" y="44.683205"/>
     <use style="fill-opacity:0;stroke:#4169e1;stroke-linejoin:miter;" x="152.461888" xlink:href="#m87a86eb4e8" y="44.30751"/>
     <use style="fill-opacity:0;stroke:#4169e1;stroke-linejoin:miter;" x="156.37972" xlink:href="#m87a86eb4e8" y="45.0589"/>
     <use style="fill-opacity:0;stroke:#4169e1;stroke-linejoin:miter;" x="160.297552" xlink:href="#m87a86eb4e8" y="44.683205"/>
     <use style="fill-opacity:0;stroke:#4169e1;stroke-linejoin:miter;" x="161.603497" xlink:href="#m87a86eb4e8" y="42.429034"/>
     <use style="fill-opacity:0;stroke:#4169e1;stroke-linejoin:miter;" x="162.909441" xlink:href="#m87a86eb4e8" y="48.064461"/>
     <use style="fill-opacity:0;stroke:#4169e1;stroke-linejoin:miter;" x="164.215385" xlink:href="#m87a86eb4e8" y="40.362711"/>
     <use style="fill-opacity:0;stroke:#4169e1;stroke-linejoin:miter;" x="173.356993" xlink:href="#m87a86eb4e8" y="46.185986"/>
     <use style="fill-opacity:0;stroke:#4169e1;stroke-linejoin:miter;" x="175.968881" xlink:href="#m87a86eb4e8" y="43.743967"/>
     <use style="fill-opacity:0;stroke:#4169e1;stroke-linejoin:miter;" x="177.274825" xlink:href="#m87a86eb4e8" y="42.616882"/>
     <use style="fill-opacity:0;stroke:#4169e1;stroke-linejoin:miter;" x="179.886713" xlink:href="#m87a86eb4e8" y="44.119662"/>
    </g>
   </g>
   <g id="line2d_20">
    <g clip-path="url(#p0dcbe5279e)">
     <use style="fill-opacity:0;stroke:#dc143c;stroke-linejoin:miter;" x="117.201399" xlink:href="#m2a103a9d65" y="55.766212"/>
     <use style="fill-opacity:0;stroke:#dc143c;stroke-linejoin:miter;" x="118.507343" xlink:href="#m2a103a9d65" y="54.075584"/>
     <use style="fill-opacity:0;stroke:#dc143c;stroke-linejoin:miter;" x="123.731119" xlink:href="#m2a103a9d65" y="46.749528"/>
     <use style="fill-opacity:0;stroke:#dc143c;stroke-linejoin:miter;" x="131.566783" xlink:href="#m2a103a9d65" y="55.014822"/>
     <use style="fill-opacity:0;stroke:#dc143c;stroke-linejoin:miter;" x="134.178671" xlink:href="#m2a103a9d65" y="56.70545"/>
     <use style="fill-opacity:0;stroke:#dc143c;stroke-linejoin:miter;" x="135.484615" xlink:href="#m2a103a9d65" y="57.268993"/>
     <use style="fill-opacity:0;stroke:#dc143c;stroke-linejoin:miter;" x="138.096503" xlink:href="#m2a103a9d65" y="55.766212"/>
     <use style="fill-opacity:0;stroke:#dc143c;stroke-linejoin:miter;" x="139.402448" xlink:href="#m2a103a9d65" y="59.335316"/>
     <use style="fill-opacity:0;stroke:#dc143c;stroke-linejoin:miter;" x="140.708392" xlink:href="#m2a103a9d65" y="57.832536"/>
     <use style="fill-opacity:0;stroke:#dc143c;stroke-linejoin:miter;" x="142.014336" xlink:href="#m2a103a9d65" y="60.462402"/>
     <use style="fill-opacity:0;stroke:#dc143c;stroke-linejoin:miter;" x="151.155944" xlink:href="#m2a103a9d65" y="50.50648"/>
     <use style="fill-opacity:0;stroke:#dc143c;stroke-linejoin:miter;" x="153.767832" xlink:href="#m2a103a9d65" y="57.268993"/>
     <use style="fill-opacity:0;stroke:#dc143c;stroke-linejoin:miter;" x="155.073776" xlink:href="#m2a103a9d65" y="52.384956"/>
     <use style="fill-opacity:0;stroke:#dc143c;stroke-linejoin:miter;" x="157.685664" xlink:href="#m2a103a9d65" y="52.009261"/>
     <use style="fill-opacity:0;stroke:#dc143c;stroke-linejoin:miter;" x="158.991608" xlink:href="#m2a103a9d65" y="50.50648"/>
     <use style="fill-opacity:0;stroke:#dc143c;stroke-linejoin:miter;" x="165.521329" xlink:href="#m2a103a9d65" y="53.699889"/>
     <use style="fill-opacity:0;stroke:#dc143c;stroke-linejoin:miter;" x="166.827273" xlink:href="#m2a103a9d65" y="59.711011"/>
     <use style="fill-opacity:0;stroke:#dc143c;stroke-linejoin:miter;" x="168.133217" xlink:href="#m2a103a9d65" y="61.025944"/>
     <use style="fill-opacity:0;stroke:#dc143c;stroke-linejoin:miter;" x="169.439161" xlink:href="#m2a103a9d65" y="60.838097"/>
     <use style="fill-opacity:0;stroke:#dc143c;stroke-linejoin:miter;" x="170.745105" xlink:href="#m2a103a9d65" y="52.572803"/>
     <use style="fill-opacity:0;stroke:#dc143c;stroke-linejoin:miter;" x="172.051049" xlink:href="#m2a103a9d65" y="46.373833"/>
     <use style="fill-opacity:0;stroke:#dc143c;stroke-linejoin:miter;" x="174.662937" xlink:href="#m2a103a9d65" y="55.578365"/>
     <use style="fill-opacity:0;stroke:#dc143c;stroke-linejoin:miter;" x="178.580769" xlink:href="#m2a103a9d65" y="64.970744"/>
     <use style="fill-opacity:0;stroke:#dc143c;stroke-linejoin:miter;" x="181.192657" xlink:href="#m2a103a9d65" y="62.90442"/>
    </g>
   </g>
   <g id="patch_8">
    <path d="M 115.895455 82.944 
L 115.895455 17.28 
" style="fill:none;stroke:#000000;stroke-linecap:square;stroke-linejoin:miter;stroke-width:0.8;"/>
   </g>
   <g id="patch_9">
    <path d="M 183.804545 82.944 
L 183.804545 17.28 
" style="fill:none;stroke:#000000;stroke-linecap:square;stroke-linejoin:miter;stroke-width:0.8;"/>
   </g>
   <g id="patch_10">
    <path d="M 115.895455 82.944 
L 183.804545 82.944 
" style="fill:none;stroke:#000000;stroke-linecap:square;stroke-linejoin:miter;stroke-width:0.8;"/>
   </g>
   <g id="patch_11">
    <path d="M 115.895455 17.28 
L 183.804545 17.28 
" style="fill:none;stroke:#000000;stroke-linecap:square;stroke-linejoin:miter;stroke-width:0.8;"/>
   </g>
  </g>
  <g id="axes_3">
   <g id="patch_12">
    <path d="M 193.990909 82.944 
L 261.9 82.944 
L 261.9 17.28 
L 193.990909 17.28 
z
" style="fill:none;"/>
   </g>
   <g id="matplotlib.axis_5">
    <g id="xtick_7">
     <g id="line2d_21">
      <g>
       <use style="stroke:#000000;stroke-width:0.8;" x="195.296853" xlink:href="#mf695926b7a" y="82.944"/>
      </g>
     </g>
     <g id="text_14">
      <!-- 0 -->
      <g transform="translate(192.433728 96.782594)scale(0.09 -0.09)">
       <use xlink:href="#DejaVuSans-30"/>
      </g>
     </g>
    </g>
    <g id="xtick_8">
     <g id="line2d_22">
      <g>
       <use style="stroke:#000000;stroke-width:0.8;" x="227.945455" xlink:href="#mf695926b7a" y="82.944"/>
      </g>
     </g>
     <g id="text_15">
      <!-- 25 -->
      <g transform="translate(222.219205 96.782594)scale(0.09 -0.09)">
       <use xlink:href="#DejaVuSans-32"/>
       <use x="63.623047" xlink:href="#DejaVuSans-35"/>
      </g>
     </g>
    </g>
    <g id="xtick_9">
     <g id="line2d_23">
      <g>
       <use style="stroke:#000000;stroke-width:0.8;" x="260.594056" xlink:href="#mf695926b7a" y="82.944"/>
      </g>
     </g>
     <g id="text_16">
      <!-- 50 -->
      <g transform="translate(254.867806 96.782594)scale(0.09 -0.09)">
       <use xlink:href="#DejaVuSans-35"/>
       <use x="63.623047" xlink:href="#DejaVuSans-30"/>
      </g>
     </g>
    </g>
   </g>
   <g id="matplotlib.axis_6">
    <g id="ytick_7">
     <g id="line2d_24">
      <g>
       <use style="stroke:#000000;stroke-width:0.8;" x="193.990909" xlink:href="#mefc086df07" y="82.944"/>
      </g>
     </g>
    </g>
    <g id="ytick_8">
     <g id="line2d_25">
      <g>
       <use style="stroke:#000000;stroke-width:0.8;" x="193.990909" xlink:href="#mefc086df07" y="50.112"/>
      </g>
     </g>
    </g>
    <g id="ytick_9">
     <g id="line2d_26">
      <g>
       <use style="stroke:#000000;stroke-width:0.8;" x="193.990909" xlink:href="#mefc086df07" y="17.28"/>
      </g>
     </g>
    </g>
   </g>
   <g id="LineCollection_3">
    <path clip-path="url(#p0cea2292e5)" d="M 195.296853 50.112 
L 271 50.112 
" style="fill:none;stroke:#000000;stroke-dasharray:3.7,1.6;stroke-dashoffset:0;"/>
   </g>
   <g id="line2d_27">
    <g clip-path="url(#p0cea2292e5)">
     <use style="fill-opacity:0;stroke:#4169e1;stroke-linejoin:miter;" x="196.602797" xlink:href="#m87a86eb4e8" y="34.213235"/>
     <use style="fill-opacity:0;stroke:#4169e1;stroke-linejoin:miter;" x="197.908741" xlink:href="#m87a86eb4e8" y="33.258927"/>
     <use style="fill-opacity:0;stroke:#4169e1;stroke-linejoin:miter;" x="199.214685" xlink:href="#m87a86eb4e8" y="37.267019"/>
     <use style="fill-opacity:0;stroke:#4169e1;stroke-linejoin:miter;" x="200.520629" xlink:href="#m87a86eb4e8" y="34.976681"/>
     <use style="fill-opacity:0;stroke:#4169e1;stroke-linejoin:miter;" x="204.438462" xlink:href="#m87a86eb4e8" y="30.396004"/>
     <use style="fill-opacity:0;stroke:#4169e1;stroke-linejoin:miter;" x="205.744406" xlink:href="#m87a86eb4e8" y="26.578774"/>
     <use style="fill-opacity:0;stroke:#4169e1;stroke-linejoin:miter;" x="208.356294" xlink:href="#m87a86eb4e8" y="37.267019"/>
     <use style="fill-opacity:0;stroke:#4169e1;stroke-linejoin:miter;" x="210.968182" xlink:href="#m87a86eb4e8" y="33.831512"/>
     <use style="fill-opacity:0;stroke:#4169e1;stroke-linejoin:miter;" x="212.274126" xlink:href="#m87a86eb4e8" y="35.167542"/>
     <use style="fill-opacity:0;stroke:#4169e1;stroke-linejoin:miter;" x="213.58007" xlink:href="#m87a86eb4e8" y="24.288435"/>
     <use style="fill-opacity:0;stroke:#4169e1;stroke-linejoin:miter;" x="221.415734" xlink:href="#m87a86eb4e8" y="26.006189"/>
     <use style="fill-opacity:0;stroke:#4169e1;stroke-linejoin:miter;" x="222.721678" xlink:href="#m87a86eb4e8" y="28.105666"/>
     <use style="fill-opacity:0;stroke:#4169e1;stroke-linejoin:miter;" x="225.333566" xlink:href="#m87a86eb4e8" y="38.60305"/>
     <use style="fill-opacity:0;stroke:#4169e1;stroke-linejoin:miter;" x="226.63951" xlink:href="#m87a86eb4e8" y="24.479297"/>
     <use style="fill-opacity:0;stroke:#4169e1;stroke-linejoin:miter;" x="229.251399" xlink:href="#m87a86eb4e8" y="39.748219"/>
     <use style="fill-opacity:0;stroke:#4169e1;stroke-linejoin:miter;" x="233.169231" xlink:href="#m87a86eb4e8" y="38.984773"/>
     <use style="fill-opacity:0;stroke:#4169e1;stroke-linejoin:miter;" x="235.781119" xlink:href="#m87a86eb4e8" y="30.205143"/>
     <use style="fill-opacity:0;stroke:#4169e1;stroke-linejoin:miter;" x="241.004895" xlink:href="#m87a86eb4e8" y="38.984773"/>
     <use style="fill-opacity:0;stroke:#4169e1;stroke-linejoin:miter;" x="246.228671" xlink:href="#m87a86eb4e8" y="21.043789"/>
     <use style="fill-opacity:0;stroke:#4169e1;stroke-linejoin:miter;" x="250.146503" xlink:href="#m87a86eb4e8" y="40.129942"/>
     <use style="fill-opacity:0;stroke:#4169e1;stroke-linejoin:miter;" x="255.37028" xlink:href="#m87a86eb4e8" y="34.404096"/>
     <use style="fill-opacity:0;stroke:#4169e1;stroke-linejoin:miter;" x="257.982168" xlink:href="#m87a86eb4e8" y="34.213235"/>
    </g>
   </g>
   <g id="line2d_28">
    <g clip-path="url(#p0cea2292e5)">
     <use style="fill-opacity:0;stroke:#dc143c;stroke-linejoin:miter;" x="195.296853" xlink:href="#m2a103a9d65" y="51.199911"/>
     <use style="fill-opacity:0;stroke:#dc143c;stroke-linejoin:miter;" x="201.826573" xlink:href="#m2a103a9d65" y="43.947173"/>
     <use style="fill-opacity:0;stroke:#dc143c;stroke-linejoin:miter;" x="203.132517" xlink:href="#m2a103a9d65" y="65.705387"/>
     <use style="fill-opacity:0;stroke:#dc143c;stroke-linejoin:miter;" x="207.05035" xlink:href="#m2a103a9d65" y="64.941941"/>
     <use style="fill-opacity:0;stroke:#dc143c;stroke-linejoin:miter;" x="209.662238" xlink:href="#m2a103a9d65" y="70.667787"/>
     <use style="fill-opacity:0;stroke:#dc143c;stroke-linejoin:miter;" x="214.886014" xlink:href="#m2a103a9d65" y="60.552126"/>
     <use style="fill-opacity:0;stroke:#dc143c;stroke-linejoin:miter;" x="216.191958" xlink:href="#m2a103a9d65" y="69.331756"/>
     <use style="fill-opacity:0;stroke:#dc143c;stroke-linejoin:miter;" x="217.497902" xlink:href="#m2a103a9d65" y="72.003817"/>
     <use style="fill-opacity:0;stroke:#dc143c;stroke-linejoin:miter;" x="218.803846" xlink:href="#m2a103a9d65" y="58.64351"/>
     <use style="fill-opacity:0;stroke:#dc143c;stroke-linejoin:miter;" x="220.10979" xlink:href="#m2a103a9d65" y="61.315572"/>
     <use style="fill-opacity:0;stroke:#dc143c;stroke-linejoin:miter;" x="224.027622" xlink:href="#m2a103a9d65" y="65.896248"/>
     <use style="fill-opacity:0;stroke:#dc143c;stroke-linejoin:miter;" x="227.945455" xlink:href="#m2a103a9d65" y="69.522617"/>
     <use style="fill-opacity:0;stroke:#dc143c;stroke-linejoin:miter;" x="230.557343" xlink:href="#m2a103a9d65" y="76.775355"/>
     <use style="fill-opacity:0;stroke:#dc143c;stroke-linejoin:miter;" x="231.863287" xlink:href="#m2a103a9d65" y="69.522617"/>
     <use style="fill-opacity:0;stroke:#dc143c;stroke-linejoin:miter;" x="234.475175" xlink:href="#m2a103a9d65" y="61.315572"/>
     <use style="fill-opacity:0;stroke:#dc143c;stroke-linejoin:miter;" x="237.087063" xlink:href="#m2a103a9d65" y="42.038557"/>
     <use style="fill-opacity:0;stroke:#dc143c;stroke-linejoin:miter;" x="238.393007" xlink:href="#m2a103a9d65" y="55.780587"/>
     <use style="fill-opacity:0;stroke:#dc143c;stroke-linejoin:miter;" x="239.698951" xlink:href="#m2a103a9d65" y="68.186587"/>
     <use style="fill-opacity:0;stroke:#dc143c;stroke-linejoin:miter;" x="242.310839" xlink:href="#m2a103a9d65" y="47.191819"/>
     <use style="fill-opacity:0;stroke:#dc143c;stroke-linejoin:miter;" x="243.616783" xlink:href="#m2a103a9d65" y="67.423141"/>
     <use style="fill-opacity:0;stroke:#dc143c;stroke-linejoin:miter;" x="244.922727" xlink:href="#m2a103a9d65" y="51.199911"/>
     <use style="fill-opacity:0;stroke:#dc143c;stroke-linejoin:miter;" x="247.534615" xlink:href="#m2a103a9d65" y="56.544033"/>
     <use style="fill-opacity:0;stroke:#dc143c;stroke-linejoin:miter;" x="248.840559" xlink:href="#m2a103a9d65" y="53.871972"/>
     <use style="fill-opacity:0;stroke:#dc143c;stroke-linejoin:miter;" x="251.452448" xlink:href="#m2a103a9d65" y="69.331756"/>
     <use style="fill-opacity:0;stroke:#dc143c;stroke-linejoin:miter;" x="252.758392" xlink:href="#m2a103a9d65" y="62.842464"/>
     <use style="fill-opacity:0;stroke:#dc143c;stroke-linejoin:miter;" x="254.064336" xlink:href="#m2a103a9d65" y="52.34508"/>
     <use style="fill-opacity:0;stroke:#dc143c;stroke-linejoin:miter;" x="256.676224" xlink:href="#m2a103a9d65" y="68.186587"/>
     <use style="fill-opacity:0;stroke:#dc143c;stroke-linejoin:miter;" x="259.288112" xlink:href="#m2a103a9d65" y="69.140894"/>
    </g>
   </g>
   <g id="patch_13">
    <path d="M 193.990909 82.944 
L 193.990909 17.28 
" style="fill:none;stroke:#000000;stroke-linecap:square;stroke-linejoin:miter;stroke-width:0.8;"/>
   </g>
   <g id="patch_14">
    <path d="M 261.9 82.944 
L 261.9 17.28 
" style="fill:none;stroke:#000000;stroke-linecap:square;stroke-linejoin:miter;stroke-width:0.8;"/>
   </g>
   <g id="patch_15">
    <path d="M 193.990909 82.944 
L 261.9 82.944 
" style="fill:none;stroke:#000000;stroke-linecap:square;stroke-linejoin:miter;stroke-width:0.8;"/>
   </g>
   <g id="patch_16">
    <path d="M 193.990909 17.28 
L 261.9 17.28 
" style="fill:none;stroke:#000000;stroke-linecap:square;stroke-linejoin:miter;stroke-width:0.8;"/>
   </g>
  </g>
 </g>
 <defs>
  <clipPath id="p050ceb9a75">
   <rect height="65.664" width="67.909091" x="37.8" y="17.28"/>
  </clipPath>
  <clipPath id="p0dcbe5279e">
   <rect height="65.664" width="67.909091" x="115.895455" y="17.28"/>
  </clipPath>
  <clipPath id="p0cea2292e5">
   <rect height="65.664" width="67.909091" x="193.990909" y="17.28"/>
  </clipPath>
 </defs>
</svg>
