<?xml version="1.0" encoding="utf-8" standalone="no"?>
<!DOCTYPE svg PUBLIC "-//W3C//DTD SVG 1.1//EN"
  "http://www.w3.org/Graphics/SVG/1.1/DTD/svg11.dtd">
<svg height="180pt" version="1.1" viewBox="0 0 180 180" width="180pt" xmlns="http://www.w3.org/2000/svg" xmlns:xlink="http://www.w3.org/1999/xlink">
 <metadata>
  <rdf:RDF xmlns:cc="http://creativecommons.org/ns#" xmlns:dc="http://purl.org/dc/elements/1.1/" xmlns:rdf="http://www.w3.org/1999/02/22-rdf-syntax-ns#">
   <cc:Work>
    <dc:type rdf:resource="http://purl.org/dc/dcmitype/StillImage"/>
    <dc:date>2022-03-27T14:10:19.507529</dc:date>
    <dc:format>image/svg+xml</dc:format>
    <dc:creator>
     <cc:Agent>
      <dc:title>Matplotlib v3.4.3, https://matplotlib.org/</dc:title>
     </cc:Agent>
    </dc:creator>
   </cc:Work>
  </rdf:RDF>
 </metadata>
 <defs>
  <style type="text/css">*{stroke-linecap:butt;stroke-linejoin:round;}</style>
 </defs>
 <g id="figure_1">
  <g id="patch_1">
   <path d="M 0 180 
L 180 180 
L 180 0 
L 0 0 
z
" style="fill:none;"/>
  </g>
  <g id="axes_1">
   <g id="patch_2">
    <path d="M 154.324387 83.61336 
C 154.324387 75.364355 152.699513 67.19556 149.542755 59.574473 
C 146.385997 51.953385 141.758747 45.028216 135.925819 39.195288 
C 130.092891 33.36236 123.167722 28.73511 115.546634 25.578352 
C 107.925547 22.421595 99.756752 20.79672 91.507747 20.79672 
C 83.258741 20.79672 75.089947 22.421595 67.46886 25.578352 
C 59.847772 28.73511 52.922603 33.36236 47.089675 39.195288 
C 41.256747 45.028216 36.629497 51.953385 33.472739 59.574473 
C 30.315981 67.19556 28.691107 75.364355 28.691107 83.61336 
C 28.691107 91.862366 30.315981 100.03116 33.472739 107.652247 
C 36.629497 115.273335 41.256747 122.198504 47.089675 128.031432 
C 52.922603 133.86436 59.847772 138.49161 67.46886 141.648368 
C 75.089947 144.805126 83.258741 146.43 91.507747 146.43 
C 99.756752 146.43 107.925547 144.805126 115.546634 141.648368 
C 123.167722 138.49161 130.092891 133.86436 135.925819 128.031432 
C 141.758747 122.198504 146.385997 115.273335 149.542755 107.652247 
C 152.699513 100.03116 154.324387 91.862366 154.324387 83.61336 
M 91.507747 83.61336 
C 91.507747 83.61336 91.507747 83.61336 91.507747 83.61336 
C 91.507747 83.61336 91.507747 83.61336 91.507747 83.61336 
C 91.507747 83.61336 91.507747 83.61336 91.507747 83.61336 
C 91.507747 83.61336 91.507747 83.61336 91.507747 83.61336 
C 91.507747 83.61336 91.507747 83.61336 91.507747 83.61336 
C 91.507747 83.61336 91.507747 83.61336 91.507747 83.61336 
C 91.507747 83.61336 91.507747 83.61336 91.507747 83.61336 
C 91.507747 83.61336 91.507747 83.61336 91.507747 83.61336 
C 91.507747 83.61336 91.507747 83.61336 91.507747 83.61336 
C 91.507747 83.61336 91.507747 83.61336 91.507747 83.61336 
C 91.507747 83.61336 91.507747 83.61336 91.507747 83.61336 
C 91.507747 83.61336 91.507747 83.61336 91.507747 83.61336 
C 91.507747 83.61336 91.507747 83.61336 91.507747 83.61336 
C 91.507747 83.61336 91.507747 83.61336 91.507747 83.61336 
C 91.507747 83.61336 91.507747 83.61336 91.507747 83.61336 
C 91.507747 83.61336 91.507747 83.61336 91.507747 83.61336 
M 154.324387 83.61336 
z
" style="fill:none;"/>
   </g>
   <g id="matplotlib.axis_1">
    <g id="xtick_1">
     <g id="line2d_1">
      <path clip-path="url(#pf78b9ee19c)" d="M 91.507747 83.61336 
L 154.324387 83.61336 
" style="fill:none;stroke:#b0b0b0;stroke-linecap:square;stroke-width:0.8;"/>
     </g>
    </g>
    <g id="xtick_2">
     <g id="line2d_2">
      <path clip-path="url(#pf78b9ee19c)" d="M 91.507747 83.61336 
L 131.885505 35.493022 
" style="fill:none;stroke:#b0b0b0;stroke-linecap:square;stroke-width:0.8;"/>
     </g>
    </g>
    <g id="xtick_3">
     <g id="line2d_3">
      <path clip-path="url(#pf78b9ee19c)" d="M 91.507747 83.61336 
L 80.599752 21.751046 
" style="fill:none;stroke:#b0b0b0;stroke-linecap:square;stroke-width:0.8;"/>
     </g>
    </g>
    <g id="xtick_4">
     <g id="line2d_4">
      <path clip-path="url(#pf78b9ee19c)" d="M 91.507747 83.61336 
L 37.106941 52.20504 
" style="fill:none;stroke:#b0b0b0;stroke-linecap:square;stroke-width:0.8;"/>
     </g>
    </g>
    <g id="xtick_5">
     <g id="line2d_5">
      <path clip-path="url(#pf78b9ee19c)" d="M 91.507747 83.61336 
L 32.479414 105.097916 
" style="fill:none;stroke:#b0b0b0;stroke-linecap:square;stroke-width:0.8;"/>
     </g>
    </g>
    <g id="xtick_6">
     <g id="line2d_6">
      <path clip-path="url(#pf78b9ee19c)" d="M 91.507747 83.61336 
L 70.023191 142.641693 
" style="fill:none;stroke:#b0b0b0;stroke-linecap:square;stroke-width:0.8;"/>
     </g>
    </g>
    <g id="xtick_7">
     <g id="line2d_7">
      <path clip-path="url(#pf78b9ee19c)" d="M 91.507747 83.61336 
L 122.916067 138.014166 
" style="fill:none;stroke:#b0b0b0;stroke-linecap:square;stroke-width:0.8;"/>
     </g>
    </g>
   </g>
   <g id="matplotlib.axis_2">
    <g id="ytick_1">
     <g id="line2d_8">
      <path clip-path="url(#pf78b9ee19c)" d="M 91.507747 83.61336 
C 91.507747 83.61336 91.507747 83.61336 91.507747 83.61336 
C 91.507747 83.61336 91.507747 83.61336 91.507747 83.61336 
C 91.507747 83.61336 91.507747 83.61336 91.507747 83.61336 
C 91.507747 83.61336 91.507747 83.61336 91.507747 83.61336 
C 91.507747 83.61336 91.507747 83.61336 91.507747 83.61336 
C 91.507747 83.61336 91.507747 83.61336 91.507747 83.61336 
C 91.507747 83.61336 91.507747 83.61336 91.507747 83.61336 
C 91.507747 83.61336 91.507747 83.61336 91.507747 83.61336 
C 91.507747 83.61336 91.507747 83.61336 91.507747 83.61336 
C 91.507747 83.61336 91.507747 83.61336 91.507747 83.61336 
C 91.507747 83.61336 91.507747 83.61336 91.507747 83.61336 
C 91.507747 83.61336 91.507747 83.61336 91.507747 83.61336 
C 91.507747 83.61336 91.507747 83.61336 91.507747 83.61336 
C 91.507747 83.61336 91.507747 83.61336 91.507747 83.61336 
C 91.507747 83.61336 91.507747 83.61336 91.507747 83.61336 
C 91.507747 83.61336 91.507747 83.61336 91.507747 83.61336 
" style="fill:none;stroke:#b0b0b0;stroke-linecap:square;stroke-width:0.8;"/>
     </g>
    </g>
    <g id="ytick_2">
     <g id="line2d_9">
      <path clip-path="url(#pf78b9ee19c)" d="M 103.472821 83.61336 
C 103.472821 82.042121 103.163321 80.48616 102.562034 79.034524 
C 101.960747 77.582889 101.079366 76.263809 99.968332 75.152775 
C 98.857298 74.041741 97.538218 73.16036 96.086583 72.559073 
C 94.634947 71.957786 93.078986 71.648286 91.507747 71.648286 
C 89.936508 71.648286 88.380547 71.957786 86.928911 72.559073 
C 85.477276 73.16036 84.158196 74.041741 83.047162 75.152775 
C 81.936128 76.263809 81.054747 77.582889 80.45346 79.034524 
C 79.852173 80.48616 79.542673 82.042121 79.542673 83.61336 
C 79.542673 85.184599 79.852173 86.74056 80.45346 88.192196 
C 81.054747 89.643832 81.936128 90.962911 83.047162 92.073945 
C 84.158196 93.184979 85.477276 94.06636 86.928911 94.667647 
C 88.380547 95.268935 89.936508 95.578434 91.507747 95.578434 
C 93.078986 95.578434 94.634947 95.268935 96.086583 94.667647 
C 97.538218 94.06636 98.857298 93.184979 99.968332 92.073945 
C 101.079366 90.962911 101.960747 89.643832 102.562034 88.192196 
C 103.163321 86.74056 103.472821 85.184599 103.472821 83.61336 
" style="fill:none;stroke:#b0b0b0;stroke-linecap:square;stroke-width:0.8;"/>
     </g>
    </g>
    <g id="ytick_3">
     <g id="line2d_10">
      <path clip-path="url(#pf78b9ee19c)" d="M 115.437895 83.61336 
C 115.437895 80.470882 114.818896 77.35896 113.616321 74.455689 
C 112.413747 71.552417 110.650985 68.914258 108.428917 66.69219 
C 106.206849 64.470122 103.56869 62.70736 100.665418 61.504786 
C 97.762147 60.302211 94.650225 59.683212 91.507747 59.683212 
C 88.365269 59.683212 85.253347 60.302211 82.350076 61.504786 
C 79.446804 62.70736 76.808644 64.470122 74.586577 66.69219 
C 72.364509 68.914258 70.601747 71.552417 69.399172 74.455689 
C 68.196598 77.35896 67.577598 80.470882 67.577598 83.61336 
C 67.577598 86.755838 68.196598 89.86776 69.399172 92.771032 
C 70.601747 95.674303 72.364509 98.312463 74.586577 100.53453 
C 76.808644 102.756598 79.446804 104.51936 82.350076 105.721935 
C 85.253347 106.924509 88.365269 107.543509 91.507747 107.543509 
C 94.650225 107.543509 97.762147 106.924509 100.665418 105.721935 
C 103.56869 104.51936 106.206849 102.756598 108.428917 100.53453 
C 110.650985 98.312463 112.413747 95.674303 113.616321 92.771032 
C 114.818896 89.86776 115.437895 86.755838 115.437895 83.61336 
" style="fill:none;stroke:#b0b0b0;stroke-linecap:square;stroke-width:0.8;"/>
     </g>
    </g>
    <g id="ytick_4">
     <g id="line2d_11">
      <path clip-path="url(#pf78b9ee19c)" d="M 127.40297 83.61336 
C 127.40297 78.899643 126.47447 74.23176 124.670609 69.876853 
C 122.866747 65.521946 120.222604 61.564706 116.889502 58.231605 
C 113.556401 54.898503 109.599161 52.25436 105.244254 50.450498 
C 100.889347 48.646637 96.221464 47.718137 91.507747 47.718137 
C 86.794029 47.718137 82.126147 48.646637 77.77124 50.450498 
C 73.416333 52.25436 69.459093 54.898503 66.125991 58.231605 
C 62.79289 61.564706 60.148747 65.521946 58.344885 69.876853 
C 56.541024 74.23176 55.612524 78.899643 55.612524 83.61336 
C 55.612524 88.327078 56.541024 92.99496 58.344885 97.349867 
C 60.148747 101.704774 62.79289 105.662014 66.125991 108.995116 
C 69.459093 112.328217 73.416333 114.97236 77.77124 116.776222 
C 82.126147 118.580083 86.794029 119.508583 91.507747 119.508583 
C 96.221464 119.508583 100.889347 118.580083 105.244254 116.776222 
C 109.599161 114.97236 113.556401 112.328217 116.889502 108.995116 
C 120.222604 105.662014 122.866747 101.704774 124.670609 97.349867 
C 126.47447 92.99496 127.40297 88.327078 127.40297 83.61336 
" style="fill:none;stroke:#b0b0b0;stroke-linecap:square;stroke-width:0.8;"/>
     </g>
    </g>
    <g id="ytick_5">
     <g id="line2d_12">
      <path clip-path="url(#pf78b9ee19c)" d="M 139.368044 83.61336 
C 139.368044 77.328404 138.130045 71.10456 135.724896 65.298017 
C 133.319747 59.491475 129.794223 54.215155 125.350087 49.77102 
C 120.905952 45.326884 115.629632 41.80136 109.82309 39.396211 
C 104.016547 36.991063 97.792704 35.753063 91.507747 35.753063 
C 85.22279 35.753063 78.998947 36.991063 73.192404 39.396211 
C 67.385861 41.80136 62.109542 45.326884 57.665406 49.77102 
C 53.221271 54.215155 49.695747 59.491475 47.290598 65.298017 
C 44.885449 71.10456 43.64745 77.328404 43.64745 83.61336 
C 43.64745 89.898317 44.885449 96.12216 47.290598 101.928703 
C 49.695747 107.735246 53.221271 113.011565 57.665406 117.455701 
C 62.109542 121.899836 67.385861 125.42536 73.192404 127.830509 
C 78.998947 130.235658 85.22279 131.473657 91.507747 131.473657 
C 97.792704 131.473657 104.016547 130.235658 109.82309 127.830509 
C 115.629632 125.42536 120.905952 121.899836 125.350087 117.455701 
C 129.794223 113.011565 133.319747 107.735246 135.724896 101.928703 
C 138.130045 96.12216 139.368044 89.898317 139.368044 83.61336 
" style="fill:none;stroke:#b0b0b0;stroke-linecap:square;stroke-width:0.8;"/>
     </g>
    </g>
    <g id="ytick_6">
     <g id="line2d_13">
      <path clip-path="url(#pf78b9ee19c)" d="M 151.333118 83.61336 
C 151.333118 75.757164 149.785619 67.97736 146.779183 60.719182 
C 143.772747 53.461003 139.365842 46.865604 133.810673 41.310434 
C 128.255503 35.755265 121.660104 31.34836 114.401925 28.341924 
C 107.143747 25.335488 99.363943 23.787989 91.507747 23.787989 
C 83.651551 23.787989 75.871747 25.335488 68.613568 28.341924 
C 61.35539 31.34836 54.75999 35.755265 49.204821 41.310434 
C 43.649652 46.865604 39.242747 53.461003 36.236311 60.719182 
C 33.229875 67.97736 31.682376 75.757164 31.682376 83.61336 
C 31.682376 91.469556 33.229875 99.24936 36.236311 106.507539 
C 39.242747 113.765717 43.649652 120.361117 49.204821 125.916286 
C 54.75999 131.471455 61.35539 135.87836 68.613568 138.884796 
C 75.871747 141.891232 83.651551 143.438731 91.507747 143.438731 
C 99.363943 143.438731 107.143747 141.891232 114.401925 138.884796 
C 121.660104 135.87836 128.255503 131.471455 133.810673 125.916286 
C 139.365842 120.361117 143.772747 113.765717 146.779183 106.507539 
C 149.785619 99.24936 151.333118 91.469556 151.333118 83.61336 
" style="fill:none;stroke:#b0b0b0;stroke-linecap:square;stroke-width:0.8;"/>
     </g>
    </g>
   </g>
   <g id="line2d_14">
    <path clip-path="url(#pf78b9ee19c)" d="M 120.223925 83.61336 
L 129.2143 76.964677 
L 129.73562 69.699552 
L 124.666333 64.469241 
L 124.50455 55.925755 
L 120.733553 48.783401 
L 116.634403 40.092715 
L 105.421555 45.385487 
L 98.987515 41.193488 
L 91.507747 35.753063 
L 83.612436 38.836828 
L 74.320102 36.390694 
L 66.381091 40.092715 
L 60.743741 46.950246 
L 47.512009 46.696553 
L 43.842279 56.093689 
L 44.285081 66.425715 
L 39.661236 74.471421 
L 36.468405 83.61336 
L 32.591257 94.001927 
L 39.787684 102.437924 
L 47.987102 108.740016 
L 54.844632 114.377366 
L 56.12914 125.775942 
L 66.381091 127.134005 
L 71.046265 139.83082 
L 81.11918 142.52985 
L 91.507747 143.438731 
L 101.896314 142.52985 
L 111.969229 139.83082 
L 121.420433 135.423651 
" style="fill:none;stroke:#1f77b4;stroke-linecap:square;"/>
    <defs>
     <path d="M 0 2 
C 0.530406 2 1.03916 1.789267 1.414214 1.414214 
C 1.789267 1.03916 2 0.530406 2 0 
C 2 -0.530406 1.789267 -1.03916 1.414214 -1.414214 
C 1.03916 -1.789267 0.530406 -2 0 -2 
C -0.530406 -2 -1.03916 -1.789267 -1.414214 -1.414214 
C -1.789267 -1.03916 -2 -0.530406 -2 0 
C -2 0.530406 -1.789267 1.03916 -1.414214 1.414214 
C -1.03916 1.789267 -0.530406 2 0 2 
z
" id="m66293b9178" style="stroke:#1f77b4;"/>
    </defs>
    <g clip-path="url(#pf78b9ee19c)">
     <use style="fill-opacity:0;stroke:#1f77b4;" x="120.223925" xlink:href="#m66293b9178" y="83.61336"/>
     <use style="fill-opacity:0;stroke:#1f77b4;" x="129.2143" xlink:href="#m66293b9178" y="76.964677"/>
     <use style="fill-opacity:0;stroke:#1f77b4;" x="129.73562" xlink:href="#m66293b9178" y="69.699552"/>
     <use style="fill-opacity:0;stroke:#1f77b4;" x="124.666333" xlink:href="#m66293b9178" y="64.469241"/>
     <use style="fill-opacity:0;stroke:#1f77b4;" x="124.50455" xlink:href="#m66293b9178" y="55.925755"/>
     <use style="fill-opacity:0;stroke:#1f77b4;" x="120.733553" xlink:href="#m66293b9178" y="48.783401"/>
     <use style="fill-opacity:0;stroke:#1f77b4;" x="116.634403" xlink:href="#m66293b9178" y="40.092715"/>
     <use style="fill-opacity:0;stroke:#1f77b4;" x="105.421555" xlink:href="#m66293b9178" y="45.385487"/>
     <use style="fill-opacity:0;stroke:#1f77b4;" x="98.987515" xlink:href="#m66293b9178" y="41.193488"/>
     <use style="fill-opacity:0;stroke:#1f77b4;" x="91.507747" xlink:href="#m66293b9178" y="35.753063"/>
     <use style="fill-opacity:0;stroke:#1f77b4;" x="83.612436" xlink:href="#m66293b9178" y="38.836828"/>
     <use style="fill-opacity:0;stroke:#1f77b4;" x="74.320102" xlink:href="#m66293b9178" y="36.390694"/>
     <use style="fill-opacity:0;stroke:#1f77b4;" x="66.381091" xlink:href="#m66293b9178" y="40.092715"/>
     <use style="fill-opacity:0;stroke:#1f77b4;" x="60.743741" xlink:href="#m66293b9178" y="46.950246"/>
     <use style="fill-opacity:0;stroke:#1f77b4;" x="47.512009" xlink:href="#m66293b9178" y="46.696553"/>
     <use style="fill-opacity:0;stroke:#1f77b4;" x="43.842279" xlink:href="#m66293b9178" y="56.093689"/>
     <use style="fill-opacity:0;stroke:#1f77b4;" x="44.285081" xlink:href="#m66293b9178" y="66.425715"/>
     <use style="fill-opacity:0;stroke:#1f77b4;" x="39.661236" xlink:href="#m66293b9178" y="74.471421"/>
     <use style="fill-opacity:0;stroke:#1f77b4;" x="36.468405" xlink:href="#m66293b9178" y="83.61336"/>
     <use style="fill-opacity:0;stroke:#1f77b4;" x="32.591257" xlink:href="#m66293b9178" y="94.001927"/>
     <use style="fill-opacity:0;stroke:#1f77b4;" x="39.787684" xlink:href="#m66293b9178" y="102.437924"/>
     <use style="fill-opacity:0;stroke:#1f77b4;" x="47.987102" xlink:href="#m66293b9178" y="108.740016"/>
     <use style="fill-opacity:0;stroke:#1f77b4;" x="54.844632" xlink:href="#m66293b9178" y="114.377366"/>
     <use style="fill-opacity:0;stroke:#1f77b4;" x="56.12914" xlink:href="#m66293b9178" y="125.775942"/>
     <use style="fill-opacity:0;stroke:#1f77b4;" x="66.381091" xlink:href="#m66293b9178" y="127.134005"/>
     <use style="fill-opacity:0;stroke:#1f77b4;" x="71.046265" xlink:href="#m66293b9178" y="139.83082"/>
     <use style="fill-opacity:0;stroke:#1f77b4;" x="81.11918" xlink:href="#m66293b9178" y="142.52985"/>
     <use style="fill-opacity:0;stroke:#1f77b4;" x="91.507747" xlink:href="#m66293b9178" y="143.438731"/>
     <use style="fill-opacity:0;stroke:#1f77b4;" x="101.896314" xlink:href="#m66293b9178" y="142.52985"/>
     <use style="fill-opacity:0;stroke:#1f77b4;" x="111.969229" xlink:href="#m66293b9178" y="139.83082"/>
     <use style="fill-opacity:0;stroke:#1f77b4;" x="121.420433" xlink:href="#m66293b9178" y="135.423651"/>
    </g>
   </g>
   <g id="line2d_15">
    <path clip-path="url(#pf78b9ee19c)" d="M 120.223925 83.61336 
L 126.857641 77.38022 
L 131.984318 68.881093 
L 130.883568 60.879719 
L 124.50455 55.925755 
L 125.348153 43.283934 
L 120.223925 33.87548 
L 106.240014 43.136789 
L 100.649686 31.766849 
L 91.507747 33.360048 
L 82.365808 31.766849 
L 74.320102 36.390694 
L 68.774106 44.237539 
L 56.12914 41.450778 
L 49.345165 48.234753 
L 43.842279 56.093689 
L 37.538985 63.970337 
L 34.947917 73.640336 
L 31.682376 83.61336 
L 32.591257 94.001927 
L 35.290287 104.074842 
L 43.842279 111.133031 
L 47.512009 120.530167 
L 53.052739 129.442253 
L 62.791569 133.35124 
L 71.046265 139.83082 
L 81.11918 142.52985 
L 91.507747 143.438731 
L 101.896314 142.52985 
L 111.969229 139.83082 
L 120.223925 133.35124 
" style="fill:none;stroke:#ff7f0e;stroke-linecap:square;"/>
    <defs>
     <path d="M 0 -2 
L -2 2 
L 2 2 
z
" id="m0cdda23678" style="stroke:#ff7f0e;stroke-linejoin:miter;"/>
    </defs>
    <g clip-path="url(#pf78b9ee19c)">
     <use style="fill-opacity:0;stroke:#ff7f0e;stroke-linejoin:miter;" x="120.223925" xlink:href="#m0cdda23678" y="83.61336"/>
     <use style="fill-opacity:0;stroke:#ff7f0e;stroke-linejoin:miter;" x="126.857641" xlink:href="#m0cdda23678" y="77.38022"/>
     <use style="fill-opacity:0;stroke:#ff7f0e;stroke-linejoin:miter;" x="131.984318" xlink:href="#m0cdda23678" y="68.881093"/>
     <use style="fill-opacity:0;stroke:#ff7f0e;stroke-linejoin:miter;" x="130.883568" xlink:href="#m0cdda23678" y="60.879719"/>
     <use style="fill-opacity:0;stroke:#ff7f0e;stroke-linejoin:miter;" x="124.50455" xlink:href="#m0cdda23678" y="55.925755"/>
     <use style="fill-opacity:0;stroke:#ff7f0e;stroke-linejoin:miter;" x="125.348153" xlink:href="#m0cdda23678" y="43.283934"/>
     <use style="fill-opacity:0;stroke:#ff7f0e;stroke-linejoin:miter;" x="120.223925" xlink:href="#m0cdda23678" y="33.87548"/>
     <use style="fill-opacity:0;stroke:#ff7f0e;stroke-linejoin:miter;" x="106.240014" xlink:href="#m0cdda23678" y="43.136789"/>
     <use style="fill-opacity:0;stroke:#ff7f0e;stroke-linejoin:miter;" x="100.649686" xlink:href="#m0cdda23678" y="31.766849"/>
     <use style="fill-opacity:0;stroke:#ff7f0e;stroke-linejoin:miter;" x="91.507747" xlink:href="#m0cdda23678" y="33.360048"/>
     <use style="fill-opacity:0;stroke:#ff7f0e;stroke-linejoin:miter;" x="82.365808" xlink:href="#m0cdda23678" y="31.766849"/>
     <use style="fill-opacity:0;stroke:#ff7f0e;stroke-linejoin:miter;" x="74.320102" xlink:href="#m0cdda23678" y="36.390694"/>
     <use style="fill-opacity:0;stroke:#ff7f0e;stroke-linejoin:miter;" x="68.774106" xlink:href="#m0cdda23678" y="44.237539"/>
     <use style="fill-opacity:0;stroke:#ff7f0e;stroke-linejoin:miter;" x="56.12914" xlink:href="#m0cdda23678" y="41.450778"/>
     <use style="fill-opacity:0;stroke:#ff7f0e;stroke-linejoin:miter;" x="49.345165" xlink:href="#m0cdda23678" y="48.234753"/>
     <use style="fill-opacity:0;stroke:#ff7f0e;stroke-linejoin:miter;" x="43.842279" xlink:href="#m0cdda23678" y="56.093689"/>
     <use style="fill-opacity:0;stroke:#ff7f0e;stroke-linejoin:miter;" x="37.538985" xlink:href="#m0cdda23678" y="63.970337"/>
     <use style="fill-opacity:0;stroke:#ff7f0e;stroke-linejoin:miter;" x="34.947917" xlink:href="#m0cdda23678" y="73.640336"/>
     <use style="fill-opacity:0;stroke:#ff7f0e;stroke-linejoin:miter;" x="31.682376" xlink:href="#m0cdda23678" y="83.61336"/>
     <use style="fill-opacity:0;stroke:#ff7f0e;stroke-linejoin:miter;" x="32.591257" xlink:href="#m0cdda23678" y="94.001927"/>
     <use style="fill-opacity:0;stroke:#ff7f0e;stroke-linejoin:miter;" x="35.290287" xlink:href="#m0cdda23678" y="104.074842"/>
     <use style="fill-opacity:0;stroke:#ff7f0e;stroke-linejoin:miter;" x="43.842279" xlink:href="#m0cdda23678" y="111.133031"/>
     <use style="fill-opacity:0;stroke:#ff7f0e;stroke-linejoin:miter;" x="47.512009" xlink:href="#m0cdda23678" y="120.530167"/>
     <use style="fill-opacity:0;stroke:#ff7f0e;stroke-linejoin:miter;" x="53.052739" xlink:href="#m0cdda23678" y="129.442253"/>
     <use style="fill-opacity:0;stroke:#ff7f0e;stroke-linejoin:miter;" x="62.791569" xlink:href="#m0cdda23678" y="133.35124"/>
     <use style="fill-opacity:0;stroke:#ff7f0e;stroke-linejoin:miter;" x="71.046265" xlink:href="#m0cdda23678" y="139.83082"/>
     <use style="fill-opacity:0;stroke:#ff7f0e;stroke-linejoin:miter;" x="81.11918" xlink:href="#m0cdda23678" y="142.52985"/>
     <use style="fill-opacity:0;stroke:#ff7f0e;stroke-linejoin:miter;" x="91.507747" xlink:href="#m0cdda23678" y="143.438731"/>
     <use style="fill-opacity:0;stroke:#ff7f0e;stroke-linejoin:miter;" x="101.896314" xlink:href="#m0cdda23678" y="142.52985"/>
     <use style="fill-opacity:0;stroke:#ff7f0e;stroke-linejoin:miter;" x="111.969229" xlink:href="#m0cdda23678" y="139.83082"/>
     <use style="fill-opacity:0;stroke:#ff7f0e;stroke-linejoin:miter;" x="120.223925" xlink:href="#m0cdda23678" y="133.35124"/>
    </g>
   </g>
   <g id="patch_3">
    <path d="M 154.324387 83.61336 
C 154.324387 75.364355 152.699513 67.19556 149.542755 59.574473 
C 146.385997 51.953385 141.758747 45.028216 135.925819 39.195288 
C 130.092891 33.36236 123.167722 28.73511 115.546634 25.578352 
C 107.925547 22.421595 99.756752 20.79672 91.507747 20.79672 
C 83.258741 20.79672 75.089947 22.421595 67.46886 25.578352 
C 59.847772 28.73511 52.922603 33.36236 47.089675 39.195288 
C 41.256747 45.028216 36.629497 51.953385 33.472739 59.574473 
C 30.315981 67.19556 28.691107 75.364355 28.691107 83.61336 
C 28.691107 91.862366 30.315981 100.03116 33.472739 107.652247 
C 36.629497 115.273335 41.256747 122.198504 47.089675 128.031432 
C 52.922603 133.86436 59.847772 138.49161 67.46886 141.648368 
C 75.089947 144.805126 83.258741 146.43 91.507747 146.43 
C 99.756752 146.43 107.925547 144.805126 115.546634 141.648368 
C 123.167722 138.49161 130.092891 133.86436 135.925819 128.031432 
C 141.758747 122.198504 146.385997 115.273335 149.542755 107.652247 
C 152.699513 100.03116 154.324387 91.862366 154.324387 83.61336 
" style="fill:none;"/>
   </g>
   <g id="text_1">
    <!-- 0 -->
    <g transform="translate(154.688413 86.403086)scale(0.08 -0.08)">
     <defs>
      <path d="M 2034 4250 
Q 1547 4250 1301 3770 
Q 1056 3291 1056 2328 
Q 1056 1369 1301 889 
Q 1547 409 2034 409 
Q 2525 409 2770 889 
Q 3016 1369 3016 2328 
Q 3016 3291 2770 3770 
Q 2525 4250 2034 4250 
z
M 2034 4750 
Q 2819 4750 3233 4129 
Q 3647 3509 3647 2328 
Q 3647 1150 3233 529 
Q 2819 -91 2034 -91 
Q 1250 -91 836 529 
Q 422 1150 422 2328 
Q 422 3509 836 4129 
Q 1250 4750 2034 4750 
z
" id="DejaVuSans-30" transform="scale(0.015625)"/>
     </defs>
     <use xlink:href="#DejaVuSans-30"/>
    </g>
   </g>
   <g id="text_2">
    <!-- 5 -->
    <g transform="translate(133.161359 33.120467)scale(0.08 -0.08)">
     <defs>
      <path d="M 691 4666 
L 3169 4666 
L 3169 4134 
L 1269 4134 
L 1269 2991 
Q 1406 3038 1543 3061 
Q 1681 3084 1819 3084 
Q 2600 3084 3056 2656 
Q 3513 2228 3513 1497 
Q 3513 744 3044 326 
Q 2575 -91 1722 -91 
Q 1428 -91 1123 -41 
Q 819 9 494 109 
L 494 744 
Q 775 591 1075 516 
Q 1375 441 1709 441 
Q 2250 441 2565 725 
Q 2881 1009 2881 1497 
Q 2881 1984 2565 2268 
Q 2250 2553 1709 2553 
Q 1456 2553 1204 2497 
Q 953 2441 691 2322 
L 691 4666 
z
" id="DejaVuSans-35" transform="scale(0.015625)"/>
     </defs>
     <use xlink:href="#DejaVuSans-35"/>
    </g>
   </g>
   <g id="text_3">
    <!-- 10 -->
    <g transform="translate(73.743696 17.813993)scale(0.08 -0.08)">
     <defs>
      <path d="M 794 531 
L 1825 531 
L 1825 4091 
L 703 3866 
L 703 4441 
L 1819 4666 
L 2450 4666 
L 2450 531 
L 3481 531 
L 3481 0 
L 794 0 
L 794 531 
z
" id="DejaVuSans-31" transform="scale(0.015625)"/>
     </defs>
     <use xlink:href="#DejaVuSans-31"/>
     <use x="63.623047" xlink:href="#DejaVuSans-30"/>
    </g>
   </g>
   <g id="text_4">
    <!-- 15 -->
    <g transform="translate(26.209213 50.592231)scale(0.08 -0.08)">
     <use xlink:href="#DejaVuSans-31"/>
     <use x="63.623047" xlink:href="#DejaVuSans-35"/>
    </g>
   </g>
   <g id="text_5">
    <!-- 20 -->
    <g transform="translate(20.283733 108.655733)scale(0.08 -0.08)">
     <defs>
      <path d="M 1228 531 
L 3431 531 
L 3431 0 
L 469 0 
L 469 531 
Q 828 903 1448 1529 
Q 2069 2156 2228 2338 
Q 2531 2678 2651 2914 
Q 2772 3150 2772 3378 
Q 2772 3750 2511 3984 
Q 2250 4219 1831 4219 
Q 1534 4219 1204 4116 
Q 875 4013 500 3803 
L 500 4441 
Q 881 4594 1212 4672 
Q 1544 4750 1819 4750 
Q 2544 4750 2975 4387 
Q 3406 4025 3406 3419 
Q 3406 3131 3298 2873 
Q 3191 2616 2906 2266 
Q 2828 2175 2409 1742 
Q 1991 1309 1228 531 
z
" id="DejaVuSans-32" transform="scale(0.015625)"/>
     </defs>
     <use xlink:href="#DejaVuSans-32"/>
     <use x="63.623047" xlink:href="#DejaVuSans-30"/>
    </g>
   </g>
   <g id="text_6">
    <!-- 25 -->
    <g transform="translate(60.776267 151.596119)scale(0.08 -0.08)">
     <use xlink:href="#DejaVuSans-32"/>
     <use x="63.623047" xlink:href="#DejaVuSans-35"/>
    </g>
   </g>
   <g id="text_7">
    <!-- 30 -->
    <g transform="translate(126.856889 145.351814)scale(0.08 -0.08)">
     <defs>
      <path d="M 2597 2516 
Q 3050 2419 3304 2112 
Q 3559 1806 3559 1356 
Q 3559 666 3084 287 
Q 2609 -91 1734 -91 
Q 1441 -91 1130 -33 
Q 819 25 488 141 
L 488 750 
Q 750 597 1062 519 
Q 1375 441 1716 441 
Q 2309 441 2620 675 
Q 2931 909 2931 1356 
Q 2931 1769 2642 2001 
Q 2353 2234 1838 2234 
L 1294 2234 
L 1294 2753 
L 1863 2753 
Q 2328 2753 2575 2939 
Q 2822 3125 2822 3475 
Q 2822 3834 2567 4026 
Q 2313 4219 1838 4219 
Q 1578 4219 1281 4162 
Q 984 4106 628 3988 
L 628 4550 
Q 988 4650 1302 4700 
Q 1616 4750 1894 4750 
Q 2613 4750 3031 4423 
Q 3450 4097 3450 3541 
Q 3450 3153 3228 2886 
Q 3006 2619 2597 2516 
z
" id="DejaVuSans-33" transform="scale(0.015625)"/>
     </defs>
     <use xlink:href="#DejaVuSans-33"/>
     <use x="63.623047" xlink:href="#DejaVuSans-30"/>
    </g>
   </g>
   <g id="legend_1">
    <g id="line2d_16">
     <path d="M 27.458137 159.461664 
L 45.458137 159.461664 
" style="fill:none;stroke:#1f77b4;stroke-linecap:square;"/>
    </g>
    <g id="line2d_17">
     <g>
      <use style="fill-opacity:0;stroke:#1f77b4;" x="36.458137" xlink:href="#m66293b9178" y="159.461664"/>
     </g>
    </g>
    <g id="text_8">
     <!-- Legitimate -->
     <g transform="translate(46.358137 162.611664)scale(0.09 -0.09)">
      <defs>
       <path d="M 3669 1172 
L 3772 1150 
L 3409 0 
L 128 0 
L 128 116 
L 288 116 
Q 556 116 672 291 
Q 738 391 738 753 
L 738 3488 
Q 738 3884 650 3984 
Q 528 4122 288 4122 
L 128 4122 
L 128 4238 
L 2047 4238 
L 2047 4122 
Q 1709 4125 1573 4059 
Q 1438 3994 1388 3894 
Q 1338 3794 1338 3416 
L 1338 753 
Q 1338 494 1388 397 
Q 1425 331 1503 300 
Q 1581 269 1991 269 
L 2300 269 
Q 2788 269 2984 341 
Q 3181 413 3343 595 
Q 3506 778 3669 1172 
z
" id="TimesNewRomanPSMT-4c" transform="scale(0.015625)"/>
       <path d="M 681 1784 
Q 678 1147 991 784 
Q 1303 422 1725 422 
Q 2006 422 2214 576 
Q 2422 731 2563 1106 
L 2659 1044 
Q 2594 616 2278 264 
Q 1963 -88 1488 -88 
Q 972 -88 605 314 
Q 238 716 238 1394 
Q 238 2128 614 2539 
Q 991 2950 1559 2950 
Q 2041 2950 2350 2633 
Q 2659 2316 2659 1784 
L 681 1784 
z
M 681 1966 
L 2006 1966 
Q 1991 2241 1941 2353 
Q 1863 2528 1708 2628 
Q 1553 2728 1384 2728 
Q 1125 2728 920 2526 
Q 716 2325 681 1966 
z
" id="TimesNewRomanPSMT-65" transform="scale(0.015625)"/>
       <path d="M 966 1044 
Q 703 1172 562 1401 
Q 422 1631 422 1909 
Q 422 2334 742 2640 
Q 1063 2947 1563 2947 
Q 1972 2947 2272 2747 
L 2878 2747 
Q 3013 2747 3034 2739 
Q 3056 2731 3066 2713 
Q 3084 2684 3084 2613 
Q 3084 2531 3069 2500 
Q 3059 2484 3036 2475 
Q 3013 2466 2878 2466 
L 2506 2466 
Q 2681 2241 2681 1891 
Q 2681 1491 2375 1206 
Q 2069 922 1553 922 
Q 1341 922 1119 984 
Q 981 866 932 777 
Q 884 688 884 625 
Q 884 572 936 522 
Q 988 472 1138 450 
Q 1225 438 1575 428 
Q 2219 413 2409 384 
Q 2700 344 2873 169 
Q 3047 -6 3047 -263 
Q 3047 -616 2716 -925 
Q 2228 -1381 1444 -1381 
Q 841 -1381 425 -1109 
Q 191 -953 191 -784 
Q 191 -709 225 -634 
Q 278 -519 444 -313 
Q 466 -284 763 25 
Q 600 122 533 198 
Q 466 275 466 372 
Q 466 481 555 628 
Q 644 775 966 1044 
z
M 1509 2797 
Q 1278 2797 1122 2612 
Q 966 2428 966 2047 
Q 966 1553 1178 1281 
Q 1341 1075 1591 1075 
Q 1828 1075 1981 1253 
Q 2134 1431 2134 1813 
Q 2134 2309 1919 2591 
Q 1759 2797 1509 2797 
z
M 934 0 
Q 788 -159 713 -296 
Q 638 -434 638 -550 
Q 638 -700 819 -813 
Q 1131 -1006 1722 -1006 
Q 2284 -1006 2551 -807 
Q 2819 -609 2819 -384 
Q 2819 -222 2659 -153 
Q 2497 -84 2016 -72 
Q 1313 -53 934 0 
z
" id="TimesNewRomanPSMT-67" transform="scale(0.015625)"/>
       <path d="M 928 4444 
Q 1059 4444 1151 4351 
Q 1244 4259 1244 4128 
Q 1244 3997 1151 3903 
Q 1059 3809 928 3809 
Q 797 3809 703 3903 
Q 609 3997 609 4128 
Q 609 4259 701 4351 
Q 794 4444 928 4444 
z
M 1188 2947 
L 1188 647 
Q 1188 378 1227 289 
Q 1266 200 1342 156 
Q 1419 113 1622 113 
L 1622 0 
L 231 0 
L 231 113 
Q 441 113 512 153 
Q 584 194 626 287 
Q 669 381 669 647 
L 669 1750 
Q 669 2216 641 2353 
Q 619 2453 572 2492 
Q 525 2531 444 2531 
Q 356 2531 231 2484 
L 188 2597 
L 1050 2947 
L 1188 2947 
z
" id="TimesNewRomanPSMT-69" transform="scale(0.015625)"/>
       <path d="M 1031 3803 
L 1031 2863 
L 1700 2863 
L 1700 2644 
L 1031 2644 
L 1031 788 
Q 1031 509 1111 412 
Q 1191 316 1316 316 
Q 1419 316 1516 380 
Q 1613 444 1666 569 
L 1788 569 
Q 1678 263 1478 108 
Q 1278 -47 1066 -47 
Q 922 -47 784 33 
Q 647 113 581 261 
Q 516 409 516 719 
L 516 2644 
L 63 2644 
L 63 2747 
Q 234 2816 414 2980 
Q 594 3144 734 3369 
Q 806 3488 934 3803 
L 1031 3803 
z
" id="TimesNewRomanPSMT-74" transform="scale(0.015625)"/>
       <path d="M 1050 2338 
Q 1363 2650 1419 2697 
Q 1559 2816 1721 2881 
Q 1884 2947 2044 2947 
Q 2313 2947 2506 2790 
Q 2700 2634 2766 2338 
Q 3088 2713 3309 2830 
Q 3531 2947 3766 2947 
Q 3994 2947 4170 2830 
Q 4347 2713 4450 2447 
Q 4519 2266 4519 1878 
L 4519 647 
Q 4519 378 4559 278 
Q 4591 209 4675 161 
Q 4759 113 4950 113 
L 4950 0 
L 3538 0 
L 3538 113 
L 3597 113 
Q 3781 113 3884 184 
Q 3956 234 3988 344 
Q 4000 397 4000 647 
L 4000 1878 
Q 4000 2228 3916 2372 
Q 3794 2572 3525 2572 
Q 3359 2572 3192 2489 
Q 3025 2406 2788 2181 
L 2781 2147 
L 2788 2013 
L 2788 647 
Q 2788 353 2820 281 
Q 2853 209 2943 161 
Q 3034 113 3253 113 
L 3253 0 
L 1806 0 
L 1806 113 
Q 2044 113 2133 169 
Q 2222 225 2256 338 
Q 2272 391 2272 647 
L 2272 1878 
Q 2272 2228 2169 2381 
Q 2031 2581 1784 2581 
Q 1616 2581 1450 2491 
Q 1191 2353 1050 2181 
L 1050 647 
Q 1050 366 1089 281 
Q 1128 197 1204 155 
Q 1281 113 1516 113 
L 1516 0 
L 100 0 
L 100 113 
Q 297 113 375 155 
Q 453 197 493 289 
Q 534 381 534 647 
L 534 1741 
Q 534 2213 506 2350 
Q 484 2453 437 2492 
Q 391 2531 309 2531 
Q 222 2531 100 2484 
L 53 2597 
L 916 2947 
L 1050 2947 
L 1050 2338 
z
" id="TimesNewRomanPSMT-6d" transform="scale(0.015625)"/>
       <path d="M 1822 413 
Q 1381 72 1269 19 
Q 1100 -59 909 -59 
Q 613 -59 420 144 
Q 228 347 228 678 
Q 228 888 322 1041 
Q 450 1253 767 1440 
Q 1084 1628 1822 1897 
L 1822 2009 
Q 1822 2438 1686 2597 
Q 1550 2756 1291 2756 
Q 1094 2756 978 2650 
Q 859 2544 859 2406 
L 866 2225 
Q 866 2081 792 2003 
Q 719 1925 600 1925 
Q 484 1925 411 2006 
Q 338 2088 338 2228 
Q 338 2497 613 2722 
Q 888 2947 1384 2947 
Q 1766 2947 2009 2819 
Q 2194 2722 2281 2516 
Q 2338 2381 2338 1966 
L 2338 994 
Q 2338 584 2353 492 
Q 2369 400 2405 369 
Q 2441 338 2488 338 
Q 2538 338 2575 359 
Q 2641 400 2828 588 
L 2828 413 
Q 2478 -56 2159 -56 
Q 2006 -56 1915 50 
Q 1825 156 1822 413 
z
M 1822 616 
L 1822 1706 
Q 1350 1519 1213 1441 
Q 966 1303 859 1153 
Q 753 1003 753 825 
Q 753 600 887 451 
Q 1022 303 1197 303 
Q 1434 303 1822 616 
z
" id="TimesNewRomanPSMT-61" transform="scale(0.015625)"/>
      </defs>
      <use xlink:href="#TimesNewRomanPSMT-4c"/>
      <use x="61.083984" xlink:href="#TimesNewRomanPSMT-65"/>
      <use x="105.46875" xlink:href="#TimesNewRomanPSMT-67"/>
      <use x="155.46875" xlink:href="#TimesNewRomanPSMT-69"/>
      <use x="183.251953" xlink:href="#TimesNewRomanPSMT-74"/>
      <use x="211.035156" xlink:href="#TimesNewRomanPSMT-69"/>
      <use x="238.818359" xlink:href="#TimesNewRomanPSMT-6d"/>
      <use x="316.601562" xlink:href="#TimesNewRomanPSMT-61"/>
      <use x="360.986328" xlink:href="#TimesNewRomanPSMT-74"/>
      <use x="388.769531" xlink:href="#TimesNewRomanPSMT-65"/>
     </g>
    </g>
    <g id="line2d_18">
     <path d="M 89.842199 159.461664 
L 107.842199 159.461664 
" style="fill:none;stroke:#ff7f0e;stroke-linecap:square;"/>
    </g>
    <g id="line2d_19">
     <g>
      <use style="fill-opacity:0;stroke:#ff7f0e;stroke-linejoin:miter;" x="98.842199" xlink:href="#m0cdda23678" y="159.461664"/>
     </g>
    </g>
    <g id="text_9">
     <!-- Adversarial -->
     <g transform="translate(108.742199 162.611664)scale(0.09 -0.09)">
      <defs>
       <path d="M 2928 1419 
L 1288 1419 
L 1000 750 
Q 894 503 894 381 
Q 894 284 986 211 
Q 1078 138 1384 116 
L 1384 0 
L 50 0 
L 50 116 
Q 316 163 394 238 
Q 553 388 747 847 
L 2238 4334 
L 2347 4334 
L 3822 809 
Q 4000 384 4145 257 
Q 4291 131 4550 116 
L 4550 0 
L 2878 0 
L 2878 116 
Q 3131 128 3220 200 
Q 3309 272 3309 375 
Q 3309 513 3184 809 
L 2928 1419 
z
M 2841 1650 
L 2122 3363 
L 1384 1650 
L 2841 1650 
z
" id="TimesNewRomanPSMT-41" transform="scale(0.015625)"/>
       <path d="M 2222 322 
Q 2013 103 1813 7 
Q 1613 -88 1381 -88 
Q 913 -88 563 304 
Q 213 697 213 1313 
Q 213 1928 600 2439 
Q 988 2950 1597 2950 
Q 1975 2950 2222 2709 
L 2222 3238 
Q 2222 3728 2198 3840 
Q 2175 3953 2125 3993 
Q 2075 4034 2000 4034 
Q 1919 4034 1784 3984 
L 1744 4094 
L 2597 4444 
L 2738 4444 
L 2738 1134 
Q 2738 631 2761 520 
Q 2784 409 2836 365 
Q 2888 322 2956 322 
Q 3041 322 3181 375 
L 3216 266 
L 2366 -88 
L 2222 -88 
L 2222 322 
z
M 2222 541 
L 2222 2016 
Q 2203 2228 2109 2403 
Q 2016 2578 1861 2667 
Q 1706 2756 1559 2756 
Q 1284 2756 1069 2509 
Q 784 2184 784 1559 
Q 784 928 1059 592 
Q 1334 256 1672 256 
Q 1956 256 2222 541 
z
" id="TimesNewRomanPSMT-64" transform="scale(0.015625)"/>
       <path d="M 53 2863 
L 1400 2863 
L 1400 2747 
L 1313 2747 
Q 1191 2747 1127 2687 
Q 1063 2628 1063 2528 
Q 1063 2419 1128 2269 
L 1794 688 
L 2463 2328 
Q 2534 2503 2534 2594 
Q 2534 2638 2509 2666 
Q 2475 2713 2422 2730 
Q 2369 2747 2206 2747 
L 2206 2863 
L 3141 2863 
L 3141 2747 
Q 2978 2734 2916 2681 
Q 2806 2588 2719 2369 
L 1703 -88 
L 1575 -88 
L 553 2328 
Q 484 2497 421 2570 
Q 359 2644 263 2694 
Q 209 2722 53 2747 
L 53 2863 
z
" id="TimesNewRomanPSMT-76" transform="scale(0.015625)"/>
       <path d="M 1038 2947 
L 1038 2303 
Q 1397 2947 1775 2947 
Q 1947 2947 2059 2842 
Q 2172 2738 2172 2600 
Q 2172 2478 2090 2393 
Q 2009 2309 1897 2309 
Q 1788 2309 1652 2417 
Q 1516 2525 1450 2525 
Q 1394 2525 1328 2463 
Q 1188 2334 1038 2041 
L 1038 669 
Q 1038 431 1097 309 
Q 1138 225 1241 169 
Q 1344 113 1538 113 
L 1538 0 
L 72 0 
L 72 113 
Q 291 113 397 181 
Q 475 231 506 341 
Q 522 394 522 644 
L 522 1753 
Q 522 2253 501 2348 
Q 481 2444 426 2487 
Q 372 2531 291 2531 
Q 194 2531 72 2484 
L 41 2597 
L 906 2947 
L 1038 2947 
z
" id="TimesNewRomanPSMT-72" transform="scale(0.015625)"/>
       <path d="M 2050 2947 
L 2050 1972 
L 1947 1972 
Q 1828 2431 1642 2597 
Q 1456 2763 1169 2763 
Q 950 2763 815 2647 
Q 681 2531 681 2391 
Q 681 2216 781 2091 
Q 878 1963 1175 1819 
L 1631 1597 
Q 2266 1288 2266 781 
Q 2266 391 1970 151 
Q 1675 -88 1309 -88 
Q 1047 -88 709 6 
Q 606 38 541 38 
Q 469 38 428 -44 
L 325 -44 
L 325 978 
L 428 978 
Q 516 541 762 319 
Q 1009 97 1316 97 
Q 1531 97 1667 223 
Q 1803 350 1803 528 
Q 1803 744 1651 891 
Q 1500 1038 1047 1263 
Q 594 1488 453 1669 
Q 313 1847 313 2119 
Q 313 2472 555 2709 
Q 797 2947 1181 2947 
Q 1350 2947 1591 2875 
Q 1750 2828 1803 2828 
Q 1853 2828 1881 2850 
Q 1909 2872 1947 2947 
L 2050 2947 
z
" id="TimesNewRomanPSMT-73" transform="scale(0.015625)"/>
       <path d="M 1184 4444 
L 1184 647 
Q 1184 378 1223 290 
Q 1263 203 1344 158 
Q 1425 113 1647 113 
L 1647 0 
L 244 0 
L 244 113 
Q 441 113 512 153 
Q 584 194 625 287 
Q 666 381 666 647 
L 666 3247 
Q 666 3731 644 3842 
Q 622 3953 573 3993 
Q 525 4034 450 4034 
Q 369 4034 244 3984 
L 191 4094 
L 1044 4444 
L 1184 4444 
z
" id="TimesNewRomanPSMT-6c" transform="scale(0.015625)"/>
      </defs>
      <use xlink:href="#TimesNewRomanPSMT-41"/>
      <use x="72.216797" xlink:href="#TimesNewRomanPSMT-64"/>
      <use x="122.216797" xlink:href="#TimesNewRomanPSMT-76"/>
      <use x="172.216797" xlink:href="#TimesNewRomanPSMT-65"/>
      <use x="216.601562" xlink:href="#TimesNewRomanPSMT-72"/>
      <use x="249.902344" xlink:href="#TimesNewRomanPSMT-73"/>
      <use x="288.818359" xlink:href="#TimesNewRomanPSMT-61"/>
      <use x="333.203125" xlink:href="#TimesNewRomanPSMT-72"/>
      <use x="366.503906" xlink:href="#TimesNewRomanPSMT-69"/>
      <use x="394.287109" xlink:href="#TimesNewRomanPSMT-61"/>
      <use x="438.671875" xlink:href="#TimesNewRomanPSMT-6c"/>
     </g>
    </g>
   </g>
  </g>
 </g>
 <defs>
  <clipPath id="pf78b9ee19c">
   <path d="M 154.324387 83.61336 
C 154.324387 75.364355 152.699513 67.19556 149.542755 59.574473 
C 146.385997 51.953385 141.758747 45.028216 135.925819 39.195288 
C 130.092891 33.36236 123.167722 28.73511 115.546634 25.578352 
C 107.925547 22.421595 99.756752 20.79672 91.507747 20.79672 
C 83.258741 20.79672 75.089947 22.421595 67.46886 25.578352 
C 59.847772 28.73511 52.922603 33.36236 47.089675 39.195288 
C 41.256747 45.028216 36.629497 51.953385 33.472739 59.574473 
C 30.315981 67.19556 28.691107 75.364355 28.691107 83.61336 
C 28.691107 91.862366 30.315981 100.03116 33.472739 107.652247 
C 36.629497 115.273335 41.256747 122.198504 47.089675 128.031432 
C 52.922603 133.86436 59.847772 138.49161 67.46886 141.648368 
C 75.089947 144.805126 83.258741 146.43 91.507747 146.43 
C 99.756752 146.43 107.925547 144.805126 115.546634 141.648368 
C 123.167722 138.49161 130.092891 133.86436 135.925819 128.031432 
C 141.758747 122.198504 146.385997 115.273335 149.542755 107.652247 
C 152.699513 100.03116 154.324387 91.862366 154.324387 83.61336 
M 91.507747 83.61336 
C 91.507747 83.61336 91.507747 83.61336 91.507747 83.61336 
C 91.507747 83.61336 91.507747 83.61336 91.507747 83.61336 
C 91.507747 83.61336 91.507747 83.61336 91.507747 83.61336 
C 91.507747 83.61336 91.507747 83.61336 91.507747 83.61336 
C 91.507747 83.61336 91.507747 83.61336 91.507747 83.61336 
C 91.507747 83.61336 91.507747 83.61336 91.507747 83.61336 
C 91.507747 83.61336 91.507747 83.61336 91.507747 83.61336 
C 91.507747 83.61336 91.507747 83.61336 91.507747 83.61336 
C 91.507747 83.61336 91.507747 83.61336 91.507747 83.61336 
C 91.507747 83.61336 91.507747 83.61336 91.507747 83.61336 
C 91.507747 83.61336 91.507747 83.61336 91.507747 83.61336 
C 91.507747 83.61336 91.507747 83.61336 91.507747 83.61336 
C 91.507747 83.61336 91.507747 83.61336 91.507747 83.61336 
C 91.507747 83.61336 91.507747 83.61336 91.507747 83.61336 
C 91.507747 83.61336 91.507747 83.61336 91.507747 83.61336 
C 91.507747 83.61336 91.507747 83.61336 91.507747 83.61336 
M 154.324387 83.61336 
z
"/>
  </clipPath>
 </defs>
</svg>
