<?xml version="1.0" encoding="utf-8" standalone="no"?>
<!DOCTYPE svg PUBLIC "-//W3C//DTD SVG 1.1//EN"
  "http://www.w3.org/Graphics/SVG/1.1/DTD/svg11.dtd">
<svg height="172.8pt" version="1.1" viewBox="0 0 270 172.8" width="270pt" xmlns="http://www.w3.org/2000/svg" xmlns:xlink="http://www.w3.org/1999/xlink">
 <metadata>
  <rdf:RDF xmlns:cc="http://creativecommons.org/ns#" xmlns:dc="http://purl.org/dc/elements/1.1/" xmlns:rdf="http://www.w3.org/1999/02/22-rdf-syntax-ns#">
   <cc:Work>
    <dc:type rdf:resource="http://purl.org/dc/dcmitype/StillImage"/>
    <dc:date>2022-03-27T16:18:26.046976</dc:date>
    <dc:format>image/svg+xml</dc:format>
    <dc:creator>
     <cc:Agent>
      <dc:title>Matplotlib v3.4.3, https://matplotlib.org/</dc:title>
     </cc:Agent>
    </dc:creator>
   </cc:Work>
  </rdf:RDF>
 </metadata>
 <defs>
  <style type="text/css">*{stroke-linecap:butt;stroke-linejoin:round;}</style>
 </defs>
 <g id="figure_1">
  <g id="patch_1">
   <path d="M 0 172.8 
L 270 172.8 
L 270 0 
L 0 0 
z
" style="fill:none;"/>
  </g>
  <g id="axes_1">
   <g id="patch_2">
    <path d="M 37.8 71.402264 
L 261.9 71.402264 
L 261.9 8.64 
L 37.8 8.64 
z
" style="fill:none;"/>
   </g>
   <g id="PolyCollection_1">
    <defs>
     <path d="M 47.986364 -152.497427 
L 47.986364 -154.96287 
L 49.698358 -152.761303 
L 51.410351 -156.307589 
L 53.122345 -153.730082 
L 54.834339 -154.461137 
L 56.546333 -153.641053 
L 58.258327 -151.06688 
L 59.970321 -151.279381 
L 61.682315 -150.754478 
L 63.394309 -151.935792 
L 65.106303 -151.487508 
L 66.818296 -149.635662 
L 68.53029 -150.026378 
L 70.242284 -149.684719 
L 71.954278 -148.591333 
L 73.666272 -147.942829 
L 75.378266 -147.124354 
L 77.09026 -147.450145 
L 78.802254 -146.258308 
L 80.514248 -147.721518 
L 82.226241 -144.898623 
L 83.938235 -144.896041 
L 85.650229 -146.334232 
L 87.362223 -143.33314 
L 89.074217 -145.387554 
L 90.786211 -142.79903 
L 92.498205 -142.754306 
L 94.210199 -141.784126 
L 95.922193 -142.430432 
L 97.634186 -141.592346 
L 99.34618 -142.049796 
L 101.058174 -140.128161 
L 102.770168 -142.301652 
L 104.482162 -139.458739 
L 106.194156 -140.766631 
L 107.90615 -137.719759 
L 109.618144 -139.229861 
L 111.330138 -138.796142 
L 113.042131 -137.836649 
L 114.754125 -139.66268 
L 116.466119 -137.937947 
L 118.178113 -138.820586 
L 119.890107 -137.824758 
L 121.602101 -139.404795 
L 123.314095 -140.252283 
L 125.026089 -137.75378 
L 126.738083 -137.76679 
L 128.450076 -136.284055 
L 130.16207 -138.427096 
L 131.874064 -136.110142 
L 133.586058 -135.934593 
L 135.298052 -138.708961 
L 137.010046 -136.761155 
L 138.72204 -135.697699 
L 140.434034 -136.123348 
L 142.146028 -135.235409 
L 143.858021 -136.317956 
L 145.570015 -135.882926 
L 147.282009 -134.903538 
L 148.994003 -136.794437 
L 150.705997 -136.341958 
L 152.417991 -134.818615 
L 154.129985 -137.742489 
L 155.841979 -136.934713 
L 157.553972 -136.519646 
L 159.265966 -134.033172 
L 160.97796 -137.553364 
L 162.689954 -134.961023 
L 164.401948 -136.930728 
L 166.113942 -135.755614 
L 167.825936 -134.245119 
L 169.53793 -134.753963 
L 171.249924 -136.151148 
L 172.961917 -135.935129 
L 174.673911 -137.237778 
L 176.385905 -136.008349 
L 178.097899 -136.877398 
L 179.809893 -134.891125 
L 181.521887 -133.559345 
L 183.233881 -136.659535 
L 184.945875 -133.244946 
L 186.657869 -134.861645 
L 188.369862 -133.472139 
L 190.081856 -133.027568 
L 191.79385 -134.113643 
L 193.505844 -133.918861 
L 195.217838 -136.141706 
L 196.929832 -133.389279 
L 198.641826 -135.085903 
L 200.35382 -133.583551 
L 202.065814 -134.951698 
L 203.777807 -134.247718 
L 205.489801 -134.04603 
L 207.201795 -134.141259 
L 208.913789 -133.764189 
L 210.625783 -133.875249 
L 212.337777 -132.398088 
L 214.049771 -135.056196 
L 215.761765 -134.654695 
L 217.473759 -133.966725 
L 219.185752 -133.025 
L 219.185752 -133.898389 
L 220.897746 -132.338963 
L 222.60974 -134.503667 
L 224.321734 -134.060637 
L 226.033728 -132.532992 
L 227.745722 -132.543008 
L 229.457716 -133.421216 
L 231.16971 -133.163782 
L 232.881704 -133.37031 
L 234.593697 -132.38196 
L 236.305691 -134.614323 
L 238.017685 -132.596748 
L 239.729679 -132.239052 
L 241.441673 -134.620215 
L 243.153667 -132.877624 
L 244.865661 -133.172185 
L 246.577655 -134.602246 
L 248.289649 -134.285742 
L 250.001642 -132.454819 
L 251.713636 -132.689876 
L 251.713636 -129.861847 
L 251.713636 -129.861847 
L 250.001642 -129.832212 
L 248.289649 -130.894653 
L 246.577655 -131.650975 
L 244.865661 -129.946384 
L 243.153667 -129.888179 
L 241.441673 -131.540687 
L 239.729679 -129.57651 
L 238.017685 -130.034639 
L 236.305691 -132.035782 
L 234.593697 -129.356824 
L 232.881704 -130.100705 
L 231.16971 -129.995187 
L 229.457716 -130.841347 
L 227.745722 -129.799437 
L 226.033728 -129.746623 
L 224.321734 -131.14921 
L 222.60974 -131.378033 
L 220.897746 -129.298919 
L 219.185752 -131.071088 
L 219.185752 -130.091305 
L 217.473759 -131.1144 
L 215.761765 -131.71395 
L 214.049771 -132.164137 
L 212.337777 -129.862954 
L 210.625783 -131.654672 
L 208.913789 -131.140303 
L 207.201795 -131.30342 
L 205.489801 -131.42563 
L 203.777807 -131.496035 
L 202.065814 -132.553329 
L 200.35382 -131.074083 
L 198.641826 -132.260171 
L 196.929832 -131.037044 
L 195.217838 -133.612509 
L 193.505844 -131.367563 
L 191.79385 -131.599492 
L 190.081856 -130.621071 
L 188.369862 -130.948693 
L 186.657869 -132.192864 
L 184.945875 -130.644202 
L 183.233881 -133.799712 
L 181.521887 -131.162417 
L 179.809893 -132.663958 
L 178.097899 -134.300349 
L 176.385905 -133.536398 
L 174.673911 -134.650615 
L 172.961917 -133.113603 
L 171.249924 -133.752813 
L 169.53793 -132.024376 
L 167.825936 -131.699905 
L 166.113942 -133.300778 
L 164.401948 -134.047715 
L 162.689954 -132.890466 
L 160.97796 -134.769127 
L 159.265966 -131.726663 
L 157.553972 -133.875709 
L 155.841979 -133.947423 
L 154.129985 -134.793578 
L 152.417991 -132.721518 
L 150.705997 -133.527576 
L 148.994003 -134.020312 
L 147.282009 -132.77635 
L 145.570015 -133.769638 
L 143.858021 -134.112046 
L 142.146028 -133.391128 
L 140.434034 -133.904167 
L 138.72204 -132.974993 
L 137.010046 -133.869568 
L 135.298052 -135.897511 
L 133.586058 -133.877732 
L 131.874064 -133.797837 
L 130.16207 -136.042085 
L 128.450076 -134.380156 
L 126.738083 -135.065212 
L 125.026089 -135.445807 
L 123.314095 -137.691742 
L 121.602101 -137.032434 
L 119.890107 -135.843268 
L 118.178113 -136.345186 
L 116.466119 -135.808452 
L 114.754125 -137.180591 
L 113.042131 -135.862301 
L 111.330138 -136.473023 
L 109.618144 -137.238486 
L 107.90615 -135.77856 
L 106.194156 -138.646402 
L 104.482162 -137.46492 
L 102.770168 -140.330179 
L 101.058174 -138.326402 
L 99.34618 -139.910066 
L 97.634186 -139.623898 
L 95.922193 -140.644773 
L 94.210199 -139.847102 
L 92.498205 -140.820761 
L 90.786211 -140.644833 
L 89.074217 -143.443639 
L 87.362223 -141.713105 
L 85.650229 -144.393871 
L 83.938235 -142.898828 
L 82.226241 -143.025319 
L 80.514248 -145.869124 
L 78.802254 -144.690485 
L 77.09026 -145.415886 
L 75.378266 -145.487497 
L 73.666272 -146.211945 
L 71.954278 -146.542269 
L 70.242284 -147.909935 
L 68.53029 -147.924615 
L 66.818296 -147.67229 
L 65.106303 -149.573631 
L 63.394309 -150.088908 
L 61.682315 -149.065508 
L 59.970321 -149.314425 
L 58.258327 -149.187575 
L 56.546333 -151.754047 
L 54.834339 -152.7234 
L 53.122345 -151.560791 
L 51.410351 -154.509843 
L 49.698358 -150.193574 
L 47.986364 -152.497427 
z
" id="m68fbe18722" style="stroke:#1f77b4;stroke-opacity:0.5;"/>
    </defs>
    <g clip-path="url(#pb4c56a0dab)">
     <use style="fill:#1f77b4;fill-opacity:0.5;stroke:#1f77b4;stroke-opacity:0.5;" x="0" xlink:href="#m68fbe18722" y="172.8"/>
    </g>
   </g>
   <g id="PolyCollection_2">
    <defs>
     <path d="M 47.986364 -153.438633 
L 47.986364 -155.926164 
L 49.698358 -154.553999 
L 51.410351 -154.131679 
L 53.122345 -152.171523 
L 54.834339 -153.146798 
L 56.546333 -152.676431 
L 58.258327 -152.940668 
L 59.970321 -153.567261 
L 61.682315 -152.16647 
L 63.394309 -153.399311 
L 65.106303 -149.880744 
L 66.818296 -152.307719 
L 68.53029 -151.239584 
L 70.242284 -148.530064 
L 71.954278 -149.030118 
L 73.666272 -149.952935 
L 75.378266 -149.40344 
L 77.09026 -149.021109 
L 78.802254 -147.897422 
L 80.514248 -148.396945 
L 82.226241 -147.524269 
L 83.938235 -147.917363 
L 85.650229 -146.996612 
L 87.362223 -148.844505 
L 89.074217 -147.790149 
L 90.786211 -147.218386 
L 92.498205 -147.588297 
L 94.210199 -146.786705 
L 95.922193 -147.30751 
L 97.634186 -145.839277 
L 99.34618 -144.931411 
L 101.058174 -146.000655 
L 102.770168 -146.863401 
L 104.482162 -145.86903 
L 106.194156 -145.19728 
L 107.90615 -143.644472 
L 109.618144 -145.647983 
L 111.330138 -145.170202 
L 113.042131 -142.566608 
L 114.754125 -141.402924 
L 116.466119 -141.101427 
L 118.178113 -143.440078 
L 119.890107 -143.723388 
L 121.602101 -141.982365 
L 123.314095 -144.239578 
L 125.026089 -141.708039 
L 126.738083 -141.158638 
L 128.450076 -140.893262 
L 130.16207 -137.940266 
L 131.874064 -139.509099 
L 133.586058 -140.570424 
L 135.298052 -138.875399 
L 137.010046 -139.968829 
L 138.72204 -140.130652 
L 140.434034 -136.784442 
L 142.146028 -137.511559 
L 143.858021 -138.018384 
L 145.570015 -139.125603 
L 147.282009 -137.144506 
L 148.994003 -136.139875 
L 150.705997 -135.531684 
L 152.417991 -136.504398 
L 154.129985 -135.878875 
L 155.841979 -135.667238 
L 157.553972 -134.552512 
L 159.265966 -136.254237 
L 160.97796 -136.256688 
L 162.689954 -135.802424 
L 164.401948 -136.418928 
L 166.113942 -135.128766 
L 167.825936 -136.558979 
L 169.53793 -135.011468 
L 171.249924 -135.995565 
L 172.961917 -134.936709 
L 174.673911 -134.103277 
L 176.385905 -135.25855 
L 178.097899 -133.636901 
L 179.809893 -134.246568 
L 181.521887 -132.317436 
L 183.233881 -135.156967 
L 184.945875 -134.246515 
L 186.657869 -134.433658 
L 188.369862 -131.687685 
L 190.081856 -134.066492 
L 191.79385 -133.713709 
L 193.505844 -132.549468 
L 195.217838 -132.60758 
L 196.929832 -131.264172 
L 198.641826 -130.999555 
L 200.35382 -131.883739 
L 202.065814 -131.56061 
L 203.777807 -134.016194 
L 205.489801 -133.326703 
L 207.201795 -132.56502 
L 208.913789 -131.264533 
L 210.625783 -132.664244 
L 212.337777 -131.95622 
L 214.049771 -130.205707 
L 215.761765 -131.772322 
L 217.473759 -132.760841 
L 219.185752 -131.9428 
L 219.185752 -132.696892 
L 220.897746 -131.441984 
L 222.60974 -135.393468 
L 224.321734 -131.516974 
L 226.033728 -131.959139 
L 227.745722 -131.081849 
L 229.457716 -130.988756 
L 231.16971 -134.042458 
L 232.881704 -132.667766 
L 234.593697 -131.957436 
L 236.305691 -131.670406 
L 238.017685 -130.43134 
L 239.729679 -130.705884 
L 241.441673 -132.291897 
L 243.153667 -129.823343 
L 244.865661 -131.29533 
L 246.577655 -131.520304 
L 248.289649 -132.591612 
L 250.001642 -131.854017 
L 251.713636 -130.450518 
L 251.713636 -127.252878 
L 251.713636 -127.252878 
L 250.001642 -128.780871 
L 248.289649 -129.47156 
L 246.577655 -128.181914 
L 244.865661 -127.561667 
L 243.153667 -126.962451 
L 241.441673 -129.293002 
L 239.729679 -127.716096 
L 238.017685 -127.423248 
L 236.305691 -128.300144 
L 234.593697 -128.258901 
L 232.881704 -129.756089 
L 231.16971 -130.376572 
L 229.457716 -127.929877 
L 227.745722 -128.412375 
L 226.033728 -128.856279 
L 224.321734 -128.134 
L 222.60974 -132.24134 
L 220.897746 -128.471911 
L 219.185752 -128.861453 
L 219.185752 -128.706044 
L 217.473759 -129.544164 
L 215.761765 -128.728049 
L 214.049771 -127.518634 
L 212.337777 -128.757969 
L 210.625783 -129.223648 
L 208.913789 -128.4944 
L 207.201795 -129.67748 
L 205.489801 -130.381921 
L 203.777807 -130.791507 
L 202.065814 -128.74626 
L 200.35382 -129.304766 
L 198.641826 -128.392862 
L 196.929832 -128.759532 
L 195.217838 -129.473003 
L 193.505844 -129.951633 
L 191.79385 -130.972344 
L 190.081856 -130.806852 
L 188.369862 -128.558857 
L 186.657869 -131.381804 
L 184.945875 -131.172793 
L 183.233881 -132.241434 
L 181.521887 -129.709516 
L 179.809893 -131.618457 
L 178.097899 -130.81347 
L 176.385905 -132.206516 
L 174.673911 -130.964365 
L 172.961917 -132.290829 
L 171.249924 -133.365537 
L 169.53793 -131.695306 
L 167.825936 -133.752548 
L 166.113942 -132.941719 
L 164.401948 -133.351952 
L 162.689954 -133.382921 
L 160.97796 -133.3852 
L 159.265966 -133.214907 
L 157.553972 -132.365009 
L 155.841979 -132.643423 
L 154.129985 -132.816017 
L 152.417991 -133.568583 
L 150.705997 -133.393345 
L 148.994003 -133.830493 
L 147.282009 -134.56919 
L 145.570015 -135.76937 
L 143.858021 -135.02343 
L 142.146028 -135.366489 
L 140.434034 -134.226287 
L 138.72204 -137.239533 
L 137.010046 -136.925324 
L 135.298052 -135.773021 
L 133.586058 -137.56819 
L 131.874064 -137.09455 
L 130.16207 -135.631602 
L 128.450076 -138.4728 
L 126.738083 -138.42266 
L 125.026089 -139.122489 
L 123.314095 -140.959342 
L 121.602101 -139.440395 
L 119.890107 -141.510526 
L 118.178113 -140.538406 
L 116.466119 -139.348963 
L 114.754125 -139.040509 
L 113.042131 -140.34165 
L 111.330138 -143.037705 
L 109.618144 -143.279006 
L 107.90615 -141.346736 
L 106.194156 -143.14691 
L 104.482162 -143.911975 
L 102.770168 -144.709625 
L 101.058174 -144.192964 
L 99.34618 -142.890069 
L 97.634186 -143.614321 
L 95.922193 -145.251633 
L 94.210199 -144.762143 
L 92.498205 -145.523379 
L 90.786211 -145.249817 
L 89.074217 -145.760644 
L 87.362223 -147.049508 
L 85.650229 -145.244798 
L 83.938235 -146.077888 
L 82.226241 -145.94271 
L 80.514248 -146.785781 
L 78.802254 -146.239626 
L 77.09026 -146.976246 
L 75.378266 -147.618872 
L 73.666272 -147.906106 
L 71.954278 -147.180608 
L 70.242284 -146.875551 
L 68.53029 -148.579304 
L 66.818296 -150.130877 
L 65.106303 -148.084149 
L 63.394309 -151.274681 
L 61.682315 -150.195729 
L 59.970321 -151.853598 
L 58.258327 -150.82804 
L 56.546333 -150.653819 
L 54.834339 -151.182342 
L 53.122345 -150.331469 
L 51.410351 -151.843577 
L 49.698358 -151.986482 
L 47.986364 -153.438633 
z
" id="m76b59bec64" style="stroke:#ff7f0e;stroke-opacity:0.5;"/>
    </defs>
    <g clip-path="url(#pb4c56a0dab)">
     <use style="fill:#ff7f0e;fill-opacity:0.5;stroke:#ff7f0e;stroke-opacity:0.5;" x="0" xlink:href="#m76b59bec64" y="172.8"/>
    </g>
   </g>
   <g id="matplotlib.axis_1">
    <g id="xtick_1">
     <g id="line2d_1">
      <defs>
       <path d="M 0 0 
L 0 3.5 
" id="m4c664942f1" style="stroke:#000000;stroke-width:0.8;"/>
      </defs>
      <g>
       <use style="stroke:#000000;stroke-width:0.8;" x="47.986364" xlink:href="#m4c664942f1" y="71.402264"/>
      </g>
     </g>
    </g>
    <g id="xtick_2">
     <g id="line2d_2">
      <g>
       <use style="stroke:#000000;stroke-width:0.8;" x="99.34618" xlink:href="#m4c664942f1" y="71.402264"/>
      </g>
     </g>
    </g>
    <g id="xtick_3">
     <g id="line2d_3">
      <g>
       <use style="stroke:#000000;stroke-width:0.8;" x="150.705997" xlink:href="#m4c664942f1" y="71.402264"/>
      </g>
     </g>
    </g>
    <g id="xtick_4">
     <g id="line2d_4">
      <g>
       <use style="stroke:#000000;stroke-width:0.8;" x="202.065814" xlink:href="#m4c664942f1" y="71.402264"/>
      </g>
     </g>
    </g>
    <g id="xtick_5">
     <g id="line2d_5">
      <g>
       <use style="stroke:#000000;stroke-width:0.8;" x="253.42563" xlink:href="#m4c664942f1" y="71.402264"/>
      </g>
     </g>
    </g>
   </g>
   <g id="matplotlib.axis_2">
    <g id="ytick_1">
     <g id="line2d_6">
      <defs>
       <path d="M 0 0 
L -3.5 0 
" id="mf65fbcce21" style="stroke:#000000;stroke-width:0.8;"/>
      </defs>
      <g>
       <use style="stroke:#000000;stroke-width:0.8;" x="37.8" xlink:href="#mf65fbcce21" y="71.402264"/>
      </g>
     </g>
     <g id="text_1">
      <!-- 0.2 -->
      <g transform="translate(16.487188 74.821561)scale(0.09 -0.09)">
       <defs>
        <path d="M 2034 4250 
Q 1547 4250 1301 3770 
Q 1056 3291 1056 2328 
Q 1056 1369 1301 889 
Q 1547 409 2034 409 
Q 2525 409 2770 889 
Q 3016 1369 3016 2328 
Q 3016 3291 2770 3770 
Q 2525 4250 2034 4250 
z
M 2034 4750 
Q 2819 4750 3233 4129 
Q 3647 3509 3647 2328 
Q 3647 1150 3233 529 
Q 2819 -91 2034 -91 
Q 1250 -91 836 529 
Q 422 1150 422 2328 
Q 422 3509 836 4129 
Q 1250 4750 2034 4750 
z
" id="DejaVuSans-30" transform="scale(0.015625)"/>
        <path d="M 684 794 
L 1344 794 
L 1344 0 
L 684 0 
L 684 794 
z
" id="DejaVuSans-2e" transform="scale(0.015625)"/>
        <path d="M 1228 531 
L 3431 531 
L 3431 0 
L 469 0 
L 469 531 
Q 828 903 1448 1529 
Q 2069 2156 2228 2338 
Q 2531 2678 2651 2914 
Q 2772 3150 2772 3378 
Q 2772 3750 2511 3984 
Q 2250 4219 1831 4219 
Q 1534 4219 1204 4116 
Q 875 4013 500 3803 
L 500 4441 
Q 881 4594 1212 4672 
Q 1544 4750 1819 4750 
Q 2544 4750 2975 4387 
Q 3406 4025 3406 3419 
Q 3406 3131 3298 2873 
Q 3191 2616 2906 2266 
Q 2828 2175 2409 1742 
Q 1991 1309 1228 531 
z
" id="DejaVuSans-32" transform="scale(0.015625)"/>
       </defs>
       <use xlink:href="#DejaVuSans-30"/>
       <use x="63.623047" xlink:href="#DejaVuSans-2e"/>
       <use x="95.410156" xlink:href="#DejaVuSans-32"/>
      </g>
     </g>
    </g>
    <g id="ytick_2">
     <g id="line2d_7">
      <g>
       <use style="stroke:#000000;stroke-width:0.8;" x="37.8" xlink:href="#mf65fbcce21" y="40.021132"/>
      </g>
     </g>
     <g id="text_2">
      <!-- 0.5 -->
      <g transform="translate(16.487188 43.440429)scale(0.09 -0.09)">
       <defs>
        <path d="M 691 4666 
L 3169 4666 
L 3169 4134 
L 1269 4134 
L 1269 2991 
Q 1406 3038 1543 3061 
Q 1681 3084 1819 3084 
Q 2600 3084 3056 2656 
Q 3513 2228 3513 1497 
Q 3513 744 3044 326 
Q 2575 -91 1722 -91 
Q 1428 -91 1123 -41 
Q 819 9 494 109 
L 494 744 
Q 775 591 1075 516 
Q 1375 441 1709 441 
Q 2250 441 2565 725 
Q 2881 1009 2881 1497 
Q 2881 1984 2565 2268 
Q 2250 2553 1709 2553 
Q 1456 2553 1204 2497 
Q 953 2441 691 2322 
L 691 4666 
z
" id="DejaVuSans-35" transform="scale(0.015625)"/>
       </defs>
       <use xlink:href="#DejaVuSans-30"/>
       <use x="63.623047" xlink:href="#DejaVuSans-2e"/>
       <use x="95.410156" xlink:href="#DejaVuSans-35"/>
      </g>
     </g>
    </g>
    <g id="ytick_3">
     <g id="line2d_8">
      <g>
       <use style="stroke:#000000;stroke-width:0.8;" x="37.8" xlink:href="#mf65fbcce21" y="8.64"/>
      </g>
     </g>
     <g id="text_3">
      <!-- 0.8 -->
      <g transform="translate(16.487188 12.059297)scale(0.09 -0.09)">
       <defs>
        <path d="M 2034 2216 
Q 1584 2216 1326 1975 
Q 1069 1734 1069 1313 
Q 1069 891 1326 650 
Q 1584 409 2034 409 
Q 2484 409 2743 651 
Q 3003 894 3003 1313 
Q 3003 1734 2745 1975 
Q 2488 2216 2034 2216 
z
M 1403 2484 
Q 997 2584 770 2862 
Q 544 3141 544 3541 
Q 544 4100 942 4425 
Q 1341 4750 2034 4750 
Q 2731 4750 3128 4425 
Q 3525 4100 3525 3541 
Q 3525 3141 3298 2862 
Q 3072 2584 2669 2484 
Q 3125 2378 3379 2068 
Q 3634 1759 3634 1313 
Q 3634 634 3220 271 
Q 2806 -91 2034 -91 
Q 1263 -91 848 271 
Q 434 634 434 1313 
Q 434 1759 690 2068 
Q 947 2378 1403 2484 
z
M 1172 3481 
Q 1172 3119 1398 2916 
Q 1625 2713 2034 2713 
Q 2441 2713 2670 2916 
Q 2900 3119 2900 3481 
Q 2900 3844 2670 4047 
Q 2441 4250 2034 4250 
Q 1625 4250 1398 4047 
Q 1172 3844 1172 3481 
z
" id="DejaVuSans-38" transform="scale(0.015625)"/>
       </defs>
       <use xlink:href="#DejaVuSans-30"/>
       <use x="63.623047" xlink:href="#DejaVuSans-2e"/>
       <use x="95.410156" xlink:href="#DejaVuSans-38"/>
      </g>
     </g>
    </g>
    <g id="text_4">
     <!-- Loss -->
     <g transform="translate(10.348125 49.467226)rotate(-90)scale(0.1 -0.1)">
      <defs>
       <path d="M 3669 1172 
L 3772 1150 
L 3409 0 
L 128 0 
L 128 116 
L 288 116 
Q 556 116 672 291 
Q 738 391 738 753 
L 738 3488 
Q 738 3884 650 3984 
Q 528 4122 288 4122 
L 128 4122 
L 128 4238 
L 2047 4238 
L 2047 4122 
Q 1709 4125 1573 4059 
Q 1438 3994 1388 3894 
Q 1338 3794 1338 3416 
L 1338 753 
Q 1338 494 1388 397 
Q 1425 331 1503 300 
Q 1581 269 1991 269 
L 2300 269 
Q 2788 269 2984 341 
Q 3181 413 3343 595 
Q 3506 778 3669 1172 
z
" id="TimesNewRomanPSMT-4c" transform="scale(0.015625)"/>
       <path d="M 1600 2947 
Q 2250 2947 2644 2453 
Q 2978 2031 2978 1484 
Q 2978 1100 2793 706 
Q 2609 313 2286 112 
Q 1963 -88 1566 -88 
Q 919 -88 538 428 
Q 216 863 216 1403 
Q 216 1797 411 2186 
Q 606 2575 925 2761 
Q 1244 2947 1600 2947 
z
M 1503 2744 
Q 1338 2744 1170 2645 
Q 1003 2547 900 2300 
Q 797 2053 797 1666 
Q 797 1041 1045 587 
Q 1294 134 1700 134 
Q 2003 134 2200 384 
Q 2397 634 2397 1244 
Q 2397 2006 2069 2444 
Q 1847 2744 1503 2744 
z
" id="TimesNewRomanPSMT-6f" transform="scale(0.015625)"/>
       <path d="M 2050 2947 
L 2050 1972 
L 1947 1972 
Q 1828 2431 1642 2597 
Q 1456 2763 1169 2763 
Q 950 2763 815 2647 
Q 681 2531 681 2391 
Q 681 2216 781 2091 
Q 878 1963 1175 1819 
L 1631 1597 
Q 2266 1288 2266 781 
Q 2266 391 1970 151 
Q 1675 -88 1309 -88 
Q 1047 -88 709 6 
Q 606 38 541 38 
Q 469 38 428 -44 
L 325 -44 
L 325 978 
L 428 978 
Q 516 541 762 319 
Q 1009 97 1316 97 
Q 1531 97 1667 223 
Q 1803 350 1803 528 
Q 1803 744 1651 891 
Q 1500 1038 1047 1263 
Q 594 1488 453 1669 
Q 313 1847 313 2119 
Q 313 2472 555 2709 
Q 797 2947 1181 2947 
Q 1350 2947 1591 2875 
Q 1750 2828 1803 2828 
Q 1853 2828 1881 2850 
Q 1909 2872 1947 2947 
L 2050 2947 
z
" id="TimesNewRomanPSMT-73" transform="scale(0.015625)"/>
      </defs>
      <use xlink:href="#TimesNewRomanPSMT-4c"/>
      <use x="61.083984" xlink:href="#TimesNewRomanPSMT-6f"/>
      <use x="111.083984" xlink:href="#TimesNewRomanPSMT-73"/>
      <use x="150" xlink:href="#TimesNewRomanPSMT-73"/>
     </g>
    </g>
   </g>
   <g id="line2d_9">
    <path clip-path="url(#pb4c56a0dab)" d="M 47.986364 19.069852 
L 49.698358 21.322562 
L 51.410351 17.391284 
L 53.122345 20.154564 
L 54.834339 19.207731 
L 56.546333 20.10245 
L 58.258327 22.672773 
L 59.970321 22.503097 
L 61.682315 22.890007 
L 63.394309 21.78765 
L 65.106303 22.26943 
L 66.818296 24.146024 
L 68.53029 23.824503 
L 70.242284 24.002673 
L 71.954278 25.233199 
L 73.666272 25.722613 
L 75.378266 26.494074 
L 77.09026 26.366984 
L 78.802254 27.325603 
L 80.514248 26.004679 
L 82.226241 28.838029 
L 83.938235 28.902565 
L 85.650229 27.435949 
L 87.362223 30.276877 
L 89.074217 28.384404 
L 90.786211 31.078069 
L 92.498205 31.012467 
L 94.210199 31.984386 
L 95.922193 31.262397 
L 97.634186 32.191878 
L 99.34618 31.820069 
L 101.058174 33.572718 
L 102.770168 31.484084 
L 104.482162 34.33817 
L 106.194156 33.093484 
L 107.90615 36.05084 
L 109.618144 34.565827 
L 111.330138 35.165418 
L 113.042131 35.950525 
L 114.754125 34.378364 
L 116.466119 35.926801 
L 118.178113 35.217114 
L 119.890107 35.965987 
L 121.602101 34.581386 
L 123.314095 33.827988 
L 125.026089 36.200206 
L 126.738083 36.383999 
L 128.450076 37.467894 
L 130.16207 35.56541 
L 131.874064 37.84601 
L 133.586058 37.893837 
L 135.298052 35.496764 
L 137.010046 37.484639 
L 138.72204 38.463654 
L 140.434034 37.786243 
L 142.146028 38.486732 
L 143.858021 37.584999 
L 145.570015 37.973718 
L 147.282009 38.960056 
L 148.994003 37.392626 
L 150.705997 37.865233 
L 152.417991 39.029934 
L 154.129985 36.531966 
L 155.841979 37.358932 
L 157.553972 37.602322 
L 159.265966 39.920082 
L 160.97796 36.638755 
L 162.689954 38.874255 
L 164.401948 37.310778 
L 166.113942 38.271804 
L 167.825936 39.827488 
L 169.53793 39.41083 
L 171.249924 37.84802 
L 172.961917 38.275634 
L 174.673911 36.855803 
L 176.385905 38.027627 
L 178.097899 37.211127 
L 179.809893 39.022458 
L 181.521887 40.439119 
L 183.233881 37.570377 
L 184.945875 40.855426 
L 186.657869 39.272745 
L 188.369862 40.589584 
L 190.081856 40.975681 
L 191.79385 39.943432 
L 193.505844 40.156788 
L 195.217838 37.922892 
L 196.929832 40.586839 
L 198.641826 39.126963 
L 200.35382 40.471183 
L 202.065814 39.047486 
L 203.777807 39.928123 
L 205.489801 40.06417 
L 207.201795 40.077661 
L 208.913789 40.347754 
L 210.625783 40.03504 
L 212.337777 41.669479 
L 214.049771 39.189833 
L 215.761765 39.615678 
L 217.473759 40.259438 
L 219.185752 41.241848 
L 219.185752 40.315262 
L 220.897746 41.981059 
L 222.60974 39.85915 
L 224.321734 40.195077 
L 226.033728 41.660192 
L 227.745722 41.628777 
L 229.457716 40.668719 
L 231.16971 41.220515 
L 232.881704 41.064493 
L 234.593697 41.930608 
L 236.305691 39.474947 
L 238.017685 41.484306 
L 239.729679 41.892219 
L 241.441673 39.719549 
L 243.153667 41.417099 
L 244.865661 41.240716 
L 246.577655 39.673389 
L 248.289649 40.209803 
L 250.001642 41.656484 
L 251.713636 41.524139 
" style="fill:none;stroke:#1f77b4;stroke-linecap:square;"/>
   </g>
   <g id="line2d_10">
    <path clip-path="url(#pb4c56a0dab)" d="M 47.986364 18.117602 
L 49.698358 19.529759 
L 51.410351 19.812372 
L 53.122345 21.548504 
L 54.834339 20.63543 
L 56.546333 21.134875 
L 58.258327 20.915646 
L 59.970321 20.08957 
L 61.682315 21.6189 
L 63.394309 20.463004 
L 65.106303 23.817554 
L 66.818296 21.580702 
L 68.53029 22.890556 
L 70.242284 25.097193 
L 71.954278 24.694637 
L 73.666272 23.87048 
L 75.378266 24.288844 
L 77.09026 24.801322 
L 78.802254 25.731476 
L 80.514248 25.208637 
L 82.226241 26.066511 
L 83.938235 25.802375 
L 85.650229 26.679295 
L 87.362223 24.852994 
L 89.074217 26.024604 
L 90.786211 26.565898 
L 92.498205 26.244162 
L 94.210199 27.025576 
L 95.922193 26.520429 
L 97.634186 28.073201 
L 99.34618 28.88926 
L 101.058174 27.703191 
L 102.770168 27.013487 
L 104.482162 27.909497 
L 106.194156 28.627905 
L 107.90615 30.304396 
L 109.618144 28.336506 
L 111.330138 28.696046 
L 113.042131 31.345871 
L 114.754125 32.578284 
L 116.466119 32.574805 
L 118.178113 30.810758 
L 119.890107 30.183043 
L 121.602101 32.08862 
L 123.314095 30.20054 
L 125.026089 32.384736 
L 126.738083 33.009351 
L 128.450076 33.116969 
L 130.16207 36.014066 
L 131.874064 34.498176 
L 133.586058 33.730693 
L 135.298052 35.47579 
L 137.010046 34.352924 
L 138.72204 34.114908 
L 140.434034 37.294636 
L 142.146028 36.360976 
L 143.858021 36.279093 
L 145.570015 35.352514 
L 147.282009 36.943152 
L 148.994003 37.814816 
L 150.705997 38.337485 
L 152.417991 37.76351 
L 154.129985 38.452554 
L 155.841979 38.64467 
L 157.553972 39.341239 
L 159.265966 38.065428 
L 160.97796 37.979056 
L 162.689954 38.207328 
L 164.401948 37.91456 
L 166.113942 38.764757 
L 167.825936 37.644237 
L 169.53793 39.446613 
L 171.249924 38.119449 
L 172.961917 39.186231 
L 174.673911 40.266179 
L 176.385905 39.067467 
L 178.097899 40.574815 
L 179.809893 39.867487 
L 181.521887 41.786524 
L 183.233881 39.1008 
L 184.945875 40.090346 
L 186.657869 39.892269 
L 188.369862 42.676729 
L 190.081856 40.363328 
L 191.79385 40.456973 
L 193.505844 41.54945 
L 195.217838 41.759709 
L 196.929832 42.788148 
L 198.641826 43.103791 
L 200.35382 42.205748 
L 202.065814 42.646565 
L 203.777807 40.39615 
L 205.489801 40.945688 
L 207.201795 41.67875 
L 208.913789 42.920533 
L 210.625783 41.856054 
L 212.337777 42.442906 
L 214.049771 43.93783 
L 215.761765 42.549815 
L 217.473759 41.647497 
L 219.185752 42.475578 
L 219.185752 42.020827 
L 220.897746 42.843052 
L 222.60974 38.982596 
L 224.321734 42.974513 
L 226.033728 42.392291 
L 227.745722 43.052888 
L 229.457716 43.340684 
L 231.16971 40.590485 
L 232.881704 41.588073 
L 234.593697 42.691831 
L 236.305691 42.814725 
L 238.017685 43.872706 
L 239.729679 43.58901 
L 241.441673 42.00755 
L 243.153667 44.407103 
L 244.865661 43.371502 
L 246.577655 42.948891 
L 248.289649 41.768414 
L 250.001642 42.482556 
L 251.713636 43.948302 
" style="fill:none;stroke:#ff7f0e;stroke-linecap:square;"/>
   </g>
   <g id="patch_3">
    <path d="M 37.8 71.402264 
L 37.8 8.64 
" style="fill:none;stroke:#000000;stroke-linecap:square;stroke-linejoin:miter;stroke-width:0.8;"/>
   </g>
   <g id="patch_4">
    <path d="M 261.9 71.402264 
L 261.9 8.64 
" style="fill:none;stroke:#000000;stroke-linecap:square;stroke-linejoin:miter;stroke-width:0.8;"/>
   </g>
   <g id="patch_5">
    <path d="M 37.8 71.402264 
L 261.9 71.402264 
" style="fill:none;stroke:#000000;stroke-linecap:square;stroke-linejoin:miter;stroke-width:0.8;"/>
   </g>
   <g id="patch_6">
    <path d="M 37.8 8.64 
L 261.9 8.64 
" style="fill:none;stroke:#000000;stroke-linecap:square;stroke-linejoin:miter;stroke-width:0.8;"/>
   </g>
   <g id="legend_1">
    <g id="line2d_11">
     <path d="M 45.9 45.485077 
L 63.9 45.485077 
" style="fill:none;stroke:#1f77b4;stroke-linecap:square;"/>
    </g>
    <g id="line2d_12"/>
    <g id="text_5">
     <!-- Legitimate -->
     <g transform="translate(71.1 48.635077)scale(0.09 -0.09)">
      <defs>
       <path d="M 681 1784 
Q 678 1147 991 784 
Q 1303 422 1725 422 
Q 2006 422 2214 576 
Q 2422 731 2563 1106 
L 2659 1044 
Q 2594 616 2278 264 
Q 1963 -88 1488 -88 
Q 972 -88 605 314 
Q 238 716 238 1394 
Q 238 2128 614 2539 
Q 991 2950 1559 2950 
Q 2041 2950 2350 2633 
Q 2659 2316 2659 1784 
L 681 1784 
z
M 681 1966 
L 2006 1966 
Q 1991 2241 1941 2353 
Q 1863 2528 1708 2628 
Q 1553 2728 1384 2728 
Q 1125 2728 920 2526 
Q 716 2325 681 1966 
z
" id="TimesNewRomanPSMT-65" transform="scale(0.015625)"/>
       <path d="M 966 1044 
Q 703 1172 562 1401 
Q 422 1631 422 1909 
Q 422 2334 742 2640 
Q 1063 2947 1563 2947 
Q 1972 2947 2272 2747 
L 2878 2747 
Q 3013 2747 3034 2739 
Q 3056 2731 3066 2713 
Q 3084 2684 3084 2613 
Q 3084 2531 3069 2500 
Q 3059 2484 3036 2475 
Q 3013 2466 2878 2466 
L 2506 2466 
Q 2681 2241 2681 1891 
Q 2681 1491 2375 1206 
Q 2069 922 1553 922 
Q 1341 922 1119 984 
Q 981 866 932 777 
Q 884 688 884 625 
Q 884 572 936 522 
Q 988 472 1138 450 
Q 1225 438 1575 428 
Q 2219 413 2409 384 
Q 2700 344 2873 169 
Q 3047 -6 3047 -263 
Q 3047 -616 2716 -925 
Q 2228 -1381 1444 -1381 
Q 841 -1381 425 -1109 
Q 191 -953 191 -784 
Q 191 -709 225 -634 
Q 278 -519 444 -313 
Q 466 -284 763 25 
Q 600 122 533 198 
Q 466 275 466 372 
Q 466 481 555 628 
Q 644 775 966 1044 
z
M 1509 2797 
Q 1278 2797 1122 2612 
Q 966 2428 966 2047 
Q 966 1553 1178 1281 
Q 1341 1075 1591 1075 
Q 1828 1075 1981 1253 
Q 2134 1431 2134 1813 
Q 2134 2309 1919 2591 
Q 1759 2797 1509 2797 
z
M 934 0 
Q 788 -159 713 -296 
Q 638 -434 638 -550 
Q 638 -700 819 -813 
Q 1131 -1006 1722 -1006 
Q 2284 -1006 2551 -807 
Q 2819 -609 2819 -384 
Q 2819 -222 2659 -153 
Q 2497 -84 2016 -72 
Q 1313 -53 934 0 
z
" id="TimesNewRomanPSMT-67" transform="scale(0.015625)"/>
       <path d="M 928 4444 
Q 1059 4444 1151 4351 
Q 1244 4259 1244 4128 
Q 1244 3997 1151 3903 
Q 1059 3809 928 3809 
Q 797 3809 703 3903 
Q 609 3997 609 4128 
Q 609 4259 701 4351 
Q 794 4444 928 4444 
z
M 1188 2947 
L 1188 647 
Q 1188 378 1227 289 
Q 1266 200 1342 156 
Q 1419 113 1622 113 
L 1622 0 
L 231 0 
L 231 113 
Q 441 113 512 153 
Q 584 194 626 287 
Q 669 381 669 647 
L 669 1750 
Q 669 2216 641 2353 
Q 619 2453 572 2492 
Q 525 2531 444 2531 
Q 356 2531 231 2484 
L 188 2597 
L 1050 2947 
L 1188 2947 
z
" id="TimesNewRomanPSMT-69" transform="scale(0.015625)"/>
       <path d="M 1031 3803 
L 1031 2863 
L 1700 2863 
L 1700 2644 
L 1031 2644 
L 1031 788 
Q 1031 509 1111 412 
Q 1191 316 1316 316 
Q 1419 316 1516 380 
Q 1613 444 1666 569 
L 1788 569 
Q 1678 263 1478 108 
Q 1278 -47 1066 -47 
Q 922 -47 784 33 
Q 647 113 581 261 
Q 516 409 516 719 
L 516 2644 
L 63 2644 
L 63 2747 
Q 234 2816 414 2980 
Q 594 3144 734 3369 
Q 806 3488 934 3803 
L 1031 3803 
z
" id="TimesNewRomanPSMT-74" transform="scale(0.015625)"/>
       <path d="M 1050 2338 
Q 1363 2650 1419 2697 
Q 1559 2816 1721 2881 
Q 1884 2947 2044 2947 
Q 2313 2947 2506 2790 
Q 2700 2634 2766 2338 
Q 3088 2713 3309 2830 
Q 3531 2947 3766 2947 
Q 3994 2947 4170 2830 
Q 4347 2713 4450 2447 
Q 4519 2266 4519 1878 
L 4519 647 
Q 4519 378 4559 278 
Q 4591 209 4675 161 
Q 4759 113 4950 113 
L 4950 0 
L 3538 0 
L 3538 113 
L 3597 113 
Q 3781 113 3884 184 
Q 3956 234 3988 344 
Q 4000 397 4000 647 
L 4000 1878 
Q 4000 2228 3916 2372 
Q 3794 2572 3525 2572 
Q 3359 2572 3192 2489 
Q 3025 2406 2788 2181 
L 2781 2147 
L 2788 2013 
L 2788 647 
Q 2788 353 2820 281 
Q 2853 209 2943 161 
Q 3034 113 3253 113 
L 3253 0 
L 1806 0 
L 1806 113 
Q 2044 113 2133 169 
Q 2222 225 2256 338 
Q 2272 391 2272 647 
L 2272 1878 
Q 2272 2228 2169 2381 
Q 2031 2581 1784 2581 
Q 1616 2581 1450 2491 
Q 1191 2353 1050 2181 
L 1050 647 
Q 1050 366 1089 281 
Q 1128 197 1204 155 
Q 1281 113 1516 113 
L 1516 0 
L 100 0 
L 100 113 
Q 297 113 375 155 
Q 453 197 493 289 
Q 534 381 534 647 
L 534 1741 
Q 534 2213 506 2350 
Q 484 2453 437 2492 
Q 391 2531 309 2531 
Q 222 2531 100 2484 
L 53 2597 
L 916 2947 
L 1050 2947 
L 1050 2338 
z
" id="TimesNewRomanPSMT-6d" transform="scale(0.015625)"/>
       <path d="M 1822 413 
Q 1381 72 1269 19 
Q 1100 -59 909 -59 
Q 613 -59 420 144 
Q 228 347 228 678 
Q 228 888 322 1041 
Q 450 1253 767 1440 
Q 1084 1628 1822 1897 
L 1822 2009 
Q 1822 2438 1686 2597 
Q 1550 2756 1291 2756 
Q 1094 2756 978 2650 
Q 859 2544 859 2406 
L 866 2225 
Q 866 2081 792 2003 
Q 719 1925 600 1925 
Q 484 1925 411 2006 
Q 338 2088 338 2228 
Q 338 2497 613 2722 
Q 888 2947 1384 2947 
Q 1766 2947 2009 2819 
Q 2194 2722 2281 2516 
Q 2338 2381 2338 1966 
L 2338 994 
Q 2338 584 2353 492 
Q 2369 400 2405 369 
Q 2441 338 2488 338 
Q 2538 338 2575 359 
Q 2641 400 2828 588 
L 2828 413 
Q 2478 -56 2159 -56 
Q 2006 -56 1915 50 
Q 1825 156 1822 413 
z
M 1822 616 
L 1822 1706 
Q 1350 1519 1213 1441 
Q 966 1303 859 1153 
Q 753 1003 753 825 
Q 753 600 887 451 
Q 1022 303 1197 303 
Q 1434 303 1822 616 
z
" id="TimesNewRomanPSMT-61" transform="scale(0.015625)"/>
      </defs>
      <use xlink:href="#TimesNewRomanPSMT-4c"/>
      <use x="61.083984" xlink:href="#TimesNewRomanPSMT-65"/>
      <use x="105.46875" xlink:href="#TimesNewRomanPSMT-67"/>
      <use x="155.46875" xlink:href="#TimesNewRomanPSMT-69"/>
      <use x="183.251953" xlink:href="#TimesNewRomanPSMT-74"/>
      <use x="211.035156" xlink:href="#TimesNewRomanPSMT-69"/>
      <use x="238.818359" xlink:href="#TimesNewRomanPSMT-6d"/>
      <use x="316.601562" xlink:href="#TimesNewRomanPSMT-61"/>
      <use x="360.986328" xlink:href="#TimesNewRomanPSMT-74"/>
      <use x="388.769531" xlink:href="#TimesNewRomanPSMT-65"/>
     </g>
    </g>
    <g id="line2d_13">
     <path d="M 45.9 58.227108 
L 63.9 58.227108 
" style="fill:none;stroke:#ff7f0e;stroke-linecap:square;"/>
    </g>
    <g id="line2d_14"/>
    <g id="text_6">
     <!-- Adversarial -->
     <g transform="translate(71.1 61.377108)scale(0.09 -0.09)">
      <defs>
       <path d="M 2928 1419 
L 1288 1419 
L 1000 750 
Q 894 503 894 381 
Q 894 284 986 211 
Q 1078 138 1384 116 
L 1384 0 
L 50 0 
L 50 116 
Q 316 163 394 238 
Q 553 388 747 847 
L 2238 4334 
L 2347 4334 
L 3822 809 
Q 4000 384 4145 257 
Q 4291 131 4550 116 
L 4550 0 
L 2878 0 
L 2878 116 
Q 3131 128 3220 200 
Q 3309 272 3309 375 
Q 3309 513 3184 809 
L 2928 1419 
z
M 2841 1650 
L 2122 3363 
L 1384 1650 
L 2841 1650 
z
" id="TimesNewRomanPSMT-41" transform="scale(0.015625)"/>
       <path d="M 2222 322 
Q 2013 103 1813 7 
Q 1613 -88 1381 -88 
Q 913 -88 563 304 
Q 213 697 213 1313 
Q 213 1928 600 2439 
Q 988 2950 1597 2950 
Q 1975 2950 2222 2709 
L 2222 3238 
Q 2222 3728 2198 3840 
Q 2175 3953 2125 3993 
Q 2075 4034 2000 4034 
Q 1919 4034 1784 3984 
L 1744 4094 
L 2597 4444 
L 2738 4444 
L 2738 1134 
Q 2738 631 2761 520 
Q 2784 409 2836 365 
Q 2888 322 2956 322 
Q 3041 322 3181 375 
L 3216 266 
L 2366 -88 
L 2222 -88 
L 2222 322 
z
M 2222 541 
L 2222 2016 
Q 2203 2228 2109 2403 
Q 2016 2578 1861 2667 
Q 1706 2756 1559 2756 
Q 1284 2756 1069 2509 
Q 784 2184 784 1559 
Q 784 928 1059 592 
Q 1334 256 1672 256 
Q 1956 256 2222 541 
z
" id="TimesNewRomanPSMT-64" transform="scale(0.015625)"/>
       <path d="M 53 2863 
L 1400 2863 
L 1400 2747 
L 1313 2747 
Q 1191 2747 1127 2687 
Q 1063 2628 1063 2528 
Q 1063 2419 1128 2269 
L 1794 688 
L 2463 2328 
Q 2534 2503 2534 2594 
Q 2534 2638 2509 2666 
Q 2475 2713 2422 2730 
Q 2369 2747 2206 2747 
L 2206 2863 
L 3141 2863 
L 3141 2747 
Q 2978 2734 2916 2681 
Q 2806 2588 2719 2369 
L 1703 -88 
L 1575 -88 
L 553 2328 
Q 484 2497 421 2570 
Q 359 2644 263 2694 
Q 209 2722 53 2747 
L 53 2863 
z
" id="TimesNewRomanPSMT-76" transform="scale(0.015625)"/>
       <path d="M 1038 2947 
L 1038 2303 
Q 1397 2947 1775 2947 
Q 1947 2947 2059 2842 
Q 2172 2738 2172 2600 
Q 2172 2478 2090 2393 
Q 2009 2309 1897 2309 
Q 1788 2309 1652 2417 
Q 1516 2525 1450 2525 
Q 1394 2525 1328 2463 
Q 1188 2334 1038 2041 
L 1038 669 
Q 1038 431 1097 309 
Q 1138 225 1241 169 
Q 1344 113 1538 113 
L 1538 0 
L 72 0 
L 72 113 
Q 291 113 397 181 
Q 475 231 506 341 
Q 522 394 522 644 
L 522 1753 
Q 522 2253 501 2348 
Q 481 2444 426 2487 
Q 372 2531 291 2531 
Q 194 2531 72 2484 
L 41 2597 
L 906 2947 
L 1038 2947 
z
" id="TimesNewRomanPSMT-72" transform="scale(0.015625)"/>
       <path d="M 1184 4444 
L 1184 647 
Q 1184 378 1223 290 
Q 1263 203 1344 158 
Q 1425 113 1647 113 
L 1647 0 
L 244 0 
L 244 113 
Q 441 113 512 153 
Q 584 194 625 287 
Q 666 381 666 647 
L 666 3247 
Q 666 3731 644 3842 
Q 622 3953 573 3993 
Q 525 4034 450 4034 
Q 369 4034 244 3984 
L 191 4094 
L 1044 4444 
L 1184 4444 
z
" id="TimesNewRomanPSMT-6c" transform="scale(0.015625)"/>
      </defs>
      <use xlink:href="#TimesNewRomanPSMT-41"/>
      <use x="72.216797" xlink:href="#TimesNewRomanPSMT-64"/>
      <use x="122.216797" xlink:href="#TimesNewRomanPSMT-76"/>
      <use x="172.216797" xlink:href="#TimesNewRomanPSMT-65"/>
      <use x="216.601562" xlink:href="#TimesNewRomanPSMT-72"/>
      <use x="249.902344" xlink:href="#TimesNewRomanPSMT-73"/>
      <use x="288.818359" xlink:href="#TimesNewRomanPSMT-61"/>
      <use x="333.203125" xlink:href="#TimesNewRomanPSMT-72"/>
      <use x="366.503906" xlink:href="#TimesNewRomanPSMT-69"/>
      <use x="394.287109" xlink:href="#TimesNewRomanPSMT-61"/>
      <use x="438.671875" xlink:href="#TimesNewRomanPSMT-6c"/>
     </g>
    </g>
   </g>
  </g>
  <g id="axes_2">
   <g id="patch_7">
    <path d="M 37.8 141.696 
L 261.9 141.696 
L 261.9 78.933736 
L 37.8 78.933736 
z
" style="fill:none;"/>
   </g>
   <g id="matplotlib.axis_3">
    <g id="xtick_6">
     <g id="line2d_15">
      <g>
       <use style="stroke:#000000;stroke-width:0.8;" x="47.986364" xlink:href="#m4c664942f1" y="141.696"/>
      </g>
     </g>
     <g id="text_7">
      <!-- 0 -->
      <g transform="translate(45.123239 155.534594)scale(0.09 -0.09)">
       <use xlink:href="#DejaVuSans-30"/>
      </g>
     </g>
    </g>
    <g id="xtick_7">
     <g id="line2d_16">
      <g>
       <use style="stroke:#000000;stroke-width:0.8;" x="99.34618" xlink:href="#m4c664942f1" y="141.696"/>
      </g>
     </g>
     <g id="text_8">
      <!-- 30 -->
      <g transform="translate(93.61993 155.534594)scale(0.09 -0.09)">
       <defs>
        <path d="M 2597 2516 
Q 3050 2419 3304 2112 
Q 3559 1806 3559 1356 
Q 3559 666 3084 287 
Q 2609 -91 1734 -91 
Q 1441 -91 1130 -33 
Q 819 25 488 141 
L 488 750 
Q 750 597 1062 519 
Q 1375 441 1716 441 
Q 2309 441 2620 675 
Q 2931 909 2931 1356 
Q 2931 1769 2642 2001 
Q 2353 2234 1838 2234 
L 1294 2234 
L 1294 2753 
L 1863 2753 
Q 2328 2753 2575 2939 
Q 2822 3125 2822 3475 
Q 2822 3834 2567 4026 
Q 2313 4219 1838 4219 
Q 1578 4219 1281 4162 
Q 984 4106 628 3988 
L 628 4550 
Q 988 4650 1302 4700 
Q 1616 4750 1894 4750 
Q 2613 4750 3031 4423 
Q 3450 4097 3450 3541 
Q 3450 3153 3228 2886 
Q 3006 2619 2597 2516 
z
" id="DejaVuSans-33" transform="scale(0.015625)"/>
       </defs>
       <use xlink:href="#DejaVuSans-33"/>
       <use x="63.623047" xlink:href="#DejaVuSans-30"/>
      </g>
     </g>
    </g>
    <g id="xtick_8">
     <g id="line2d_17">
      <g>
       <use style="stroke:#000000;stroke-width:0.8;" x="150.705997" xlink:href="#m4c664942f1" y="141.696"/>
      </g>
     </g>
     <g id="text_9">
      <!-- 60 -->
      <g transform="translate(144.979747 155.534594)scale(0.09 -0.09)">
       <defs>
        <path d="M 2113 2584 
Q 1688 2584 1439 2293 
Q 1191 2003 1191 1497 
Q 1191 994 1439 701 
Q 1688 409 2113 409 
Q 2538 409 2786 701 
Q 3034 994 3034 1497 
Q 3034 2003 2786 2293 
Q 2538 2584 2113 2584 
z
M 3366 4563 
L 3366 3988 
Q 3128 4100 2886 4159 
Q 2644 4219 2406 4219 
Q 1781 4219 1451 3797 
Q 1122 3375 1075 2522 
Q 1259 2794 1537 2939 
Q 1816 3084 2150 3084 
Q 2853 3084 3261 2657 
Q 3669 2231 3669 1497 
Q 3669 778 3244 343 
Q 2819 -91 2113 -91 
Q 1303 -91 875 529 
Q 447 1150 447 2328 
Q 447 3434 972 4092 
Q 1497 4750 2381 4750 
Q 2619 4750 2861 4703 
Q 3103 4656 3366 4563 
z
" id="DejaVuSans-36" transform="scale(0.015625)"/>
       </defs>
       <use xlink:href="#DejaVuSans-36"/>
       <use x="63.623047" xlink:href="#DejaVuSans-30"/>
      </g>
     </g>
    </g>
    <g id="xtick_9">
     <g id="line2d_18">
      <g>
       <use style="stroke:#000000;stroke-width:0.8;" x="202.065814" xlink:href="#m4c664942f1" y="141.696"/>
      </g>
     </g>
     <g id="text_10">
      <!-- 90 -->
      <g transform="translate(196.339564 155.534594)scale(0.09 -0.09)">
       <defs>
        <path d="M 703 97 
L 703 672 
Q 941 559 1184 500 
Q 1428 441 1663 441 
Q 2288 441 2617 861 
Q 2947 1281 2994 2138 
Q 2813 1869 2534 1725 
Q 2256 1581 1919 1581 
Q 1219 1581 811 2004 
Q 403 2428 403 3163 
Q 403 3881 828 4315 
Q 1253 4750 1959 4750 
Q 2769 4750 3195 4129 
Q 3622 3509 3622 2328 
Q 3622 1225 3098 567 
Q 2575 -91 1691 -91 
Q 1453 -91 1209 -44 
Q 966 3 703 97 
z
M 1959 2075 
Q 2384 2075 2632 2365 
Q 2881 2656 2881 3163 
Q 2881 3666 2632 3958 
Q 2384 4250 1959 4250 
Q 1534 4250 1286 3958 
Q 1038 3666 1038 3163 
Q 1038 2656 1286 2365 
Q 1534 2075 1959 2075 
z
" id="DejaVuSans-39" transform="scale(0.015625)"/>
       </defs>
       <use xlink:href="#DejaVuSans-39"/>
       <use x="63.623047" xlink:href="#DejaVuSans-30"/>
      </g>
     </g>
    </g>
    <g id="xtick_10">
     <g id="line2d_19">
      <g>
       <use style="stroke:#000000;stroke-width:0.8;" x="253.42563" xlink:href="#m4c664942f1" y="141.696"/>
      </g>
     </g>
     <g id="text_11">
      <!-- 120 -->
      <g transform="translate(244.836255 155.534594)scale(0.09 -0.09)">
       <defs>
        <path d="M 794 531 
L 1825 531 
L 1825 4091 
L 703 3866 
L 703 4441 
L 1819 4666 
L 2450 4666 
L 2450 531 
L 3481 531 
L 3481 0 
L 794 0 
L 794 531 
z
" id="DejaVuSans-31" transform="scale(0.015625)"/>
       </defs>
       <use xlink:href="#DejaVuSans-31"/>
       <use x="63.623047" xlink:href="#DejaVuSans-32"/>
       <use x="127.246094" xlink:href="#DejaVuSans-30"/>
      </g>
     </g>
    </g>
    <g id="text_12">
     <!-- Epochs -->
     <g transform="translate(135.130469 168.350063)scale(0.1 -0.1)">
      <defs>
       <path d="M 1338 4006 
L 1338 2331 
L 2269 2331 
Q 2631 2331 2753 2441 
Q 2916 2584 2934 2947 
L 3050 2947 
L 3050 1472 
L 2934 1472 
Q 2891 1781 2847 1869 
Q 2791 1978 2662 2040 
Q 2534 2103 2269 2103 
L 1338 2103 
L 1338 706 
Q 1338 425 1363 364 
Q 1388 303 1450 267 
Q 1513 231 1688 231 
L 2406 231 
Q 2766 231 2928 281 
Q 3091 331 3241 478 
Q 3434 672 3638 1063 
L 3763 1063 
L 3397 0 
L 131 0 
L 131 116 
L 281 116 
Q 431 116 566 188 
Q 666 238 702 338 
Q 738 438 738 747 
L 738 3500 
Q 738 3903 656 3997 
Q 544 4122 281 4122 
L 131 4122 
L 131 4238 
L 3397 4238 
L 3444 3309 
L 3322 3309 
Q 3256 3644 3176 3769 
Q 3097 3894 2941 3959 
Q 2816 4006 2500 4006 
L 1338 4006 
z
" id="TimesNewRomanPSMT-45" transform="scale(0.015625)"/>
       <path d="M -6 2578 
L 875 2934 
L 994 2934 
L 994 2266 
Q 1216 2644 1439 2795 
Q 1663 2947 1909 2947 
Q 2341 2947 2628 2609 
Q 2981 2197 2981 1534 
Q 2981 794 2556 309 
Q 2206 -88 1675 -88 
Q 1444 -88 1275 -22 
Q 1150 25 994 166 
L 994 -706 
Q 994 -1000 1030 -1079 
Q 1066 -1159 1155 -1206 
Q 1244 -1253 1478 -1253 
L 1478 -1369 
L -22 -1369 
L -22 -1253 
L 56 -1253 
Q 228 -1256 350 -1188 
Q 409 -1153 442 -1076 
Q 475 -1000 475 -688 
L 475 2019 
Q 475 2297 450 2372 
Q 425 2447 370 2484 
Q 316 2522 222 2522 
Q 147 2522 31 2478 
L -6 2578 
z
M 994 2081 
L 994 1013 
Q 994 666 1022 556 
Q 1066 375 1236 237 
Q 1406 100 1666 100 
Q 1978 100 2172 344 
Q 2425 663 2425 1241 
Q 2425 1897 2138 2250 
Q 1938 2494 1663 2494 
Q 1513 2494 1366 2419 
Q 1253 2363 994 2081 
z
" id="TimesNewRomanPSMT-70" transform="scale(0.015625)"/>
       <path d="M 2631 1088 
Q 2516 522 2178 217 
Q 1841 -88 1431 -88 
Q 944 -88 581 321 
Q 219 731 219 1428 
Q 219 2103 620 2525 
Q 1022 2947 1584 2947 
Q 2006 2947 2278 2723 
Q 2550 2500 2550 2259 
Q 2550 2141 2473 2067 
Q 2397 1994 2259 1994 
Q 2075 1994 1981 2113 
Q 1928 2178 1911 2362 
Q 1894 2547 1784 2644 
Q 1675 2738 1481 2738 
Q 1169 2738 978 2506 
Q 725 2200 725 1697 
Q 725 1184 976 792 
Q 1228 400 1656 400 
Q 1963 400 2206 609 
Q 2378 753 2541 1131 
L 2631 1088 
z
" id="TimesNewRomanPSMT-63" transform="scale(0.015625)"/>
       <path d="M 1041 4444 
L 1041 2350 
Q 1388 2731 1591 2839 
Q 1794 2947 1997 2947 
Q 2241 2947 2416 2812 
Q 2591 2678 2675 2391 
Q 2734 2191 2734 1659 
L 2734 647 
Q 2734 375 2778 275 
Q 2809 200 2884 156 
Q 2959 113 3159 113 
L 3159 0 
L 1753 0 
L 1753 113 
L 1819 113 
Q 2019 113 2097 173 
Q 2175 234 2206 353 
Q 2216 403 2216 647 
L 2216 1659 
Q 2216 2128 2167 2275 
Q 2119 2422 2012 2495 
Q 1906 2569 1756 2569 
Q 1603 2569 1437 2487 
Q 1272 2406 1041 2159 
L 1041 647 
Q 1041 353 1073 281 
Q 1106 209 1195 161 
Q 1284 113 1503 113 
L 1503 0 
L 84 0 
L 84 113 
Q 275 113 384 172 
Q 447 203 484 290 
Q 522 378 522 647 
L 522 3238 
Q 522 3728 498 3840 
Q 475 3953 426 3993 
Q 378 4034 297 4034 
Q 231 4034 84 3984 
L 41 4094 
L 897 4444 
L 1041 4444 
z
" id="TimesNewRomanPSMT-68" transform="scale(0.015625)"/>
      </defs>
      <use xlink:href="#TimesNewRomanPSMT-45"/>
      <use x="61.083984" xlink:href="#TimesNewRomanPSMT-70"/>
      <use x="111.083984" xlink:href="#TimesNewRomanPSMT-6f"/>
      <use x="161.083984" xlink:href="#TimesNewRomanPSMT-63"/>
      <use x="205.46875" xlink:href="#TimesNewRomanPSMT-68"/>
      <use x="255.46875" xlink:href="#TimesNewRomanPSMT-73"/>
     </g>
    </g>
   </g>
   <g id="matplotlib.axis_4">
    <g id="ytick_4">
     <g id="line2d_20">
      <g>
       <use style="stroke:#000000;stroke-width:0.8;" x="37.8" xlink:href="#mf65fbcce21" y="141.696"/>
      </g>
     </g>
     <g id="text_13">
      <!-- 0.2 -->
      <g transform="translate(16.487188 145.115297)scale(0.09 -0.09)">
       <use xlink:href="#DejaVuSans-30"/>
       <use x="63.623047" xlink:href="#DejaVuSans-2e"/>
       <use x="95.410156" xlink:href="#DejaVuSans-32"/>
      </g>
     </g>
    </g>
    <g id="ytick_5">
     <g id="line2d_21">
      <g>
       <use style="stroke:#000000;stroke-width:0.8;" x="37.8" xlink:href="#mf65fbcce21" y="111.41264"/>
      </g>
     </g>
     <g id="text_14">
      <!-- 0.6 -->
      <g transform="translate(16.487188 114.831937)scale(0.09 -0.09)">
       <use xlink:href="#DejaVuSans-30"/>
       <use x="63.623047" xlink:href="#DejaVuSans-2e"/>
       <use x="95.410156" xlink:href="#DejaVuSans-36"/>
      </g>
     </g>
    </g>
    <g id="ytick_6">
     <g id="line2d_22">
      <g>
       <use style="stroke:#000000;stroke-width:0.8;" x="37.8" xlink:href="#mf65fbcce21" y="81.129279"/>
      </g>
     </g>
     <g id="text_15">
      <!-- 1.0 -->
      <g transform="translate(16.487188 84.548576)scale(0.09 -0.09)">
       <use xlink:href="#DejaVuSans-31"/>
       <use x="63.623047" xlink:href="#DejaVuSans-2e"/>
       <use x="95.410156" xlink:href="#DejaVuSans-30"/>
      </g>
     </g>
    </g>
    <g id="text_16">
     <!-- Accuracy -->
     <g transform="translate(10.329375 129.468774)rotate(-90)scale(0.1 -0.1)">
      <defs>
       <path d="M 2709 2863 
L 2709 1128 
Q 2709 631 2732 520 
Q 2756 409 2807 365 
Q 2859 322 2928 322 
Q 3025 322 3147 375 
L 3191 266 
L 2334 -88 
L 2194 -88 
L 2194 519 
Q 1825 119 1631 15 
Q 1438 -88 1222 -88 
Q 981 -88 804 51 
Q 628 191 559 409 
Q 491 628 491 1028 
L 491 2306 
Q 491 2509 447 2587 
Q 403 2666 317 2708 
Q 231 2750 6 2747 
L 6 2863 
L 1009 2863 
L 1009 947 
Q 1009 547 1148 422 
Q 1288 297 1484 297 
Q 1619 297 1789 381 
Q 1959 466 2194 703 
L 2194 2325 
Q 2194 2569 2105 2655 
Q 2016 2741 1734 2747 
L 1734 2863 
L 2709 2863 
z
" id="TimesNewRomanPSMT-75" transform="scale(0.015625)"/>
       <path d="M 38 2863 
L 1372 2863 
L 1372 2747 
L 1306 2747 
Q 1166 2747 1095 2686 
Q 1025 2625 1025 2534 
Q 1025 2413 1128 2197 
L 1825 753 
L 2466 2334 
Q 2519 2463 2519 2588 
Q 2519 2644 2497 2672 
Q 2472 2706 2419 2726 
Q 2366 2747 2231 2747 
L 2231 2863 
L 3163 2863 
L 3163 2747 
Q 3047 2734 2984 2696 
Q 2922 2659 2847 2556 
Q 2819 2513 2741 2316 
L 1575 -541 
Q 1406 -956 1132 -1168 
Q 859 -1381 606 -1381 
Q 422 -1381 303 -1275 
Q 184 -1169 184 -1031 
Q 184 -900 270 -820 
Q 356 -741 506 -741 
Q 609 -741 788 -809 
Q 913 -856 944 -856 
Q 1038 -856 1148 -759 
Q 1259 -663 1372 -384 
L 1575 113 
L 547 2272 
Q 500 2369 397 2513 
Q 319 2622 269 2659 
Q 197 2709 38 2747 
L 38 2863 
z
" id="TimesNewRomanPSMT-79" transform="scale(0.015625)"/>
      </defs>
      <use xlink:href="#TimesNewRomanPSMT-41"/>
      <use x="72.216797" xlink:href="#TimesNewRomanPSMT-63"/>
      <use x="116.601562" xlink:href="#TimesNewRomanPSMT-63"/>
      <use x="160.986328" xlink:href="#TimesNewRomanPSMT-75"/>
      <use x="210.986328" xlink:href="#TimesNewRomanPSMT-72"/>
      <use x="244.287109" xlink:href="#TimesNewRomanPSMT-61"/>
      <use x="288.671875" xlink:href="#TimesNewRomanPSMT-63"/>
      <use x="333.056641" xlink:href="#TimesNewRomanPSMT-79"/>
     </g>
    </g>
   </g>
   <g id="line2d_23">
    <path clip-path="url(#p6e1d5a6939)" d="M 47.986364 120.497648 
L 49.698358 109.898472 
L 51.410351 123.525984 
L 53.122345 118.98348 
L 54.834339 125.040152 
L 56.546333 123.525984 
L 58.258327 105.355968 
L 59.970321 105.355968 
L 61.682315 99.299296 
L 63.394309 108.384304 
L 65.106303 103.8418 
L 66.818296 102.327632 
L 68.53029 102.327632 
L 70.242284 97.785128 
L 71.954278 97.785128 
L 73.666272 94.756792 
L 75.378266 88.70012 
L 77.09026 94.756792 
L 78.802254 85.671784 
L 80.514248 93.242624 
L 82.226241 88.70012 
L 83.938235 88.70012 
L 85.650229 93.242624 
L 87.362223 82.643447 
L 89.074217 90.214288 
L 90.786211 88.70012 
L 92.498205 84.157615 
L 94.210199 84.157615 
L 95.922193 85.671784 
L 97.634186 84.157615 
L 99.34618 85.671784 
L 101.058174 82.643447 
L 102.770168 85.671784 
L 104.482162 84.157615 
L 106.194156 82.643447 
L 107.90615 81.129279 
L 109.618144 81.129279 
L 111.330138 82.643447 
L 113.042131 82.643447 
L 114.754125 82.643447 
L 116.466119 82.643447 
L 118.178113 84.157615 
L 119.890107 81.129279 
L 121.602101 84.157615 
L 123.314095 85.671784 
L 125.026089 82.643447 
L 126.738083 85.671784 
L 128.450076 82.643447 
L 130.16207 82.643447 
L 131.874064 82.643447 
L 133.586058 81.129279 
L 135.298052 84.157615 
L 137.010046 84.157615 
L 138.72204 88.70012 
L 140.434034 85.671784 
L 142.146028 81.129279 
L 143.858021 84.157615 
L 145.570015 84.157615 
L 147.282009 81.129279 
L 148.994003 84.157615 
L 150.705997 84.157615 
L 152.417991 81.129279 
L 154.129985 85.671784 
L 155.841979 85.671784 
L 157.553972 82.643447 
L 159.265966 84.157615 
L 160.97796 84.157615 
L 162.689954 81.129279 
L 164.401948 85.671784 
L 166.113942 84.157615 
L 167.825936 82.643447 
L 169.53793 85.671784 
L 171.249924 82.643447 
L 172.961917 85.671784 
L 174.673911 84.157615 
L 176.385905 82.643447 
L 178.097899 84.157615 
L 179.809893 81.129279 
L 181.521887 82.643447 
L 183.233881 84.157615 
L 184.945875 82.643447 
L 186.657869 84.157615 
L 188.369862 84.157615 
L 190.081856 81.129279 
L 191.79385 81.129279 
L 193.505844 82.643447 
L 195.217838 84.157615 
L 196.929832 82.643447 
L 198.641826 82.643447 
L 200.35382 82.643447 
L 202.065814 81.129279 
L 203.777807 82.643447 
L 205.489801 84.157615 
L 207.201795 82.643447 
L 208.913789 81.129279 
L 210.625783 82.643447 
L 212.337777 81.129279 
L 214.049771 84.157615 
L 215.761765 82.643447 
L 217.473759 82.643447 
L 219.185752 82.643447 
L 219.185752 84.157615 
L 220.897746 82.643447 
L 222.60974 82.643447 
L 224.321734 81.129279 
L 226.033728 82.643447 
L 227.745722 81.129279 
L 229.457716 84.157615 
L 231.16971 82.643447 
L 232.881704 84.157615 
L 234.593697 82.643447 
L 236.305691 81.129279 
L 238.017685 82.643447 
L 239.729679 81.129279 
L 241.441673 81.129279 
L 243.153667 82.643447 
L 244.865661 84.157615 
L 246.577655 85.671784 
L 248.289649 85.671784 
L 250.001642 84.157615 
L 251.713636 84.157615 
" style="fill:none;stroke:#1f77b4;stroke-linecap:square;stroke-width:2;"/>
   </g>
   <g id="line2d_24">
    <path clip-path="url(#p6e1d5a6939)" d="M 47.986364 117.469312 
L 49.698358 117.469312 
L 51.410351 123.525984 
L 53.122345 109.898472 
L 54.834339 111.41264 
L 56.546333 115.955144 
L 58.258327 114.440976 
L 59.970321 120.497648 
L 61.682315 118.98348 
L 63.394309 112.926808 
L 65.106303 97.785128 
L 66.818296 115.955144 
L 68.53029 115.955144 
L 70.242284 97.785128 
L 71.954278 94.756792 
L 73.666272 100.813464 
L 75.378266 103.8418 
L 77.09026 103.8418 
L 78.802254 94.756792 
L 80.514248 93.242624 
L 82.226241 90.214288 
L 83.938235 90.214288 
L 85.650229 90.214288 
L 87.362223 93.242624 
L 89.074217 97.785128 
L 90.786211 94.756792 
L 92.498205 94.756792 
L 94.210199 90.214288 
L 95.922193 100.813464 
L 97.634186 90.214288 
L 99.34618 88.70012 
L 101.058174 88.70012 
L 102.770168 91.728456 
L 104.482162 91.728456 
L 106.194156 85.671784 
L 107.90615 87.185952 
L 109.618144 97.785128 
L 111.330138 94.756792 
L 113.042131 85.671784 
L 114.754125 88.70012 
L 116.466119 85.671784 
L 118.178113 87.185952 
L 119.890107 87.185952 
L 121.602101 87.185952 
L 123.314095 97.785128 
L 125.026089 84.157615 
L 126.738083 87.185952 
L 128.450076 84.157615 
L 130.16207 84.157615 
L 131.874064 82.643447 
L 133.586058 88.70012 
L 135.298052 87.185952 
L 137.010046 85.671784 
L 138.72204 85.671784 
L 140.434034 84.157615 
L 142.146028 82.643447 
L 143.858021 84.157615 
L 145.570015 87.185952 
L 147.282009 84.157615 
L 148.994003 85.671784 
L 150.705997 82.643447 
L 152.417991 85.671784 
L 154.129985 85.671784 
L 155.841979 85.671784 
L 157.553972 81.129279 
L 159.265966 85.671784 
L 160.97796 85.671784 
L 162.689954 81.129279 
L 164.401948 87.185952 
L 166.113942 81.129279 
L 167.825936 82.643447 
L 169.53793 84.157615 
L 171.249924 82.643447 
L 172.961917 81.129279 
L 174.673911 84.157615 
L 176.385905 84.157615 
L 178.097899 82.643447 
L 179.809893 82.643447 
L 181.521887 81.129279 
L 183.233881 84.157615 
L 184.945875 82.643447 
L 186.657869 82.643447 
L 188.369862 82.643447 
L 190.081856 85.671784 
L 191.79385 81.129279 
L 193.505844 82.643447 
L 195.217838 82.643447 
L 196.929832 81.129279 
L 198.641826 82.643447 
L 200.35382 82.643447 
L 202.065814 81.129279 
L 203.777807 85.671784 
L 205.489801 84.157615 
L 207.201795 82.643447 
L 208.913789 82.643447 
L 210.625783 84.157615 
L 212.337777 84.157615 
L 214.049771 81.129279 
L 215.761765 82.643447 
L 217.473759 87.185952 
L 219.185752 84.157615 
L 219.185752 87.185952 
L 220.897746 82.643447 
L 222.60974 84.157615 
L 224.321734 82.643447 
L 226.033728 85.671784 
L 227.745722 81.129279 
L 229.457716 82.643447 
L 231.16971 85.671784 
L 232.881704 82.643447 
L 234.593697 85.671784 
L 236.305691 84.157615 
L 238.017685 82.643447 
L 239.729679 82.643447 
L 241.441673 82.643447 
L 243.153667 81.129279 
L 244.865661 85.671784 
L 246.577655 85.671784 
L 248.289649 84.157615 
L 250.001642 82.643447 
L 251.713636 82.643447 
" style="fill:none;stroke:#ff7f0e;stroke-linecap:square;stroke-width:2;"/>
   </g>
   <g id="patch_8">
    <path d="M 37.8 141.696 
L 37.8 78.933736 
" style="fill:none;stroke:#000000;stroke-linecap:square;stroke-linejoin:miter;stroke-width:0.8;"/>
   </g>
   <g id="patch_9">
    <path d="M 261.9 141.696 
L 261.9 78.933736 
" style="fill:none;stroke:#000000;stroke-linecap:square;stroke-linejoin:miter;stroke-width:0.8;"/>
   </g>
   <g id="patch_10">
    <path d="M 37.8 141.696 
L 261.9 141.696 
" style="fill:none;stroke:#000000;stroke-linecap:square;stroke-linejoin:miter;stroke-width:0.8;"/>
   </g>
   <g id="patch_11">
    <path d="M 37.8 78.933736 
L 261.9 78.933736 
" style="fill:none;stroke:#000000;stroke-linecap:square;stroke-linejoin:miter;stroke-width:0.8;"/>
   </g>
  </g>
 </g>
 <defs>
  <clipPath id="pb4c56a0dab">
   <rect height="62.762264" width="224.1" x="37.8" y="8.64"/>
  </clipPath>
  <clipPath id="p6e1d5a6939">
   <rect height="62.762264" width="224.1" x="37.8" y="78.933736"/>
  </clipPath>
 </defs>
</svg>
