<?xml version="1.0" encoding="utf-8" standalone="no"?>
<!DOCTYPE svg PUBLIC "-//W3C//DTD SVG 1.1//EN"
  "http://www.w3.org/Graphics/SVG/1.1/DTD/svg11.dtd">
<svg height="172.8pt" version="1.1" viewBox="0 0 270 172.8" width="270pt" xmlns="http://www.w3.org/2000/svg" xmlns:xlink="http://www.w3.org/1999/xlink">
 <metadata>
  <rdf:RDF xmlns:cc="http://creativecommons.org/ns#" xmlns:dc="http://purl.org/dc/elements/1.1/" xmlns:rdf="http://www.w3.org/1999/02/22-rdf-syntax-ns#">
   <cc:Work>
    <dc:type rdf:resource="http://purl.org/dc/dcmitype/StillImage"/>
    <dc:date>2022-03-27T16:18:42.640247</dc:date>
    <dc:format>image/svg+xml</dc:format>
    <dc:creator>
     <cc:Agent>
      <dc:title>Matplotlib v3.4.3, https://matplotlib.org/</dc:title>
     </cc:Agent>
    </dc:creator>
   </cc:Work>
  </rdf:RDF>
 </metadata>
 <defs>
  <style type="text/css">*{stroke-linecap:butt;stroke-linejoin:round;}</style>
 </defs>
 <g id="figure_1">
  <g id="patch_1">
   <path d="M 0 172.8 
L 270 172.8 
L 270 0 
L 0 0 
z
" style="fill:none;"/>
  </g>
  <g id="axes_1">
   <g id="patch_2">
    <path d="M 37.8 71.402264 
L 261.9 71.402264 
L 261.9 8.64 
L 37.8 8.64 
z
" style="fill:none;"/>
   </g>
   <g id="PolyCollection_1">
    <defs>
     <path d="M 47.986364 -150.644035 
L 47.986364 -156.882449 
L 49.118182 -157.341447 
L 50.25 -154.503028 
L 51.381818 -157.762415 
L 52.513636 -157.181243 
L 53.645455 -155.782569 
L 54.777273 -154.621134 
L 55.909091 -154.663599 
L 57.040909 -155.307791 
L 58.172727 -153.053914 
L 59.304545 -153.55254 
L 60.436364 -153.67552 
L 61.568182 -154.058158 
L 62.7 -155.436339 
L 63.831818 -152.923947 
L 64.963636 -152.757093 
L 66.095455 -152.654726 
L 67.227273 -154.995752 
L 68.359091 -151.080803 
L 69.490909 -152.432362 
L 70.622727 -153.121472 
L 71.754545 -148.64716 
L 72.886364 -151.949035 
L 74.018182 -152.700478 
L 75.15 -152.877377 
L 76.281818 -151.59087 
L 77.413636 -151.707574 
L 78.545455 -152.084862 
L 79.677273 -153.032987 
L 80.809091 -151.479498 
L 81.940909 -151.991792 
L 83.072727 -148.986956 
L 84.204545 -153.175853 
L 85.336364 -150.8745 
L 86.468182 -152.644251 
L 87.6 -148.941811 
L 88.731818 -150.412974 
L 89.863636 -149.446862 
L 90.995455 -148.017672 
L 92.127273 -148.98176 
L 93.259091 -148.327821 
L 94.390909 -147.049146 
L 95.522727 -150.797593 
L 96.654545 -151.189119 
L 97.786364 -150.179709 
L 98.918182 -145.606647 
L 100.05 -151.546665 
L 101.181818 -149.732589 
L 102.313636 -148.230209 
L 103.445455 -150.08828 
L 104.577273 -147.790405 
L 105.709091 -147.147015 
L 106.840909 -146.314747 
L 107.972727 -145.818287 
L 109.104545 -144.451649 
L 110.236364 -144.291575 
L 111.368182 -144.73426 
L 112.5 -149.778746 
L 113.631818 -146.105926 
L 114.763636 -148.589712 
L 115.895455 -147.797362 
L 117.027273 -145.155391 
L 118.159091 -144.80643 
L 119.290909 -140.76514 
L 120.422727 -142.721502 
L 121.554545 -142.565822 
L 122.686364 -141.759585 
L 123.818182 -144.768294 
L 124.95 -148.129532 
L 126.081818 -141.051113 
L 127.213636 -136.949199 
L 128.345455 -139.492096 
L 129.477273 -142.588565 
L 130.609091 -144.828065 
L 131.740909 -142.855577 
L 132.872727 -143.303597 
L 134.004545 -143.64722 
L 135.136364 -144.097307 
L 136.268182 -136.705427 
L 137.4 -145.518209 
L 138.531818 -139.274317 
L 139.663636 -144.306406 
L 140.795455 -135.55738 
L 141.927273 -141.608334 
L 143.059091 -139.196304 
L 144.190909 -135.225348 
L 145.322727 -137.388702 
L 146.454545 -139.802893 
L 147.586364 -133.363803 
L 148.718182 -131.976322 
L 149.85 -135.131357 
L 150.981818 -136.1124 
L 152.113636 -137.698356 
L 153.245455 -137.761084 
L 154.377273 -131.349863 
L 155.509091 -139.594168 
L 156.640909 -138.730616 
L 157.772727 -139.742507 
L 158.904545 -133.639219 
L 160.036364 -132.723362 
L 161.168182 -136.98284 
L 162.3 -132.483875 
L 163.431818 -135.748961 
L 164.563636 -135.151478 
L 165.695455 -130.565714 
L 166.827273 -133.403835 
L 167.959091 -133.165305 
L 169.090909 -128.668488 
L 170.222727 -137.584263 
L 171.354545 -135.882943 
L 172.486364 -137.868592 
L 173.618182 -134.132658 
L 174.75 -126.875523 
L 175.881818 -126.725361 
L 177.013636 -131.077076 
L 178.145455 -128.266782 
L 179.277273 -132.260141 
L 180.409091 -128.431584 
L 181.540909 -129.443366 
L 182.672727 -132.56267 
L 183.804545 -129.208134 
L 184.936364 -140.883213 
L 186.068182 -130.373978 
L 187.2 -134.50873 
L 188.331818 -132.632598 
L 189.463636 -137.743611 
L 190.595455 -131.305748 
L 191.727273 -144.600446 
L 192.859091 -132.043329 
L 193.990909 -125.887255 
L 195.122727 -127.706032 
L 196.254545 -129.03212 
L 197.386364 -123.226486 
L 198.518182 -124.040652 
L 199.65 -124.214162 
L 200.781818 -128.712825 
L 201.913636 -124.974506 
L 203.045455 -125.750753 
L 204.177273 -138.708394 
L 205.309091 -129.398327 
L 206.440909 -122.570337 
L 207.572727 -114.368543 
L 208.704545 -131.187246 
L 209.836364 -126.884708 
L 210.968182 -119.373318 
L 212.1 -123.048666 
L 213.231818 -135.961493 
L 214.363636 -122.856283 
L 215.495455 -121.65833 
L 216.627273 -118.573735 
L 217.759091 -132.231031 
L 218.890909 -136.004594 
L 220.022727 -123.274637 
L 221.154545 -133.987532 
L 222.286364 -132.864433 
L 223.418182 -130.651749 
L 224.55 -128.178642 
L 225.681818 -128.003134 
L 226.813636 -122.47196 
L 227.945455 -125.461252 
L 229.077273 -120.041526 
L 230.209091 -132.243875 
L 231.340909 -128.23843 
L 232.472727 -125.339938 
L 233.604545 -125.796686 
L 234.736364 -133.183558 
L 235.868182 -123.490215 
L 237 -126.148939 
L 238.131818 -124.632898 
L 239.263636 -121.607123 
L 240.395455 -126.983189 
L 241.527273 -122.173628 
L 242.659091 -121.534945 
L 243.790909 -123.067151 
L 244.922727 -127.285163 
L 246.054545 -119.075775 
L 247.186364 -128.501146 
L 248.318182 -130.117585 
L 249.45 -123.975439 
L 250.581818 -124.967932 
L 251.713636 -122.396157 
L 251.713636 -116.241834 
L 251.713636 -116.241834 
L 250.581818 -120.169719 
L 249.45 -118.499832 
L 248.318182 -123.04426 
L 247.186364 -119.89865 
L 246.054545 -115.920157 
L 244.922727 -120.187511 
L 243.790909 -119.156679 
L 242.659091 -116.928731 
L 241.527273 -114.526644 
L 240.395455 -119.304517 
L 239.263636 -115.427337 
L 238.131818 -116.601547 
L 237 -118.575987 
L 235.868182 -117.549981 
L 234.736364 -124.73341 
L 233.604545 -118.695314 
L 232.472727 -118.472928 
L 231.340909 -118.818972 
L 230.209091 -124.787526 
L 229.077273 -114.896046 
L 227.945455 -119.425762 
L 226.813636 -117.787964 
L 225.681818 -120.048743 
L 224.55 -119.928732 
L 223.418182 -122.389708 
L 222.286364 -121.770278 
L 221.154545 -124.730081 
L 220.022727 -116.338841 
L 218.890909 -121.175633 
L 217.759091 -122.571337 
L 216.627273 -114.315928 
L 215.495455 -116.46719 
L 214.363636 -118.960046 
L 213.231818 -126.536153 
L 212.1 -118.987655 
L 210.968182 -115.718059 
L 209.836364 -119.176913 
L 208.704545 -122.115814 
L 207.572727 -112.587767 
L 206.440909 -116.011009 
L 205.309091 -124.202118 
L 204.177273 -121.567534 
L 203.045455 -121.057483 
L 201.913636 -117.934584 
L 200.781818 -125.06961 
L 199.65 -120.702611 
L 198.518182 -117.41264 
L 197.386364 -117.589767 
L 196.254545 -122.208039 
L 195.122727 -121.975374 
L 193.990909 -119.676237 
L 192.859091 -123.202543 
L 191.727273 -131.290057 
L 190.595455 -123.776578 
L 189.463636 -129.003658 
L 188.331818 -121.685822 
L 187.2 -125.336727 
L 186.068182 -122.696214 
L 184.936364 -129.628939 
L 183.804545 -122.893995 
L 182.672727 -125.611488 
L 181.540909 -125.553803 
L 180.409091 -122.297753 
L 179.277273 -126.642984 
L 178.145455 -123.238256 
L 177.013636 -126.102792 
L 175.881818 -122.799233 
L 174.75 -124.182492 
L 173.618182 -128.044959 
L 172.486364 -130.062441 
L 171.354545 -128.505888 
L 170.222727 -129.813535 
L 169.090909 -124.43198 
L 167.959091 -127.172053 
L 166.827273 -128.505867 
L 165.695455 -125.299707 
L 164.563636 -128.853569 
L 163.431818 -132.590065 
L 162.3 -129.338001 
L 161.168182 -131.95036 
L 160.036364 -127.602661 
L 158.904545 -129.074818 
L 157.772727 -132.570464 
L 156.640909 -130.668649 
L 155.509091 -132.556217 
L 154.377273 -127.570025 
L 153.245455 -130.817969 
L 152.113636 -129.834118 
L 150.981818 -129.460678 
L 149.85 -128.772173 
L 148.718182 -127.088271 
L 147.586364 -129.400496 
L 146.454545 -133.36161 
L 145.322727 -132.819557 
L 144.190909 -131.833345 
L 143.059091 -133.470174 
L 141.927273 -134.078134 
L 140.795455 -131.197872 
L 139.663636 -139.043234 
L 138.531818 -134.241284 
L 137.4 -136.563774 
L 136.268182 -132.42981 
L 135.136364 -137.351553 
L 134.004545 -138.63246 
L 132.872727 -138.570304 
L 131.740909 -137.903695 
L 130.609091 -139.31335 
L 129.477273 -138.438213 
L 128.345455 -134.312566 
L 127.213636 -133.985785 
L 126.081818 -135.052707 
L 124.95 -143.406405 
L 123.818182 -140.376399 
L 122.686364 -138.457576 
L 121.554545 -137.959697 
L 120.422727 -137.833546 
L 119.290909 -138.242082 
L 118.159091 -141.313572 
L 117.027273 -141.281966 
L 115.895455 -144.813029 
L 114.763636 -145.92833 
L 113.631818 -142.45353 
L 112.5 -145.459403 
L 111.368182 -141.782262 
L 110.236364 -142.218558 
L 109.104545 -141.73432 
L 107.972727 -144.342131 
L 106.840909 -144.268331 
L 105.709091 -143.612768 
L 104.577273 -144.948163 
L 103.445455 -146.809339 
L 102.313636 -145.648576 
L 101.181818 -146.676955 
L 100.05 -148.647698 
L 98.918182 -143.195956 
L 97.786364 -147.019982 
L 96.654545 -147.422321 
L 95.522727 -149.260424 
L 94.390909 -143.762156 
L 93.259091 -145.561373 
L 92.127273 -146.726536 
L 90.995455 -145.567728 
L 89.863636 -147.016786 
L 88.731818 -147.718484 
L 87.6 -146.923911 
L 86.468182 -149.380256 
L 85.336364 -148.28593 
L 84.204545 -150.692691 
L 83.072727 -146.389004 
L 81.940909 -148.382251 
L 80.809091 -149.025294 
L 79.677273 -150.07813 
L 78.545455 -148.553257 
L 77.413636 -149.345709 
L 76.281818 -146.946328 
L 75.15 -150.043931 
L 74.018182 -149.757268 
L 72.886364 -149.521598 
L 71.754545 -145.907315 
L 70.622727 -149.769577 
L 69.490909 -150.66064 
L 68.359091 -146.424763 
L 67.227273 -152.687405 
L 66.095455 -149.022668 
L 64.963636 -149.743246 
L 63.831818 -151.173779 
L 62.7 -150.842681 
L 61.568182 -151.376908 
L 60.436364 -151.829485 
L 59.304545 -149.394358 
L 58.172727 -150.815131 
L 57.040909 -151.76659 
L 55.909091 -150.824323 
L 54.777273 -151.249249 
L 53.645455 -152.010097 
L 52.513636 -153.78341 
L 51.381818 -153.496377 
L 50.25 -149.923622 
L 49.118182 -152.75622 
L 47.986364 -150.644035 
z
" id="mea80efd1a2" style="stroke:#2ca02c;stroke-opacity:0.5;"/>
    </defs>
    <g clip-path="url(#p800b6dc8e9)">
     <use style="fill:#2ca02c;fill-opacity:0.5;stroke:#2ca02c;stroke-opacity:0.5;" x="0" xlink:href="#mea80efd1a2" y="172.8"/>
    </g>
   </g>
   <g id="PolyCollection_2">
    <defs>
     <path d="M 47.986364 -155.712059 
L 47.986364 -158.234395 
L 49.118182 -157.984423 
L 50.25 -156.080593 
L 51.381818 -154.774832 
L 52.513636 -153.691154 
L 53.645455 -155.994305 
L 54.777273 -155.734562 
L 55.909091 -153.740528 
L 57.040909 -153.540775 
L 58.172727 -152.172891 
L 59.304545 -152.506469 
L 60.436364 -152.983015 
L 61.568182 -151.807132 
L 62.7 -154.272835 
L 63.831818 -151.573366 
L 64.963636 -151.831872 
L 66.095455 -151.887951 
L 67.227273 -152.053668 
L 68.359091 -152.196088 
L 69.490909 -151.899981 
L 70.622727 -152.388511 
L 71.754545 -152.560372 
L 72.886364 -150.3913 
L 74.018182 -151.080764 
L 75.15 -151.253025 
L 76.281818 -150.674296 
L 77.413636 -151.306322 
L 78.545455 -151.832952 
L 79.677273 -150.804094 
L 80.809091 -151.017648 
L 81.940909 -150.853774 
L 83.072727 -149.52612 
L 84.204545 -150.278151 
L 85.336364 -150.545271 
L 86.468182 -149.883225 
L 87.6 -149.268339 
L 88.731818 -150.10966 
L 89.863636 -149.609964 
L 90.995455 -150.265113 
L 92.127273 -148.247217 
L 93.259091 -149.999223 
L 94.390909 -148.545686 
L 95.522727 -149.515829 
L 96.654545 -147.842762 
L 97.786364 -147.561438 
L 98.918182 -148.343034 
L 100.05 -148.364837 
L 101.181818 -147.600192 
L 102.313636 -147.249382 
L 103.445455 -148.086493 
L 104.577273 -147.460358 
L 105.709091 -146.767511 
L 106.840909 -146.514455 
L 107.972727 -145.893245 
L 109.104545 -146.555233 
L 110.236364 -146.372826 
L 111.368182 -145.824144 
L 112.5 -145.43336 
L 113.631818 -145.55155 
L 114.763636 -145.945154 
L 115.895455 -144.947044 
L 117.027273 -144.181878 
L 118.159091 -145.745684 
L 119.290909 -144.481635 
L 120.422727 -142.795686 
L 121.554545 -143.744234 
L 122.686364 -145.057466 
L 123.818182 -143.364746 
L 124.95 -143.676793 
L 126.081818 -141.802302 
L 127.213636 -143.478094 
L 128.345455 -142.661161 
L 129.477273 -140.984985 
L 130.609091 -141.125608 
L 131.740909 -142.34697 
L 132.872727 -140.77634 
L 134.004545 -141.78117 
L 135.136364 -140.786499 
L 136.268182 -141.575794 
L 137.4 -137.871098 
L 138.531818 -139.447486 
L 139.663636 -137.736424 
L 140.795455 -138.990493 
L 141.927273 -139.347749 
L 143.059091 -138.635928 
L 144.190909 -137.128524 
L 145.322727 -136.525772 
L 146.454545 -137.659674 
L 147.586364 -136.34137 
L 148.718182 -135.21764 
L 149.85 -134.996188 
L 150.981818 -137.041618 
L 152.113636 -137.675133 
L 153.245455 -136.054818 
L 154.377273 -137.339498 
L 155.509091 -134.644257 
L 156.640909 -134.592561 
L 157.772727 -136.327284 
L 158.904545 -134.943865 
L 160.036364 -135.421818 
L 161.168182 -134.760546 
L 162.3 -135.869214 
L 163.431818 -135.695713 
L 164.563636 -133.429449 
L 165.695455 -133.45487 
L 166.827273 -133.188988 
L 167.959091 -134.885084 
L 169.090909 -135.737722 
L 170.222727 -133.226125 
L 171.354545 -134.110623 
L 172.486364 -134.674961 
L 173.618182 -134.093302 
L 174.75 -132.479399 
L 175.881818 -132.358669 
L 177.013636 -135.243989 
L 178.145455 -131.610408 
L 179.277273 -130.817063 
L 180.409091 -129.454076 
L 181.540909 -131.499549 
L 182.672727 -133.328252 
L 183.804545 -131.836024 
L 184.936364 -129.25941 
L 186.068182 -129.324682 
L 187.2 -129.842289 
L 188.331818 -129.426109 
L 189.463636 -128.026885 
L 190.595455 -129.392825 
L 191.727273 -129.553206 
L 192.859091 -127.525195 
L 193.990909 -130.073047 
L 195.122727 -129.899786 
L 196.254545 -128.093529 
L 197.386364 -130.244706 
L 198.518182 -129.852691 
L 199.65 -127.709027 
L 200.781818 -127.2389 
L 201.913636 -127.015628 
L 203.045455 -127.564743 
L 204.177273 -130.670927 
L 205.309091 -126.906465 
L 206.440909 -126.527232 
L 207.572727 -128.233225 
L 208.704545 -125.520477 
L 209.836364 -125.736697 
L 210.968182 -126.425872 
L 212.1 -127.42805 
L 213.231818 -127.770229 
L 214.363636 -126.274041 
L 215.495455 -128.90139 
L 216.627273 -130.832192 
L 217.759091 -131.93362 
L 218.890909 -126.308148 
L 220.022727 -131.012498 
L 221.154545 -131.268502 
L 222.286364 -124.665824 
L 223.418182 -126.5463 
L 224.55 -126.75116 
L 225.681818 -125.275938 
L 226.813636 -125.023497 
L 227.945455 -125.77115 
L 229.077273 -128.301604 
L 230.209091 -125.599325 
L 231.340909 -126.613931 
L 232.472727 -125.894844 
L 233.604545 -124.697037 
L 234.736364 -126.068863 
L 235.868182 -126.103135 
L 237 -123.911672 
L 238.131818 -125.671882 
L 239.263636 -125.809846 
L 240.395455 -125.53041 
L 241.527273 -126.916647 
L 242.659091 -126.120535 
L 243.790909 -125.323189 
L 244.922727 -123.938614 
L 246.054545 -125.653429 
L 247.186364 -126.285066 
L 248.318182 -125.687623 
L 249.45 -124.826543 
L 250.581818 -126.59621 
L 251.713636 -123.928707 
L 251.713636 -121.308056 
L 251.713636 -121.308056 
L 250.581818 -123.143015 
L 249.45 -121.262351 
L 248.318182 -122.150755 
L 247.186364 -122.592808 
L 246.054545 -122.551104 
L 244.922727 -121.006876 
L 243.790909 -122.153199 
L 242.659091 -123.266232 
L 241.527273 -123.229492 
L 240.395455 -122.408115 
L 239.263636 -122.776394 
L 238.131818 -121.969299 
L 237 -120.839209 
L 235.868182 -123.142203 
L 234.736364 -122.492159 
L 233.604545 -121.921027 
L 232.472727 -122.549592 
L 231.340909 -123.301028 
L 230.209091 -122.059875 
L 229.077273 -123.702001 
L 227.945455 -122.285285 
L 226.813636 -121.779156 
L 225.681818 -122.581249 
L 224.55 -123.561996 
L 223.418182 -123.131126 
L 222.286364 -120.66196 
L 221.154545 -125.248842 
L 220.022727 -126.497928 
L 218.890909 -121.543172 
L 217.759091 -126.234298 
L 216.627273 -126.11455 
L 215.495455 -124.829032 
L 214.363636 -122.502899 
L 213.231818 -123.54281 
L 212.1 -123.360619 
L 210.968182 -122.807552 
L 209.836364 -122.37913 
L 208.704545 -122.091835 
L 207.572727 -124.677335 
L 206.440909 -123.468525 
L 205.309091 -124.073622 
L 204.177273 -126.269868 
L 203.045455 -124.508826 
L 201.913636 -123.296466 
L 200.781818 -124.1937 
L 199.65 -124.3219 
L 198.518182 -125.914468 
L 197.386364 -126.996655 
L 196.254545 -124.633492 
L 195.122727 -126.03701 
L 193.990909 -126.054714 
L 192.859091 -123.164423 
L 191.727273 -125.119273 
L 190.595455 -125.84559 
L 189.463636 -125.044393 
L 188.331818 -125.757215 
L 187.2 -126.473483 
L 186.068182 -126.087558 
L 184.936364 -125.563815 
L 183.804545 -128.417169 
L 182.672727 -129.878176 
L 181.540909 -128.488222 
L 180.409091 -126.299204 
L 179.277273 -127.905385 
L 178.145455 -128.289858 
L 177.013636 -132.05879 
L 175.881818 -129.41053 
L 174.75 -130.090487 
L 173.618182 -131.058615 
L 172.486364 -132.123843 
L 171.354545 -131.379971 
L 170.222727 -130.715483 
L 169.090909 -132.700067 
L 167.959091 -132.279842 
L 166.827273 -130.621199 
L 165.695455 -131.191958 
L 164.563636 -130.518939 
L 163.431818 -132.879365 
L 162.3 -132.82811 
L 161.168182 -131.812991 
L 160.036364 -132.613764 
L 158.904545 -131.781322 
L 157.772727 -133.182836 
L 156.640909 -131.871278 
L 155.509091 -132.404598 
L 154.377273 -134.208265 
L 153.245455 -133.663266 
L 152.113636 -135.033179 
L 150.981818 -134.387892 
L 149.85 -132.394499 
L 148.718182 -132.326835 
L 147.586364 -133.489558 
L 146.454545 -134.753801 
L 145.322727 -133.763381 
L 144.190909 -134.37372 
L 143.059091 -135.566843 
L 141.927273 -136.437932 
L 140.795455 -136.49705 
L 139.663636 -135.739445 
L 138.531818 -136.462377 
L 137.4 -135.405087 
L 136.268182 -138.759485 
L 135.136364 -137.827078 
L 134.004545 -139.371358 
L 132.872727 -138.526528 
L 131.740909 -140.385302 
L 130.609091 -138.776683 
L 129.477273 -138.696009 
L 128.345455 -140.296726 
L 127.213636 -140.847795 
L 126.081818 -139.639774 
L 124.95 -141.427517 
L 123.818182 -141.172554 
L 122.686364 -143.207089 
L 121.554545 -141.848081 
L 120.422727 -141.044686 
L 119.290909 -142.638129 
L 118.159091 -144.29184 
L 117.027273 -142.757428 
L 115.895455 -143.705983 
L 114.763636 -144.580673 
L 113.631818 -143.922191 
L 112.5 -144.02094 
L 111.368182 -144.715682 
L 110.236364 -144.973286 
L 109.104545 -145.530166 
L 107.972727 -144.725269 
L 106.840909 -144.975542 
L 105.709091 -145.322365 
L 104.577273 -145.7745 
L 103.445455 -146.980999 
L 102.313636 -145.85105 
L 101.181818 -146.156989 
L 100.05 -146.801782 
L 98.918182 -147.121841 
L 97.786364 -146.175137 
L 96.654545 -146.51259 
L 95.522727 -148.19098 
L 94.390909 -147.191947 
L 93.259091 -148.683847 
L 92.127273 -146.816866 
L 90.995455 -149.035088 
L 89.863636 -148.281469 
L 88.731818 -148.770069 
L 87.6 -147.917558 
L 86.468182 -148.505402 
L 85.336364 -149.229763 
L 84.204545 -148.864101 
L 83.072727 -148.033123 
L 81.940909 -149.674513 
L 80.809091 -149.60699 
L 79.677273 -149.676822 
L 78.545455 -150.050721 
L 77.413636 -149.867073 
L 76.281818 -148.396652 
L 75.15 -149.650507 
L 74.018182 -149.339579 
L 72.886364 -148.573422 
L 71.754545 -150.824278 
L 70.622727 -150.58568 
L 69.490909 -150.295991 
L 68.359091 -150.432448 
L 67.227273 -150.918766 
L 66.095455 -150.02693 
L 64.963636 -150.704211 
L 63.831818 -149.894059 
L 62.7 -151.446478 
L 61.568182 -150.556671 
L 60.436364 -151.839763 
L 59.304545 -151.137413 
L 58.172727 -150.99308 
L 57.040909 -152.213114 
L 55.909091 -152.267188 
L 54.777273 -153.876854 
L 53.645455 -154.427117 
L 52.513636 -151.914784 
L 51.381818 -153.07247 
L 50.25 -153.735972 
L 49.118182 -155.304528 
L 47.986364 -155.712059 
z
" id="meb40af4d96" style="stroke:#d62728;stroke-opacity:0.5;"/>
    </defs>
    <g clip-path="url(#p800b6dc8e9)">
     <use style="fill:#d62728;fill-opacity:0.5;stroke:#d62728;stroke-opacity:0.5;" x="0" xlink:href="#meb40af4d96" y="172.8"/>
    </g>
   </g>
   <g id="matplotlib.axis_1">
    <g id="xtick_1">
     <g id="line2d_1">
      <defs>
       <path d="M 0 0 
L 0 3.5 
" id="m239995dbcb" style="stroke:#000000;stroke-width:0.8;"/>
      </defs>
      <g>
       <use style="stroke:#000000;stroke-width:0.8;" x="47.986364" xlink:href="#m239995dbcb" y="71.402264"/>
      </g>
     </g>
    </g>
    <g id="xtick_2">
     <g id="line2d_2">
      <g>
       <use style="stroke:#000000;stroke-width:0.8;" x="81.940909" xlink:href="#m239995dbcb" y="71.402264"/>
      </g>
     </g>
    </g>
    <g id="xtick_3">
     <g id="line2d_3">
      <g>
       <use style="stroke:#000000;stroke-width:0.8;" x="115.895455" xlink:href="#m239995dbcb" y="71.402264"/>
      </g>
     </g>
    </g>
    <g id="xtick_4">
     <g id="line2d_4">
      <g>
       <use style="stroke:#000000;stroke-width:0.8;" x="149.85" xlink:href="#m239995dbcb" y="71.402264"/>
      </g>
     </g>
    </g>
    <g id="xtick_5">
     <g id="line2d_5">
      <g>
       <use style="stroke:#000000;stroke-width:0.8;" x="183.804545" xlink:href="#m239995dbcb" y="71.402264"/>
      </g>
     </g>
    </g>
    <g id="xtick_6">
     <g id="line2d_6">
      <g>
       <use style="stroke:#000000;stroke-width:0.8;" x="217.759091" xlink:href="#m239995dbcb" y="71.402264"/>
      </g>
     </g>
    </g>
    <g id="xtick_7">
     <g id="line2d_7">
      <g>
       <use style="stroke:#000000;stroke-width:0.8;" x="251.713636" xlink:href="#m239995dbcb" y="71.402264"/>
      </g>
     </g>
    </g>
   </g>
   <g id="matplotlib.axis_2">
    <g id="ytick_1">
     <g id="line2d_8">
      <defs>
       <path d="M 0 0 
L -3.5 0 
" id="m17f04ac39e" style="stroke:#000000;stroke-width:0.8;"/>
      </defs>
      <g>
       <use style="stroke:#000000;stroke-width:0.8;" x="37.8" xlink:href="#m17f04ac39e" y="71.402264"/>
      </g>
     </g>
     <g id="text_1">
      <!-- 0.2 -->
      <g transform="translate(16.487188 74.821561)scale(0.09 -0.09)">
       <defs>
        <path d="M 2034 4250 
Q 1547 4250 1301 3770 
Q 1056 3291 1056 2328 
Q 1056 1369 1301 889 
Q 1547 409 2034 409 
Q 2525 409 2770 889 
Q 3016 1369 3016 2328 
Q 3016 3291 2770 3770 
Q 2525 4250 2034 4250 
z
M 2034 4750 
Q 2819 4750 3233 4129 
Q 3647 3509 3647 2328 
Q 3647 1150 3233 529 
Q 2819 -91 2034 -91 
Q 1250 -91 836 529 
Q 422 1150 422 2328 
Q 422 3509 836 4129 
Q 1250 4750 2034 4750 
z
" id="DejaVuSans-30" transform="scale(0.015625)"/>
        <path d="M 684 794 
L 1344 794 
L 1344 0 
L 684 0 
L 684 794 
z
" id="DejaVuSans-2e" transform="scale(0.015625)"/>
        <path d="M 1228 531 
L 3431 531 
L 3431 0 
L 469 0 
L 469 531 
Q 828 903 1448 1529 
Q 2069 2156 2228 2338 
Q 2531 2678 2651 2914 
Q 2772 3150 2772 3378 
Q 2772 3750 2511 3984 
Q 2250 4219 1831 4219 
Q 1534 4219 1204 4116 
Q 875 4013 500 3803 
L 500 4441 
Q 881 4594 1212 4672 
Q 1544 4750 1819 4750 
Q 2544 4750 2975 4387 
Q 3406 4025 3406 3419 
Q 3406 3131 3298 2873 
Q 3191 2616 2906 2266 
Q 2828 2175 2409 1742 
Q 1991 1309 1228 531 
z
" id="DejaVuSans-32" transform="scale(0.015625)"/>
       </defs>
       <use xlink:href="#DejaVuSans-30"/>
       <use x="63.623047" xlink:href="#DejaVuSans-2e"/>
       <use x="95.410156" xlink:href="#DejaVuSans-32"/>
      </g>
     </g>
    </g>
    <g id="ytick_2">
     <g id="line2d_9">
      <g>
       <use style="stroke:#000000;stroke-width:0.8;" x="37.8" xlink:href="#m17f04ac39e" y="40.021132"/>
      </g>
     </g>
     <g id="text_2">
      <!-- 0.5 -->
      <g transform="translate(16.487188 43.440429)scale(0.09 -0.09)">
       <defs>
        <path d="M 691 4666 
L 3169 4666 
L 3169 4134 
L 1269 4134 
L 1269 2991 
Q 1406 3038 1543 3061 
Q 1681 3084 1819 3084 
Q 2600 3084 3056 2656 
Q 3513 2228 3513 1497 
Q 3513 744 3044 326 
Q 2575 -91 1722 -91 
Q 1428 -91 1123 -41 
Q 819 9 494 109 
L 494 744 
Q 775 591 1075 516 
Q 1375 441 1709 441 
Q 2250 441 2565 725 
Q 2881 1009 2881 1497 
Q 2881 1984 2565 2268 
Q 2250 2553 1709 2553 
Q 1456 2553 1204 2497 
Q 953 2441 691 2322 
L 691 4666 
z
" id="DejaVuSans-35" transform="scale(0.015625)"/>
       </defs>
       <use xlink:href="#DejaVuSans-30"/>
       <use x="63.623047" xlink:href="#DejaVuSans-2e"/>
       <use x="95.410156" xlink:href="#DejaVuSans-35"/>
      </g>
     </g>
    </g>
    <g id="ytick_3">
     <g id="line2d_10">
      <g>
       <use style="stroke:#000000;stroke-width:0.8;" x="37.8" xlink:href="#m17f04ac39e" y="8.64"/>
      </g>
     </g>
     <g id="text_3">
      <!-- 0.8 -->
      <g transform="translate(16.487188 12.059297)scale(0.09 -0.09)">
       <defs>
        <path d="M 2034 2216 
Q 1584 2216 1326 1975 
Q 1069 1734 1069 1313 
Q 1069 891 1326 650 
Q 1584 409 2034 409 
Q 2484 409 2743 651 
Q 3003 894 3003 1313 
Q 3003 1734 2745 1975 
Q 2488 2216 2034 2216 
z
M 1403 2484 
Q 997 2584 770 2862 
Q 544 3141 544 3541 
Q 544 4100 942 4425 
Q 1341 4750 2034 4750 
Q 2731 4750 3128 4425 
Q 3525 4100 3525 3541 
Q 3525 3141 3298 2862 
Q 3072 2584 2669 2484 
Q 3125 2378 3379 2068 
Q 3634 1759 3634 1313 
Q 3634 634 3220 271 
Q 2806 -91 2034 -91 
Q 1263 -91 848 271 
Q 434 634 434 1313 
Q 434 1759 690 2068 
Q 947 2378 1403 2484 
z
M 1172 3481 
Q 1172 3119 1398 2916 
Q 1625 2713 2034 2713 
Q 2441 2713 2670 2916 
Q 2900 3119 2900 3481 
Q 2900 3844 2670 4047 
Q 2441 4250 2034 4250 
Q 1625 4250 1398 4047 
Q 1172 3844 1172 3481 
z
" id="DejaVuSans-38" transform="scale(0.015625)"/>
       </defs>
       <use xlink:href="#DejaVuSans-30"/>
       <use x="63.623047" xlink:href="#DejaVuSans-2e"/>
       <use x="95.410156" xlink:href="#DejaVuSans-38"/>
      </g>
     </g>
    </g>
    <g id="text_4">
     <!-- Loss -->
     <g transform="translate(10.348125 49.467226)rotate(-90)scale(0.1 -0.1)">
      <defs>
       <path d="M 3669 1172 
L 3772 1150 
L 3409 0 
L 128 0 
L 128 116 
L 288 116 
Q 556 116 672 291 
Q 738 391 738 753 
L 738 3488 
Q 738 3884 650 3984 
Q 528 4122 288 4122 
L 128 4122 
L 128 4238 
L 2047 4238 
L 2047 4122 
Q 1709 4125 1573 4059 
Q 1438 3994 1388 3894 
Q 1338 3794 1338 3416 
L 1338 753 
Q 1338 494 1388 397 
Q 1425 331 1503 300 
Q 1581 269 1991 269 
L 2300 269 
Q 2788 269 2984 341 
Q 3181 413 3343 595 
Q 3506 778 3669 1172 
z
" id="TimesNewRomanPSMT-4c" transform="scale(0.015625)"/>
       <path d="M 1600 2947 
Q 2250 2947 2644 2453 
Q 2978 2031 2978 1484 
Q 2978 1100 2793 706 
Q 2609 313 2286 112 
Q 1963 -88 1566 -88 
Q 919 -88 538 428 
Q 216 863 216 1403 
Q 216 1797 411 2186 
Q 606 2575 925 2761 
Q 1244 2947 1600 2947 
z
M 1503 2744 
Q 1338 2744 1170 2645 
Q 1003 2547 900 2300 
Q 797 2053 797 1666 
Q 797 1041 1045 587 
Q 1294 134 1700 134 
Q 2003 134 2200 384 
Q 2397 634 2397 1244 
Q 2397 2006 2069 2444 
Q 1847 2744 1503 2744 
z
" id="TimesNewRomanPSMT-6f" transform="scale(0.015625)"/>
       <path d="M 2050 2947 
L 2050 1972 
L 1947 1972 
Q 1828 2431 1642 2597 
Q 1456 2763 1169 2763 
Q 950 2763 815 2647 
Q 681 2531 681 2391 
Q 681 2216 781 2091 
Q 878 1963 1175 1819 
L 1631 1597 
Q 2266 1288 2266 781 
Q 2266 391 1970 151 
Q 1675 -88 1309 -88 
Q 1047 -88 709 6 
Q 606 38 541 38 
Q 469 38 428 -44 
L 325 -44 
L 325 978 
L 428 978 
Q 516 541 762 319 
Q 1009 97 1316 97 
Q 1531 97 1667 223 
Q 1803 350 1803 528 
Q 1803 744 1651 891 
Q 1500 1038 1047 1263 
Q 594 1488 453 1669 
Q 313 1847 313 2119 
Q 313 2472 555 2709 
Q 797 2947 1181 2947 
Q 1350 2947 1591 2875 
Q 1750 2828 1803 2828 
Q 1853 2828 1881 2850 
Q 1909 2872 1947 2947 
L 2050 2947 
z
" id="TimesNewRomanPSMT-73" transform="scale(0.015625)"/>
      </defs>
      <use xlink:href="#TimesNewRomanPSMT-4c"/>
      <use x="61.083984" xlink:href="#TimesNewRomanPSMT-6f"/>
      <use x="111.083984" xlink:href="#TimesNewRomanPSMT-73"/>
      <use x="150" xlink:href="#TimesNewRomanPSMT-73"/>
     </g>
    </g>
   </g>
   <g id="line2d_11">
    <path clip-path="url(#p800b6dc8e9)" d="M 47.986364 19.036758 
L 49.118182 17.751167 
L 50.25 20.586675 
L 51.381818 17.170604 
L 52.513636 17.317673 
L 53.645455 18.903667 
L 54.777273 19.864808 
L 55.909091 20.056039 
L 57.040909 19.262809 
L 58.172727 20.865477 
L 59.304545 21.326551 
L 60.436364 20.047497 
L 61.568182 20.082467 
L 62.7 19.66049 
L 63.831818 20.751137 
L 64.963636 21.549831 
L 66.095455 21.961303 
L 67.227273 18.958422 
L 68.359091 24.047217 
L 69.490909 21.253499 
L 70.622727 21.354475 
L 71.754545 25.522762 
L 72.886364 22.064684 
L 74.018182 21.571127 
L 75.15 21.339346 
L 76.281818 23.531401 
L 77.413636 22.273359 
L 78.545455 22.480941 
L 79.677273 21.244441 
L 80.809091 22.547604 
L 81.940909 22.612978 
L 83.072727 25.11202 
L 84.204545 20.865728 
L 85.336364 23.219785 
L 86.468182 21.787747 
L 87.6 24.867139 
L 88.731818 23.734271 
L 89.863636 24.568176 
L 90.995455 26.0073 
L 92.127273 24.945852 
L 93.259091 25.855403 
L 94.390909 27.394349 
L 95.522727 22.770991 
L 97.786364 24.200154 
L 98.918182 28.398698 
L 100.05 22.702818 
L 101.181818 24.595228 
L 102.313636 25.860608 
L 103.445455 24.35119 
L 104.577273 26.430716 
L 105.709091 27.420108 
L 106.840909 27.508461 
L 107.972727 27.719791 
L 109.104545 29.707015 
L 110.236364 29.544934 
L 111.368182 29.541739 
L 112.5 25.180926 
L 113.631818 28.520272 
L 114.763636 25.540979 
L 115.895455 26.494804 
L 117.027273 29.581322 
L 118.159091 29.739999 
L 119.290909 33.296389 
L 120.422727 32.522476 
L 121.554545 32.53724 
L 122.686364 32.691419 
L 123.818182 30.227654 
L 124.95 27.032031 
L 126.081818 34.74809 
L 127.213636 37.332508 
L 128.345455 35.897669 
L 129.477273 32.286611 
L 130.609091 30.729293 
L 131.740909 32.420364 
L 132.872727 31.863049 
L 134.004545 31.66016 
L 135.136364 32.07557 
L 136.268182 38.232382 
L 137.4 31.759008 
L 138.531818 36.042199 
L 139.663636 31.12518 
L 140.795455 39.422374 
L 141.927273 34.956766 
L 143.059091 36.466761 
L 144.190909 39.270653 
L 146.454545 36.217748 
L 147.586364 41.417851 
L 148.718182 43.267703 
L 149.85 40.848235 
L 150.981818 40.013461 
L 152.113636 39.033763 
L 153.245455 38.510473 
L 154.377273 43.340056 
L 155.509091 36.724807 
L 156.640909 38.100367 
L 157.772727 36.643515 
L 158.904545 41.442982 
L 160.036364 42.636989 
L 161.168182 38.3334 
L 162.3 41.889062 
L 163.431818 38.630487 
L 164.563636 40.797476 
L 165.695455 44.86729 
L 166.827273 41.845149 
L 167.959091 42.631321 
L 169.090909 46.249766 
L 170.222727 39.101101 
L 171.354545 40.605585 
L 172.486364 38.834484 
L 173.618182 41.711192 
L 174.75 47.270992 
L 175.881818 48.037703 
L 177.013636 44.210066 
L 178.145455 47.047481 
L 179.277273 43.348437 
L 180.409091 47.435332 
L 181.540909 45.301416 
L 182.672727 43.712921 
L 183.804545 46.748936 
L 184.936364 37.543924 
L 186.068182 46.264904 
L 187.2 42.877272 
L 188.331818 45.64079 
L 189.463636 39.426366 
L 190.595455 45.258837 
L 191.727273 34.854749 
L 192.859091 45.177064 
L 193.990909 50.018254 
L 195.122727 47.959297 
L 196.254545 47.179921 
L 197.386364 52.391874 
L 198.518182 52.073354 
L 199.65 50.341614 
L 200.781818 45.908783 
L 201.913636 51.345455 
L 203.045455 49.395882 
L 204.177273 42.662036 
L 205.309091 45.999778 
L 206.440909 53.509327 
L 207.572727 59.321845 
L 208.704545 46.14847 
L 209.836364 49.76919 
L 210.968182 55.254311 
L 212.1 51.781839 
L 213.231818 41.551177 
L 214.363636 51.891835 
L 215.495455 53.73724 
L 216.627273 56.355169 
L 217.759091 45.398816 
L 218.890909 44.209887 
L 220.022727 52.993261 
L 221.154545 43.441194 
L 222.286364 45.482645 
L 223.418182 46.279271 
L 224.55 48.746313 
L 225.681818 48.774062 
L 226.813636 52.670038 
L 227.945455 50.356493 
L 229.077273 55.331214 
L 230.209091 44.2843 
L 231.340909 49.271299 
L 232.472727 50.893567 
L 233.604545 50.554 
L 234.736364 43.841516 
L 235.868182 52.279902 
L 237 50.437537 
L 238.131818 52.182778 
L 239.263636 54.28277 
L 240.395455 49.656147 
L 241.527273 54.449864 
L 242.659091 53.568162 
L 243.790909 51.688085 
L 244.922727 49.063663 
L 246.054545 55.302034 
L 247.186364 48.600102 
L 248.318182 46.219078 
L 249.45 51.562364 
L 250.581818 50.231175 
L 251.713636 53.481005 
L 251.713636 53.481005 
" style="fill:none;stroke:#2ca02c;stroke-linecap:square;"/>
   </g>
   <g id="line2d_12">
    <path clip-path="url(#p800b6dc8e9)" d="M 47.986364 15.826773 
L 49.118182 16.155525 
L 50.25 17.891718 
L 52.513636 19.997031 
L 53.645455 17.589289 
L 54.777273 17.994292 
L 55.909091 19.796142 
L 57.040909 19.923055 
L 58.172727 21.217014 
L 59.304545 20.978059 
L 60.436364 20.388611 
L 61.568182 21.618098 
L 62.7 19.940343 
L 63.831818 22.066288 
L 64.963636 21.531959 
L 66.095455 21.84256 
L 67.227273 21.313783 
L 69.490909 21.702014 
L 70.622727 21.312905 
L 71.754545 21.107675 
L 72.886364 23.317639 
L 74.018182 22.589828 
L 75.15 22.348234 
L 76.281818 23.264526 
L 77.413636 22.213302 
L 78.545455 21.858164 
L 79.677273 22.559542 
L 80.809091 22.487681 
L 81.940909 22.535856 
L 83.072727 24.020378 
L 84.204545 23.228874 
L 85.336364 22.912483 
L 87.6 24.207052 
L 88.731818 23.360136 
L 89.863636 23.854284 
L 90.995455 23.149899 
L 92.127273 25.267958 
L 93.259091 23.458465 
L 94.390909 24.931183 
L 95.522727 23.946595 
L 96.654545 25.622324 
L 97.786364 25.931712 
L 98.918182 25.067562 
L 100.05 25.216691 
L 101.181818 25.921409 
L 102.313636 26.249784 
L 103.445455 25.266254 
L 104.577273 26.182571 
L 105.709091 26.755062 
L 106.840909 27.055001 
L 107.972727 27.490743 
L 109.104545 26.757301 
L 111.368182 27.530087 
L 112.5 28.07285 
L 113.631818 28.06313 
L 114.763636 27.537087 
L 117.027273 29.330347 
L 118.159091 27.781238 
L 120.422727 30.879814 
L 121.554545 30.003843 
L 122.686364 28.667723 
L 123.818182 30.53135 
L 124.95 30.247845 
L 126.081818 32.078962 
L 127.213636 30.637056 
L 128.345455 31.321057 
L 129.477273 32.959503 
L 130.609091 32.848855 
L 131.740909 31.433864 
L 132.872727 33.148566 
L 134.004545 32.223736 
L 135.136364 33.493212 
L 136.268182 32.63236 
L 137.4 36.161907 
L 138.531818 34.845069 
L 139.663636 36.062066 
L 140.795455 35.056229 
L 141.927273 34.907159 
L 143.059091 35.698614 
L 144.190909 37.048878 
L 145.322727 37.655424 
L 146.454545 36.593262 
L 148.718182 39.027763 
L 149.85 39.104657 
L 150.981818 37.085245 
L 152.113636 36.445844 
L 153.245455 37.940958 
L 154.377273 37.026119 
L 155.509091 39.275573 
L 156.640909 39.56808 
L 157.772727 38.04494 
L 158.904545 39.437406 
L 160.036364 38.782209 
L 161.168182 39.513231 
L 162.3 38.451338 
L 163.431818 38.512461 
L 164.563636 40.825806 
L 165.695455 40.476586 
L 166.827273 40.894907 
L 167.959091 39.217537 
L 169.090909 38.581105 
L 170.222727 40.829196 
L 172.486364 39.400598 
L 173.618182 40.224041 
L 174.75 41.515057 
L 175.881818 41.9154 
L 177.013636 39.14861 
L 178.145455 42.849867 
L 179.277273 43.438776 
L 180.409091 44.92336 
L 181.540909 42.806115 
L 182.672727 41.196786 
L 183.804545 42.673403 
L 184.936364 45.388387 
L 186.068182 45.09388 
L 187.2 44.642114 
L 188.331818 45.208338 
L 189.463636 46.264361 
L 190.595455 45.180792 
L 191.727273 45.463761 
L 192.859091 47.455191 
L 193.990909 44.73612 
L 195.122727 44.831602 
L 196.254545 46.43649 
L 197.386364 44.179319 
L 198.518182 44.916421 
L 199.65 46.784537 
L 200.781818 47.0837 
L 201.913636 47.643953 
L 203.045455 46.763215 
L 204.177273 44.329603 
L 205.309091 47.309957 
L 206.440909 47.802122 
L 207.572727 46.34472 
L 208.704545 48.993844 
L 209.836364 48.742087 
L 210.968182 48.183288 
L 212.1 47.405666 
L 213.231818 47.143481 
L 214.363636 48.41153 
L 215.495455 45.934789 
L 216.627273 44.326629 
L 217.759091 43.716041 
L 218.890909 48.87434 
L 220.022727 44.044787 
L 221.154545 44.541328 
L 222.286364 50.136108 
L 223.418182 47.961287 
L 224.55 47.643422 
L 225.681818 48.871407 
L 226.813636 49.398673 
L 227.945455 48.771783 
L 229.077273 46.798198 
L 230.209091 48.9704 
L 231.340909 47.84252 
L 232.472727 48.577782 
L 233.604545 49.490968 
L 234.736364 48.519489 
L 235.868182 48.177331 
L 237 50.42456 
L 238.131818 48.97941 
L 239.263636 48.50688 
L 240.395455 48.830738 
L 241.527273 47.72693 
L 242.659091 48.106617 
L 243.790909 49.061806 
L 244.922727 50.327255 
L 246.054545 48.697733 
L 247.186364 48.361063 
L 248.318182 48.880811 
L 249.45 49.755553 
L 250.581818 47.930387 
L 251.713636 50.181619 
L 251.713636 50.181619 
" style="fill:none;stroke:#d62728;stroke-linecap:square;"/>
   </g>
   <g id="patch_3">
    <path d="M 37.8 71.402264 
L 37.8 8.64 
" style="fill:none;stroke:#000000;stroke-linecap:square;stroke-linejoin:miter;stroke-width:0.8;"/>
   </g>
   <g id="patch_4">
    <path d="M 261.9 71.402264 
L 261.9 8.64 
" style="fill:none;stroke:#000000;stroke-linecap:square;stroke-linejoin:miter;stroke-width:0.8;"/>
   </g>
   <g id="patch_5">
    <path d="M 37.8 71.402264 
L 261.9 71.402264 
" style="fill:none;stroke:#000000;stroke-linecap:square;stroke-linejoin:miter;stroke-width:0.8;"/>
   </g>
   <g id="patch_6">
    <path d="M 37.8 8.64 
L 261.9 8.64 
" style="fill:none;stroke:#000000;stroke-linecap:square;stroke-linejoin:miter;stroke-width:0.8;"/>
   </g>
   <g id="legend_1">
    <g id="line2d_13">
     <path d="M 197.925469 19.89 
L 215.925469 19.89 
" style="fill:none;stroke:#2ca02c;stroke-linecap:square;"/>
    </g>
    <g id="line2d_14"/>
    <g id="text_5">
     <!-- Training -->
     <g transform="translate(223.125469 23.04)scale(0.09 -0.09)">
      <defs>
       <path d="M 3703 4238 
L 3750 3244 
L 3631 3244 
Q 3597 3506 3538 3619 
Q 3441 3800 3280 3886 
Q 3119 3972 2856 3972 
L 2259 3972 
L 2259 734 
Q 2259 344 2344 247 
Q 2463 116 2709 116 
L 2856 116 
L 2856 0 
L 1059 0 
L 1059 116 
L 1209 116 
Q 1478 116 1591 278 
Q 1659 378 1659 734 
L 1659 3972 
L 1150 3972 
Q 853 3972 728 3928 
Q 566 3869 450 3700 
Q 334 3531 313 3244 
L 194 3244 
L 244 4238 
L 3703 4238 
z
" id="TimesNewRomanPSMT-54" transform="scale(0.015625)"/>
       <path d="M 1038 2947 
L 1038 2303 
Q 1397 2947 1775 2947 
Q 1947 2947 2059 2842 
Q 2172 2738 2172 2600 
Q 2172 2478 2090 2393 
Q 2009 2309 1897 2309 
Q 1788 2309 1652 2417 
Q 1516 2525 1450 2525 
Q 1394 2525 1328 2463 
Q 1188 2334 1038 2041 
L 1038 669 
Q 1038 431 1097 309 
Q 1138 225 1241 169 
Q 1344 113 1538 113 
L 1538 0 
L 72 0 
L 72 113 
Q 291 113 397 181 
Q 475 231 506 341 
Q 522 394 522 644 
L 522 1753 
Q 522 2253 501 2348 
Q 481 2444 426 2487 
Q 372 2531 291 2531 
Q 194 2531 72 2484 
L 41 2597 
L 906 2947 
L 1038 2947 
z
" id="TimesNewRomanPSMT-72" transform="scale(0.015625)"/>
       <path d="M 1822 413 
Q 1381 72 1269 19 
Q 1100 -59 909 -59 
Q 613 -59 420 144 
Q 228 347 228 678 
Q 228 888 322 1041 
Q 450 1253 767 1440 
Q 1084 1628 1822 1897 
L 1822 2009 
Q 1822 2438 1686 2597 
Q 1550 2756 1291 2756 
Q 1094 2756 978 2650 
Q 859 2544 859 2406 
L 866 2225 
Q 866 2081 792 2003 
Q 719 1925 600 1925 
Q 484 1925 411 2006 
Q 338 2088 338 2228 
Q 338 2497 613 2722 
Q 888 2947 1384 2947 
Q 1766 2947 2009 2819 
Q 2194 2722 2281 2516 
Q 2338 2381 2338 1966 
L 2338 994 
Q 2338 584 2353 492 
Q 2369 400 2405 369 
Q 2441 338 2488 338 
Q 2538 338 2575 359 
Q 2641 400 2828 588 
L 2828 413 
Q 2478 -56 2159 -56 
Q 2006 -56 1915 50 
Q 1825 156 1822 413 
z
M 1822 616 
L 1822 1706 
Q 1350 1519 1213 1441 
Q 966 1303 859 1153 
Q 753 1003 753 825 
Q 753 600 887 451 
Q 1022 303 1197 303 
Q 1434 303 1822 616 
z
" id="TimesNewRomanPSMT-61" transform="scale(0.015625)"/>
       <path d="M 928 4444 
Q 1059 4444 1151 4351 
Q 1244 4259 1244 4128 
Q 1244 3997 1151 3903 
Q 1059 3809 928 3809 
Q 797 3809 703 3903 
Q 609 3997 609 4128 
Q 609 4259 701 4351 
Q 794 4444 928 4444 
z
M 1188 2947 
L 1188 647 
Q 1188 378 1227 289 
Q 1266 200 1342 156 
Q 1419 113 1622 113 
L 1622 0 
L 231 0 
L 231 113 
Q 441 113 512 153 
Q 584 194 626 287 
Q 669 381 669 647 
L 669 1750 
Q 669 2216 641 2353 
Q 619 2453 572 2492 
Q 525 2531 444 2531 
Q 356 2531 231 2484 
L 188 2597 
L 1050 2947 
L 1188 2947 
z
" id="TimesNewRomanPSMT-69" transform="scale(0.015625)"/>
       <path d="M 1034 2341 
Q 1538 2947 1994 2947 
Q 2228 2947 2397 2830 
Q 2566 2713 2666 2444 
Q 2734 2256 2734 1869 
L 2734 647 
Q 2734 375 2778 278 
Q 2813 200 2889 156 
Q 2966 113 3172 113 
L 3172 0 
L 1756 0 
L 1756 113 
L 1816 113 
Q 2016 113 2095 173 
Q 2175 234 2206 353 
Q 2219 400 2219 647 
L 2219 1819 
Q 2219 2209 2117 2386 
Q 2016 2563 1775 2563 
Q 1403 2563 1034 2156 
L 1034 647 
Q 1034 356 1069 288 
Q 1113 197 1189 155 
Q 1266 113 1500 113 
L 1500 0 
L 84 0 
L 84 113 
L 147 113 
Q 366 113 442 223 
Q 519 334 519 647 
L 519 1709 
Q 519 2225 495 2337 
Q 472 2450 423 2490 
Q 375 2531 294 2531 
Q 206 2531 84 2484 
L 38 2597 
L 900 2947 
L 1034 2947 
L 1034 2341 
z
" id="TimesNewRomanPSMT-6e" transform="scale(0.015625)"/>
       <path d="M 966 1044 
Q 703 1172 562 1401 
Q 422 1631 422 1909 
Q 422 2334 742 2640 
Q 1063 2947 1563 2947 
Q 1972 2947 2272 2747 
L 2878 2747 
Q 3013 2747 3034 2739 
Q 3056 2731 3066 2713 
Q 3084 2684 3084 2613 
Q 3084 2531 3069 2500 
Q 3059 2484 3036 2475 
Q 3013 2466 2878 2466 
L 2506 2466 
Q 2681 2241 2681 1891 
Q 2681 1491 2375 1206 
Q 2069 922 1553 922 
Q 1341 922 1119 984 
Q 981 866 932 777 
Q 884 688 884 625 
Q 884 572 936 522 
Q 988 472 1138 450 
Q 1225 438 1575 428 
Q 2219 413 2409 384 
Q 2700 344 2873 169 
Q 3047 -6 3047 -263 
Q 3047 -616 2716 -925 
Q 2228 -1381 1444 -1381 
Q 841 -1381 425 -1109 
Q 191 -953 191 -784 
Q 191 -709 225 -634 
Q 278 -519 444 -313 
Q 466 -284 763 25 
Q 600 122 533 198 
Q 466 275 466 372 
Q 466 481 555 628 
Q 644 775 966 1044 
z
M 1509 2797 
Q 1278 2797 1122 2612 
Q 966 2428 966 2047 
Q 966 1553 1178 1281 
Q 1341 1075 1591 1075 
Q 1828 1075 1981 1253 
Q 2134 1431 2134 1813 
Q 2134 2309 1919 2591 
Q 1759 2797 1509 2797 
z
M 934 0 
Q 788 -159 713 -296 
Q 638 -434 638 -550 
Q 638 -700 819 -813 
Q 1131 -1006 1722 -1006 
Q 2284 -1006 2551 -807 
Q 2819 -609 2819 -384 
Q 2819 -222 2659 -153 
Q 2497 -84 2016 -72 
Q 1313 -53 934 0 
z
" id="TimesNewRomanPSMT-67" transform="scale(0.015625)"/>
      </defs>
      <use xlink:href="#TimesNewRomanPSMT-54"/>
      <use x="57.583984" xlink:href="#TimesNewRomanPSMT-72"/>
      <use x="90.884766" xlink:href="#TimesNewRomanPSMT-61"/>
      <use x="135.269531" xlink:href="#TimesNewRomanPSMT-69"/>
      <use x="163.052734" xlink:href="#TimesNewRomanPSMT-6e"/>
      <use x="213.052734" xlink:href="#TimesNewRomanPSMT-69"/>
      <use x="240.835938" xlink:href="#TimesNewRomanPSMT-6e"/>
      <use x="290.835938" xlink:href="#TimesNewRomanPSMT-67"/>
     </g>
    </g>
    <g id="line2d_15">
     <path d="M 197.925469 32.632031 
L 215.925469 32.632031 
" style="fill:none;stroke:#d62728;stroke-linecap:square;"/>
    </g>
    <g id="line2d_16"/>
    <g id="text_6">
     <!-- Test -->
     <g transform="translate(223.125469 35.782031)scale(0.09 -0.09)">
      <defs>
       <path d="M 681 1784 
Q 678 1147 991 784 
Q 1303 422 1725 422 
Q 2006 422 2214 576 
Q 2422 731 2563 1106 
L 2659 1044 
Q 2594 616 2278 264 
Q 1963 -88 1488 -88 
Q 972 -88 605 314 
Q 238 716 238 1394 
Q 238 2128 614 2539 
Q 991 2950 1559 2950 
Q 2041 2950 2350 2633 
Q 2659 2316 2659 1784 
L 681 1784 
z
M 681 1966 
L 2006 1966 
Q 1991 2241 1941 2353 
Q 1863 2528 1708 2628 
Q 1553 2728 1384 2728 
Q 1125 2728 920 2526 
Q 716 2325 681 1966 
z
" id="TimesNewRomanPSMT-65" transform="scale(0.015625)"/>
       <path d="M 1031 3803 
L 1031 2863 
L 1700 2863 
L 1700 2644 
L 1031 2644 
L 1031 788 
Q 1031 509 1111 412 
Q 1191 316 1316 316 
Q 1419 316 1516 380 
Q 1613 444 1666 569 
L 1788 569 
Q 1678 263 1478 108 
Q 1278 -47 1066 -47 
Q 922 -47 784 33 
Q 647 113 581 261 
Q 516 409 516 719 
L 516 2644 
L 63 2644 
L 63 2747 
Q 234 2816 414 2980 
Q 594 3144 734 3369 
Q 806 3488 934 3803 
L 1031 3803 
z
" id="TimesNewRomanPSMT-74" transform="scale(0.015625)"/>
      </defs>
      <use xlink:href="#TimesNewRomanPSMT-54"/>
      <use x="54.083984" xlink:href="#TimesNewRomanPSMT-65"/>
      <use x="98.46875" xlink:href="#TimesNewRomanPSMT-73"/>
      <use x="137.384766" xlink:href="#TimesNewRomanPSMT-74"/>
     </g>
    </g>
   </g>
  </g>
  <g id="axes_2">
   <g id="patch_7">
    <path d="M 37.8 141.696 
L 261.9 141.696 
L 261.9 78.933736 
L 37.8 78.933736 
z
" style="fill:none;"/>
   </g>
   <g id="matplotlib.axis_3">
    <g id="xtick_8">
     <g id="line2d_17">
      <g>
       <use style="stroke:#000000;stroke-width:0.8;" x="47.986364" xlink:href="#m239995dbcb" y="141.696"/>
      </g>
     </g>
     <g id="text_7">
      <!-- 0 -->
      <g transform="translate(45.123239 155.534594)scale(0.09 -0.09)">
       <use xlink:href="#DejaVuSans-30"/>
      </g>
     </g>
    </g>
    <g id="xtick_9">
     <g id="line2d_18">
      <g>
       <use style="stroke:#000000;stroke-width:0.8;" x="81.940909" xlink:href="#m239995dbcb" y="141.696"/>
      </g>
     </g>
     <g id="text_8">
      <!-- 30 -->
      <g transform="translate(76.214659 155.534594)scale(0.09 -0.09)">
       <defs>
        <path d="M 2597 2516 
Q 3050 2419 3304 2112 
Q 3559 1806 3559 1356 
Q 3559 666 3084 287 
Q 2609 -91 1734 -91 
Q 1441 -91 1130 -33 
Q 819 25 488 141 
L 488 750 
Q 750 597 1062 519 
Q 1375 441 1716 441 
Q 2309 441 2620 675 
Q 2931 909 2931 1356 
Q 2931 1769 2642 2001 
Q 2353 2234 1838 2234 
L 1294 2234 
L 1294 2753 
L 1863 2753 
Q 2328 2753 2575 2939 
Q 2822 3125 2822 3475 
Q 2822 3834 2567 4026 
Q 2313 4219 1838 4219 
Q 1578 4219 1281 4162 
Q 984 4106 628 3988 
L 628 4550 
Q 988 4650 1302 4700 
Q 1616 4750 1894 4750 
Q 2613 4750 3031 4423 
Q 3450 4097 3450 3541 
Q 3450 3153 3228 2886 
Q 3006 2619 2597 2516 
z
" id="DejaVuSans-33" transform="scale(0.015625)"/>
       </defs>
       <use xlink:href="#DejaVuSans-33"/>
       <use x="63.623047" xlink:href="#DejaVuSans-30"/>
      </g>
     </g>
    </g>
    <g id="xtick_10">
     <g id="line2d_19">
      <g>
       <use style="stroke:#000000;stroke-width:0.8;" x="115.895455" xlink:href="#m239995dbcb" y="141.696"/>
      </g>
     </g>
     <g id="text_9">
      <!-- 60 -->
      <g transform="translate(110.169205 155.534594)scale(0.09 -0.09)">
       <defs>
        <path d="M 2113 2584 
Q 1688 2584 1439 2293 
Q 1191 2003 1191 1497 
Q 1191 994 1439 701 
Q 1688 409 2113 409 
Q 2538 409 2786 701 
Q 3034 994 3034 1497 
Q 3034 2003 2786 2293 
Q 2538 2584 2113 2584 
z
M 3366 4563 
L 3366 3988 
Q 3128 4100 2886 4159 
Q 2644 4219 2406 4219 
Q 1781 4219 1451 3797 
Q 1122 3375 1075 2522 
Q 1259 2794 1537 2939 
Q 1816 3084 2150 3084 
Q 2853 3084 3261 2657 
Q 3669 2231 3669 1497 
Q 3669 778 3244 343 
Q 2819 -91 2113 -91 
Q 1303 -91 875 529 
Q 447 1150 447 2328 
Q 447 3434 972 4092 
Q 1497 4750 2381 4750 
Q 2619 4750 2861 4703 
Q 3103 4656 3366 4563 
z
" id="DejaVuSans-36" transform="scale(0.015625)"/>
       </defs>
       <use xlink:href="#DejaVuSans-36"/>
       <use x="63.623047" xlink:href="#DejaVuSans-30"/>
      </g>
     </g>
    </g>
    <g id="xtick_11">
     <g id="line2d_20">
      <g>
       <use style="stroke:#000000;stroke-width:0.8;" x="149.85" xlink:href="#m239995dbcb" y="141.696"/>
      </g>
     </g>
     <g id="text_10">
      <!-- 90 -->
      <g transform="translate(144.12375 155.534594)scale(0.09 -0.09)">
       <defs>
        <path d="M 703 97 
L 703 672 
Q 941 559 1184 500 
Q 1428 441 1663 441 
Q 2288 441 2617 861 
Q 2947 1281 2994 2138 
Q 2813 1869 2534 1725 
Q 2256 1581 1919 1581 
Q 1219 1581 811 2004 
Q 403 2428 403 3163 
Q 403 3881 828 4315 
Q 1253 4750 1959 4750 
Q 2769 4750 3195 4129 
Q 3622 3509 3622 2328 
Q 3622 1225 3098 567 
Q 2575 -91 1691 -91 
Q 1453 -91 1209 -44 
Q 966 3 703 97 
z
M 1959 2075 
Q 2384 2075 2632 2365 
Q 2881 2656 2881 3163 
Q 2881 3666 2632 3958 
Q 2384 4250 1959 4250 
Q 1534 4250 1286 3958 
Q 1038 3666 1038 3163 
Q 1038 2656 1286 2365 
Q 1534 2075 1959 2075 
z
" id="DejaVuSans-39" transform="scale(0.015625)"/>
       </defs>
       <use xlink:href="#DejaVuSans-39"/>
       <use x="63.623047" xlink:href="#DejaVuSans-30"/>
      </g>
     </g>
    </g>
    <g id="xtick_12">
     <g id="line2d_21">
      <g>
       <use style="stroke:#000000;stroke-width:0.8;" x="183.804545" xlink:href="#m239995dbcb" y="141.696"/>
      </g>
     </g>
     <g id="text_11">
      <!-- 120 -->
      <g transform="translate(175.21517 155.534594)scale(0.09 -0.09)">
       <defs>
        <path d="M 794 531 
L 1825 531 
L 1825 4091 
L 703 3866 
L 703 4441 
L 1819 4666 
L 2450 4666 
L 2450 531 
L 3481 531 
L 3481 0 
L 794 0 
L 794 531 
z
" id="DejaVuSans-31" transform="scale(0.015625)"/>
       </defs>
       <use xlink:href="#DejaVuSans-31"/>
       <use x="63.623047" xlink:href="#DejaVuSans-32"/>
       <use x="127.246094" xlink:href="#DejaVuSans-30"/>
      </g>
     </g>
    </g>
    <g id="xtick_13">
     <g id="line2d_22">
      <g>
       <use style="stroke:#000000;stroke-width:0.8;" x="217.759091" xlink:href="#m239995dbcb" y="141.696"/>
      </g>
     </g>
     <g id="text_12">
      <!-- 150 -->
      <g transform="translate(209.169716 155.534594)scale(0.09 -0.09)">
       <use xlink:href="#DejaVuSans-31"/>
       <use x="63.623047" xlink:href="#DejaVuSans-35"/>
       <use x="127.246094" xlink:href="#DejaVuSans-30"/>
      </g>
     </g>
    </g>
    <g id="xtick_14">
     <g id="line2d_23">
      <g>
       <use style="stroke:#000000;stroke-width:0.8;" x="251.713636" xlink:href="#m239995dbcb" y="141.696"/>
      </g>
     </g>
     <g id="text_13">
      <!-- 180 -->
      <g transform="translate(243.124261 155.534594)scale(0.09 -0.09)">
       <use xlink:href="#DejaVuSans-31"/>
       <use x="63.623047" xlink:href="#DejaVuSans-38"/>
       <use x="127.246094" xlink:href="#DejaVuSans-30"/>
      </g>
     </g>
    </g>
    <g id="text_14">
     <!-- Epochs -->
     <g transform="translate(135.130469 168.350063)scale(0.1 -0.1)">
      <defs>
       <path d="M 1338 4006 
L 1338 2331 
L 2269 2331 
Q 2631 2331 2753 2441 
Q 2916 2584 2934 2947 
L 3050 2947 
L 3050 1472 
L 2934 1472 
Q 2891 1781 2847 1869 
Q 2791 1978 2662 2040 
Q 2534 2103 2269 2103 
L 1338 2103 
L 1338 706 
Q 1338 425 1363 364 
Q 1388 303 1450 267 
Q 1513 231 1688 231 
L 2406 231 
Q 2766 231 2928 281 
Q 3091 331 3241 478 
Q 3434 672 3638 1063 
L 3763 1063 
L 3397 0 
L 131 0 
L 131 116 
L 281 116 
Q 431 116 566 188 
Q 666 238 702 338 
Q 738 438 738 747 
L 738 3500 
Q 738 3903 656 3997 
Q 544 4122 281 4122 
L 131 4122 
L 131 4238 
L 3397 4238 
L 3444 3309 
L 3322 3309 
Q 3256 3644 3176 3769 
Q 3097 3894 2941 3959 
Q 2816 4006 2500 4006 
L 1338 4006 
z
" id="TimesNewRomanPSMT-45" transform="scale(0.015625)"/>
       <path d="M -6 2578 
L 875 2934 
L 994 2934 
L 994 2266 
Q 1216 2644 1439 2795 
Q 1663 2947 1909 2947 
Q 2341 2947 2628 2609 
Q 2981 2197 2981 1534 
Q 2981 794 2556 309 
Q 2206 -88 1675 -88 
Q 1444 -88 1275 -22 
Q 1150 25 994 166 
L 994 -706 
Q 994 -1000 1030 -1079 
Q 1066 -1159 1155 -1206 
Q 1244 -1253 1478 -1253 
L 1478 -1369 
L -22 -1369 
L -22 -1253 
L 56 -1253 
Q 228 -1256 350 -1188 
Q 409 -1153 442 -1076 
Q 475 -1000 475 -688 
L 475 2019 
Q 475 2297 450 2372 
Q 425 2447 370 2484 
Q 316 2522 222 2522 
Q 147 2522 31 2478 
L -6 2578 
z
M 994 2081 
L 994 1013 
Q 994 666 1022 556 
Q 1066 375 1236 237 
Q 1406 100 1666 100 
Q 1978 100 2172 344 
Q 2425 663 2425 1241 
Q 2425 1897 2138 2250 
Q 1938 2494 1663 2494 
Q 1513 2494 1366 2419 
Q 1253 2363 994 2081 
z
" id="TimesNewRomanPSMT-70" transform="scale(0.015625)"/>
       <path d="M 2631 1088 
Q 2516 522 2178 217 
Q 1841 -88 1431 -88 
Q 944 -88 581 321 
Q 219 731 219 1428 
Q 219 2103 620 2525 
Q 1022 2947 1584 2947 
Q 2006 2947 2278 2723 
Q 2550 2500 2550 2259 
Q 2550 2141 2473 2067 
Q 2397 1994 2259 1994 
Q 2075 1994 1981 2113 
Q 1928 2178 1911 2362 
Q 1894 2547 1784 2644 
Q 1675 2738 1481 2738 
Q 1169 2738 978 2506 
Q 725 2200 725 1697 
Q 725 1184 976 792 
Q 1228 400 1656 400 
Q 1963 400 2206 609 
Q 2378 753 2541 1131 
L 2631 1088 
z
" id="TimesNewRomanPSMT-63" transform="scale(0.015625)"/>
       <path d="M 1041 4444 
L 1041 2350 
Q 1388 2731 1591 2839 
Q 1794 2947 1997 2947 
Q 2241 2947 2416 2812 
Q 2591 2678 2675 2391 
Q 2734 2191 2734 1659 
L 2734 647 
Q 2734 375 2778 275 
Q 2809 200 2884 156 
Q 2959 113 3159 113 
L 3159 0 
L 1753 0 
L 1753 113 
L 1819 113 
Q 2019 113 2097 173 
Q 2175 234 2206 353 
Q 2216 403 2216 647 
L 2216 1659 
Q 2216 2128 2167 2275 
Q 2119 2422 2012 2495 
Q 1906 2569 1756 2569 
Q 1603 2569 1437 2487 
Q 1272 2406 1041 2159 
L 1041 647 
Q 1041 353 1073 281 
Q 1106 209 1195 161 
Q 1284 113 1503 113 
L 1503 0 
L 84 0 
L 84 113 
Q 275 113 384 172 
Q 447 203 484 290 
Q 522 378 522 647 
L 522 3238 
Q 522 3728 498 3840 
Q 475 3953 426 3993 
Q 378 4034 297 4034 
Q 231 4034 84 3984 
L 41 4094 
L 897 4444 
L 1041 4444 
z
" id="TimesNewRomanPSMT-68" transform="scale(0.015625)"/>
      </defs>
      <use xlink:href="#TimesNewRomanPSMT-45"/>
      <use x="61.083984" xlink:href="#TimesNewRomanPSMT-70"/>
      <use x="111.083984" xlink:href="#TimesNewRomanPSMT-6f"/>
      <use x="161.083984" xlink:href="#TimesNewRomanPSMT-63"/>
      <use x="205.46875" xlink:href="#TimesNewRomanPSMT-68"/>
      <use x="255.46875" xlink:href="#TimesNewRomanPSMT-73"/>
     </g>
    </g>
   </g>
   <g id="matplotlib.axis_4">
    <g id="ytick_4">
     <g id="line2d_24">
      <g>
       <use style="stroke:#000000;stroke-width:0.8;" x="37.8" xlink:href="#m17f04ac39e" y="141.696"/>
      </g>
     </g>
     <g id="text_15">
      <!-- 0.2 -->
      <g transform="translate(16.487188 145.115297)scale(0.09 -0.09)">
       <use xlink:href="#DejaVuSans-30"/>
       <use x="63.623047" xlink:href="#DejaVuSans-2e"/>
       <use x="95.410156" xlink:href="#DejaVuSans-32"/>
      </g>
     </g>
    </g>
    <g id="ytick_5">
     <g id="line2d_25">
      <g>
       <use style="stroke:#000000;stroke-width:0.8;" x="37.8" xlink:href="#m17f04ac39e" y="111.630245"/>
      </g>
     </g>
     <g id="text_16">
      <!-- 0.6 -->
      <g transform="translate(16.487188 115.049542)scale(0.09 -0.09)">
       <use xlink:href="#DejaVuSans-30"/>
       <use x="63.623047" xlink:href="#DejaVuSans-2e"/>
       <use x="95.410156" xlink:href="#DejaVuSans-36"/>
      </g>
     </g>
    </g>
    <g id="ytick_6">
     <g id="line2d_26">
      <g>
       <use style="stroke:#000000;stroke-width:0.8;" x="37.8" xlink:href="#m17f04ac39e" y="81.564489"/>
      </g>
     </g>
     <g id="text_17">
      <!-- 1.0 -->
      <g transform="translate(16.487188 84.983786)scale(0.09 -0.09)">
       <use xlink:href="#DejaVuSans-31"/>
       <use x="63.623047" xlink:href="#DejaVuSans-2e"/>
       <use x="95.410156" xlink:href="#DejaVuSans-30"/>
      </g>
     </g>
    </g>
    <g id="text_18">
     <!-- Accuracy -->
     <g transform="translate(10.329375 129.468774)rotate(-90)scale(0.1 -0.1)">
      <defs>
       <path d="M 2928 1419 
L 1288 1419 
L 1000 750 
Q 894 503 894 381 
Q 894 284 986 211 
Q 1078 138 1384 116 
L 1384 0 
L 50 0 
L 50 116 
Q 316 163 394 238 
Q 553 388 747 847 
L 2238 4334 
L 2347 4334 
L 3822 809 
Q 4000 384 4145 257 
Q 4291 131 4550 116 
L 4550 0 
L 2878 0 
L 2878 116 
Q 3131 128 3220 200 
Q 3309 272 3309 375 
Q 3309 513 3184 809 
L 2928 1419 
z
M 2841 1650 
L 2122 3363 
L 1384 1650 
L 2841 1650 
z
" id="TimesNewRomanPSMT-41" transform="scale(0.015625)"/>
       <path d="M 2709 2863 
L 2709 1128 
Q 2709 631 2732 520 
Q 2756 409 2807 365 
Q 2859 322 2928 322 
Q 3025 322 3147 375 
L 3191 266 
L 2334 -88 
L 2194 -88 
L 2194 519 
Q 1825 119 1631 15 
Q 1438 -88 1222 -88 
Q 981 -88 804 51 
Q 628 191 559 409 
Q 491 628 491 1028 
L 491 2306 
Q 491 2509 447 2587 
Q 403 2666 317 2708 
Q 231 2750 6 2747 
L 6 2863 
L 1009 2863 
L 1009 947 
Q 1009 547 1148 422 
Q 1288 297 1484 297 
Q 1619 297 1789 381 
Q 1959 466 2194 703 
L 2194 2325 
Q 2194 2569 2105 2655 
Q 2016 2741 1734 2747 
L 1734 2863 
L 2709 2863 
z
" id="TimesNewRomanPSMT-75" transform="scale(0.015625)"/>
       <path d="M 38 2863 
L 1372 2863 
L 1372 2747 
L 1306 2747 
Q 1166 2747 1095 2686 
Q 1025 2625 1025 2534 
Q 1025 2413 1128 2197 
L 1825 753 
L 2466 2334 
Q 2519 2463 2519 2588 
Q 2519 2644 2497 2672 
Q 2472 2706 2419 2726 
Q 2366 2747 2231 2747 
L 2231 2863 
L 3163 2863 
L 3163 2747 
Q 3047 2734 2984 2696 
Q 2922 2659 2847 2556 
Q 2819 2513 2741 2316 
L 1575 -541 
Q 1406 -956 1132 -1168 
Q 859 -1381 606 -1381 
Q 422 -1381 303 -1275 
Q 184 -1169 184 -1031 
Q 184 -900 270 -820 
Q 356 -741 506 -741 
Q 609 -741 788 -809 
Q 913 -856 944 -856 
Q 1038 -856 1148 -759 
Q 1259 -663 1372 -384 
L 1575 113 
L 547 2272 
Q 500 2369 397 2513 
Q 319 2622 269 2659 
Q 197 2709 38 2747 
L 38 2863 
z
" id="TimesNewRomanPSMT-79" transform="scale(0.015625)"/>
      </defs>
      <use xlink:href="#TimesNewRomanPSMT-41"/>
      <use x="72.216797" xlink:href="#TimesNewRomanPSMT-63"/>
      <use x="116.601562" xlink:href="#TimesNewRomanPSMT-63"/>
      <use x="160.986328" xlink:href="#TimesNewRomanPSMT-75"/>
      <use x="210.986328" xlink:href="#TimesNewRomanPSMT-72"/>
      <use x="244.287109" xlink:href="#TimesNewRomanPSMT-61"/>
      <use x="288.671875" xlink:href="#TimesNewRomanPSMT-63"/>
      <use x="333.056641" xlink:href="#TimesNewRomanPSMT-79"/>
     </g>
    </g>
   </g>
   <g id="line2d_27">
    <path clip-path="url(#pe3aef74b5c)" d="M 47.986364 119.146684 
L 49.118182 126.663122 
L 50.25 111.630245 
L 51.381818 126.663122 
L 52.513636 119.146684 
L 53.645455 119.146684 
L 54.777273 111.630245 
L 55.909091 119.146684 
L 58.172727 119.146684 
L 59.304545 111.630245 
L 60.436364 111.630245 
L 61.568182 126.663122 
L 62.7 111.630245 
L 63.831818 104.113806 
L 64.963636 104.113806 
L 66.095455 96.597367 
L 67.227273 134.179561 
L 68.359091 104.113806 
L 69.490909 96.597367 
L 70.622727 111.630245 
L 71.754545 81.564489 
L 72.886364 104.113806 
L 76.281818 104.113806 
L 77.413636 89.080928 
L 78.545455 111.630245 
L 79.677273 119.146684 
L 80.809091 96.597367 
L 81.940909 104.113806 
L 83.072727 89.080928 
L 84.204545 111.630245 
L 85.336364 96.597367 
L 86.468182 111.630245 
L 87.6 89.080928 
L 90.995455 89.080928 
L 92.127273 81.564489 
L 93.259091 89.080928 
L 94.390909 89.080928 
L 96.654545 104.113806 
L 97.786364 96.597367 
L 98.918182 81.564489 
L 100.05 111.630245 
L 101.181818 89.080928 
L 102.313636 89.080928 
L 103.445455 96.597367 
L 104.577273 81.564489 
L 105.709091 89.080928 
L 106.840909 81.564489 
L 111.368182 81.564489 
L 112.5 96.597367 
L 113.631818 89.080928 
L 117.027273 89.080928 
L 118.159091 81.564489 
L 120.422727 81.564489 
L 121.554545 89.080928 
L 122.686364 81.564489 
L 123.818182 89.080928 
L 126.081818 89.080928 
L 127.213636 81.564489 
L 128.345455 81.564489 
L 130.609091 96.597367 
L 131.740909 81.564489 
L 132.872727 81.564489 
L 134.004545 89.080928 
L 135.136364 89.080928 
L 136.268182 81.564489 
L 137.4 89.080928 
L 139.663636 89.080928 
L 140.795455 81.564489 
L 141.927273 89.080928 
L 143.059091 89.080928 
L 144.190909 81.564489 
L 149.85 81.564489 
L 150.981818 89.080928 
L 153.245455 89.080928 
L 154.377273 81.564489 
L 155.509091 89.080928 
L 157.772727 89.080928 
L 158.904545 81.564489 
L 166.827273 81.564489 
L 167.959091 89.080928 
L 169.090909 81.564489 
L 170.222727 89.080928 
L 172.486364 89.080928 
L 173.618182 81.564489 
L 183.804545 81.564489 
L 184.936364 96.597367 
L 186.068182 81.564489 
L 187.2 89.080928 
L 188.331818 89.080928 
L 189.463636 81.564489 
L 190.595455 89.080928 
L 191.727273 104.113806 
L 192.859091 81.564489 
L 203.045455 81.564489 
L 204.177273 89.080928 
L 205.309091 81.564489 
L 207.572727 81.564489 
L 208.704545 89.080928 
L 209.836364 81.564489 
L 217.759091 81.564489 
L 218.890909 96.597367 
L 220.022727 81.564489 
L 221.154545 89.080928 
L 222.286364 89.080928 
L 223.418182 81.564489 
L 229.077273 81.564489 
L 230.209091 89.080928 
L 231.340909 89.080928 
L 232.472727 81.564489 
L 233.604545 81.564489 
L 234.736364 89.080928 
L 235.868182 81.564489 
L 246.054545 81.564489 
L 247.186364 89.080928 
L 248.318182 81.564489 
L 251.713636 81.564489 
L 251.713636 81.564489 
" style="fill:none;stroke:#2ca02c;stroke-linecap:square;stroke-width:2;"/>
   </g>
   <g id="line2d_28">
    <path clip-path="url(#pe3aef74b5c)" d="M 47.986364 129.669698 
L 49.118182 126.663122 
L 50.25 125.159835 
L 51.381818 125.159835 
L 52.513636 114.63682 
L 53.645455 132.676273 
L 55.909091 120.649971 
L 57.040909 122.153259 
L 58.172727 111.630245 
L 59.304545 111.630245 
L 60.436364 116.140108 
L 61.568182 108.623669 
L 62.7 119.146684 
L 63.831818 104.113806 
L 64.963636 108.623669 
L 66.095455 101.10723 
L 68.359091 113.133532 
L 69.490909 110.126957 
L 71.754545 110.126957 
L 72.886364 104.113806 
L 74.018182 107.120381 
L 75.15 102.610518 
L 76.281818 110.126957 
L 77.413636 102.610518 
L 78.545455 110.126957 
L 79.677273 104.113806 
L 80.809091 99.603943 
L 81.940909 104.113806 
L 83.072727 98.100655 
L 85.336364 101.10723 
L 86.468182 99.603943 
L 87.6 101.10723 
L 88.731818 105.617094 
L 89.863636 93.590792 
L 90.995455 96.597367 
L 92.127273 92.087504 
L 93.259091 98.100655 
L 94.390909 93.590792 
L 96.654545 90.584216 
L 97.786364 93.590792 
L 98.918182 92.087504 
L 100.05 96.597367 
L 101.181818 87.57764 
L 102.313636 89.080928 
L 103.445455 87.57764 
L 104.577273 89.080928 
L 105.709091 84.571065 
L 106.840909 87.57764 
L 107.972727 84.571065 
L 109.104545 83.067777 
L 110.236364 87.57764 
L 111.368182 81.564489 
L 113.631818 87.57764 
L 115.895455 81.564489 
L 117.027273 83.067777 
L 118.159091 83.067777 
L 119.290909 84.571065 
L 120.422727 84.571065 
L 122.686364 87.57764 
L 123.818182 87.57764 
L 124.95 93.590792 
L 126.081818 86.074353 
L 127.213636 98.100655 
L 128.345455 90.584216 
L 129.477273 87.57764 
L 130.609091 86.074353 
L 131.740909 86.074353 
L 132.872727 87.57764 
L 134.004545 90.584216 
L 136.268182 90.584216 
L 137.4 86.074353 
L 138.531818 90.584216 
L 139.663636 81.564489 
L 140.795455 87.57764 
L 141.927273 84.571065 
L 143.059091 86.074353 
L 144.190909 84.571065 
L 145.322727 86.074353 
L 146.454545 86.074353 
L 147.586364 84.571065 
L 149.85 84.571065 
L 150.981818 83.067777 
L 152.113636 86.074353 
L 153.245455 86.074353 
L 154.377273 89.080928 
L 155.509091 83.067777 
L 157.772727 89.080928 
L 158.904545 89.080928 
L 161.168182 86.074353 
L 162.3 89.080928 
L 163.431818 86.074353 
L 164.563636 84.571065 
L 165.695455 81.564489 
L 167.959091 84.571065 
L 169.090909 84.571065 
L 170.222727 86.074353 
L 172.486364 86.074353 
L 173.618182 84.571065 
L 174.75 84.571065 
L 175.881818 83.067777 
L 177.013636 86.074353 
L 178.145455 84.571065 
L 181.540909 84.571065 
L 182.672727 86.074353 
L 183.804545 84.571065 
L 184.936364 87.57764 
L 186.068182 86.074353 
L 187.2 86.074353 
L 188.331818 87.57764 
L 189.463636 81.564489 
L 190.595455 86.074353 
L 191.727273 89.080928 
L 192.859091 86.074353 
L 195.122727 86.074353 
L 196.254545 83.067777 
L 197.386364 86.074353 
L 198.518182 84.571065 
L 199.65 86.074353 
L 200.781818 81.564489 
L 201.913636 83.067777 
L 203.045455 81.564489 
L 204.177273 86.074353 
L 205.309091 81.564489 
L 207.572727 84.571065 
L 208.704545 84.571065 
L 209.836364 83.067777 
L 212.1 86.074353 
L 214.363636 86.074353 
L 215.495455 84.571065 
L 216.627273 89.080928 
L 217.759091 90.584216 
L 218.890909 89.080928 
L 220.022727 89.080928 
L 221.154545 95.094079 
L 222.286364 83.067777 
L 223.418182 86.074353 
L 224.55 81.564489 
L 225.681818 81.564489 
L 226.813636 84.571065 
L 227.945455 81.564489 
L 229.077273 86.074353 
L 231.340909 83.067777 
L 232.472727 83.067777 
L 233.604545 81.564489 
L 234.736364 84.571065 
L 235.868182 81.564489 
L 237 81.564489 
L 238.131818 84.571065 
L 240.395455 81.564489 
L 241.527273 84.571065 
L 242.659091 81.564489 
L 243.790909 83.067777 
L 244.922727 81.564489 
L 247.186364 84.571065 
L 248.318182 83.067777 
L 250.581818 83.067777 
L 251.713636 81.564489 
L 251.713636 81.564489 
" style="fill:none;stroke:#d62728;stroke-linecap:square;stroke-width:2;"/>
   </g>
   <g id="patch_8">
    <path d="M 37.8 141.696 
L 37.8 78.933736 
" style="fill:none;stroke:#000000;stroke-linecap:square;stroke-linejoin:miter;stroke-width:0.8;"/>
   </g>
   <g id="patch_9">
    <path d="M 261.9 141.696 
L 261.9 78.933736 
" style="fill:none;stroke:#000000;stroke-linecap:square;stroke-linejoin:miter;stroke-width:0.8;"/>
   </g>
   <g id="patch_10">
    <path d="M 37.8 141.696 
L 261.9 141.696 
" style="fill:none;stroke:#000000;stroke-linecap:square;stroke-linejoin:miter;stroke-width:0.8;"/>
   </g>
   <g id="patch_11">
    <path d="M 37.8 78.933736 
L 261.9 78.933736 
" style="fill:none;stroke:#000000;stroke-linecap:square;stroke-linejoin:miter;stroke-width:0.8;"/>
   </g>
  </g>
 </g>
 <defs>
  <clipPath id="p800b6dc8e9">
   <rect height="62.762264" width="224.1" x="37.8" y="8.64"/>
  </clipPath>
  <clipPath id="pe3aef74b5c">
   <rect height="62.762264" width="224.1" x="37.8" y="78.933736"/>
  </clipPath>
 </defs>
</svg>
